<svg style="position: absolute; width: 0; height: 0; overflow: hidden;" version="1.1" xmlns="http://www.w3.org/2000/svg" xmlns:xlink="http://www.w3.org/1999/xlink">
<defs>
<symbol id="lbsvgi-uk-great-britain1" viewBox="0 0 53 32">
<title>uk-great-britain1</title>
<path class="path1" fill="#002d62" d="M0.013 0.062h53.26v31.881h-53.26v-31.881z"></path>
<path class="path2" fill="#fff" d="M0.013 10.686h11.249l-11.249-6.752v-3.872h6.436l14.928 9.916v-9.916h10.578v9.501l14.337-9.501h6.981v3.906l-11.204 6.718h11.204v10.632h-11.305l11.305 6.732v3.893h-6.492l-14.827-9.863v9.863h-10.578v-9.905l-14.928 9.905h-6.436v-3.918l11.249-6.707h-11.249z"></path>
<path class="path3" fill="#e31937" d="M0.013 12.891h23.602v-12.829h6.269v12.829h23.388v6.226h-23.388l0.024 12.825h-6.294v-12.825h-23.602z"></path>
<path class="path4" fill="#002d62" d="M31.884 10.009v-9.996h16.576z"></path>
<path class="path5" fill="#002d62" d="M21.433 10.009v-9.996h-16.576z"></path>
<path class="path6" fill="#002d62" d="M31.9 21.991v9.996h16.576z"></path>
<path class="path7" fill="#002d62" d="M21.433 21.983v9.996h-16.576z"></path>
<path class="path8" fill="#e31937" d="M17.744 10.691h-3.95l-13.785-8.256v-2.422z"></path>
<path class="path9" fill="#e31937" d="M35.535 21.326h3.95l13.785 8.236v2.417z"></path>
<path class="path10" fill="#e31937" d="M0.022 31.374l16.549-9.911h3.515l-17.463 10.48-2.598-0.001z"></path>
<path class="path11" fill="#e31937" d="M53.307 0.72l-16.653 9.98-3.758 0.049 17.943-10.703h2.434z"></path>
</symbol>
<symbol id="lbsvgi-camera14" viewBox="0 0 32 32">
<title>camera14</title>
<path class="path1" fill="#424242" d="M9.792 23.546c0.514 1.406 2.053 2.133 3.447 1.62l6.727-2.313 0.953 3.979c0.206 0.959 1.573 1.833 2.579 1.833h3.833c0.733 0 1.333 0.6 1.333 1.334v0.333c0 0.921 0.747 1.667 1.667 1.667 0.921 0 1.667-0.746 1.667-1.667v-6.667c0-0.919-0.746-1.667-1.667-1.667-0.919 0-1.667 0.747-1.667 1.667v0.333c0 0.733-0.6 1.333-1.333 1.333h-2c-0.733 0-1.153-0.62-1.333-1.333l-0.594-2.327 6.827-2.347c1.393-0.513 2.113-2.073 1.607-3.487l-5.053-14.054c-0.507-1.407-2.047-2.134-3.44-1.62l-16.992 5.84c-1.393 0.514-2.113 2.073-1.605 3.487l1.147 3.193-2.519 0.927-0.121-0.32c-0.313-0.88-1.28-1.333-2.147-1.013-0.874 0.32-1.32 1.293-1.007 2.181l2.987 8.301c0.313 0.887 1.28 1.34 2.153 1.019 0.867-0.327 1.319-1.299 0.999-2.18l-0.239-0.6 0.999-0.561 1.227-0.314 1.566 3.421zM21.332 5.665c0-0.92 0.747-1.667 1.666-1.667 0.921 0 1.667 0.747 1.667 1.667s-0.746 1.667-1.667 1.667c-0.919 0-1.666-0.747-1.666-1.667z"></path>
</symbol>
<symbol id="lbsvgi-search7" viewBox="0 0 32 32">
<title>search7</title>
<path class="path1" fill="#424242" d="M19.768 9.332c1.44 0.333 2.586 1.56 2.919 2.9 0.114 0.627 0.66 1.1 1.314 1.1 0.733 0 1.333-0.6 1.333-1.333 0-0.96-0.807-2.42-1.907-3.513-1.080-1.067-2.367-1.82-3.427-1.82-0.733 0-1.333 0.62-1.333 1.353 0 0.653 0.473 1.2 1.1 1.313zM1.441 26.812c-1.033 1.033-1.033 2.713 0 3.746 1.033 1.034 2.713 1.034 3.74 0l7.659-7.653c1.787 1.115 3.893 1.761 6.16 1.761 6.447 0 11.667-5.22 11.667-11.667s-5.22-11.667-11.667-11.667-11.667 5.22-11.667 11.667c0 2.26 0.647 4.373 1.761 6.16l-7.653 7.653zM10.668 12.999c0-4.6 3.734-8.333 8.333-8.333s8.333 3.733 8.333 8.333-3.733 8.333-8.333 8.333c-4.599-0.001-8.333-3.734-8.333-8.333z"></path>
</symbol>
<symbol id="lbsvgi-lock_outline" viewBox="0 0 32 32">
<title>lock_outline</title>
<path class="path1" fill="#424242" d="M16 22.688q-1.063 0-1.875-0.812t-0.812-1.875 0.812-1.875 1.875-0.812 1.875 0.812 0.812 1.875-0.812 1.875-1.875 0.812zM24 26.688v-13.375h-16v13.375h16zM16 3.875q-1.688 0-2.907 1.219t-1.219 2.907h0.125v2.688h8.125v-2.688q0-1.688-1.219-2.907t-2.907-1.219zM24 10.688q1.063 0 1.875 0.781t0.812 1.844v13.375q0 1.063-0.812 1.844t-1.875 0.781h-16q-1.063 0-1.875-0.781t-0.812-1.844v-13.375q0-1.063 0.812-1.844t1.875-0.781h1.312v-2.688q0-2.751 1.969-4.719t4.719-1.969 4.719 1.969 1.969 4.719v2.688h1.312z"></path>
</symbol>
<symbol id="lbsvgi-live_help" viewBox="0 0 32 32">
<title>live_help</title>
<path class="path1" fill="#424242" d="M20.063 13.688q1.251-1.251 1.251-3 0-2.188-1.563-3.781t-3.751-1.593-3.751 1.593-1.563 3.781h2.625q0-1.063 0.812-1.875t1.875-0.812 1.875 0.812 0.812 1.875-0.812 1.875l-1.625 1.688q-1.563 1.688-1.563 3.751v0.688h2.625q0-2.125 1.563-3.812zM17.312 24v-2.688h-2.625v2.688h2.625zM25.312 2.688q1.063 0 1.875 0.781t0.812 1.844v18.688q0 1.063-0.812 1.875t-1.875 0.812h-5.312l-4 4-4-4h-5.312q-1.125 0-1.907-0.812t-0.781-1.875v-18.688q0-1.063 0.781-1.844t1.907-0.781h18.625z"></path>
</symbol>
<symbol id="lbsvgi-lb-idea" viewBox="0 0 32 32">
<title>lb-idea</title>
<path class="path1" fill="#424242" d="M25.766 21.33c-0.074-0.324-0.253-0.629-0.536-0.876-0.284-0.245-0.631-0.393-0.991-0.448l-5.784-1.119 1.673 1.11-2.641 8.281-1.488-6.151-1.488 6.151-2.641-8.281 1.673-1.11-5.784 1.119c-0.36 0.054-0.707 0.203-0.991 0.448-0.282 0.247-0.462 0.552-0.535 0.876l-1.715 7.533 3.235 1.122c1.074 1.116 4.080 1.937 7.686 2.016h1.121c3.605-0.078 6.611-0.899 7.685-2.016l3.235-1.122-1.715-7.533z"></path>
<path class="path2" fill="#424242" d="M16 19.728l-1.333 0.477 1.333 1.922 1.334-1.922z"></path>
<path class="path3" fill="#424242" d="M18.491 16.237c0 0.203-0.166 0.369-0.368 0.369h-4.245c-0.203 0-0.368-0.166-0.368-0.369v0c0-0.203 0.166-0.369 0.368-0.369h4.246c0.203 0 0.368 0.166 0.368 0.369v0zM16 3.11c0.203 0 0.369-0.165 0.369-0.368v-2.373c0-0.202-0.166-0.369-0.369-0.369v0c-0.203 0-0.369 0.166-0.369 0.369v2.373c0 0.203 0.166 0.368 0.369 0.368v0zM19.18 3.963c0.176 0.101 0.402 0.041 0.504-0.135l1.186-2.055c0.101-0.175 0.041-0.402-0.135-0.503v0c-0.175-0.101-0.402-0.041-0.503 0.135l-1.187 2.056c-0.101 0.175-0.041 0.402 0.135 0.503v0zM21.508 6.291c0.101 0.175 0.328 0.237 0.503 0.135l2.055-1.187c0.176-0.101 0.236-0.328 0.135-0.503v0c-0.101-0.176-0.328-0.236-0.503-0.135l-2.055 1.186c-0.176 0.101-0.237 0.328-0.135 0.503v0zM22.361 9.471c0 0.203 0.166 0.369 0.368 0.368h2.374c0.202 0 0.368-0.166 0.368-0.368v0c0-0.203-0.166-0.368-0.368-0.368h-2.374c-0.203 0-0.368 0.166-0.368 0.368v0zM12.82 3.963c0.175-0.102 0.236-0.328 0.135-0.503l-1.187-2.056c-0.101-0.175-0.328-0.236-0.503-0.135v0c-0.176 0.101-0.236 0.328-0.135 0.503l1.187 2.055c0.102 0.176 0.328 0.236 0.504 0.135v0zM10.492 6.291c0.101-0.176 0.041-0.402-0.135-0.503l-2.055-1.187c-0.176-0.101-0.403-0.041-0.504 0.135v0c-0.101 0.175-0.040 0.402 0.135 0.503l2.055 1.187c0.176 0.101 0.402 0.040 0.503-0.135v0zM9.64 9.471c0-0.203-0.166-0.368-0.368-0.369h-2.373c-0.203 0-0.368 0.166-0.368 0.369v0c0 0.203 0.166 0.369 0.368 0.369h2.373c0.202 0 0.368-0.166 0.368-0.369v0zM18.491 17.249c0-0.203-0.166-0.369-0.368-0.369h-4.245c-0.203 0-0.368 0.166-0.368 0.369v0c0 0.203 0.166 0.368 0.368 0.368h4.246c0.203-0 0.368-0.166 0.368-0.368v0zM14.756 17.892c0.173 0.522 0.664 0.9 1.244 0.9s1.072-0.377 1.245-0.9h-2.489zM16 9.455h0c0.248-0.234 0.63-0.68 0.63-1.076 0-0.369-0.283-0.67-0.63-0.67-0.348 0-0.631 0.301-0.631 0.67 0 0.396 0.383 0.842 0.631 1.076zM15.649 10.246c0.045-0.028 0.087-0.058 0.128-0.085s0.079-0.053 0.115-0.077c0.016-0.010 0.059-0.044 0.109-0.081 0.048 0.037 0.092 0.070 0.108 0.081 0.036 0.024 0.074 0.050 0.115 0.077s0.083 0.057 0.128 0.085c0.090 0.057 0.186 0.117 0.283 0.178l0.009 0.006 0.008 0.005 0.005 0.003 0.018 0.010 0.037 0.021c0.024 0.014 0.048 0.027 0.072 0.040 0.048 0.027 0.095 0.053 0.141 0.079 0.096 0.048 0.186 0.093 0.264 0.132 0.062 0.029 0.116 0.054 0.157 0.073l-0.784 4.506h-1.123l-0.784-4.506c0.042-0.020 0.095-0.044 0.157-0.073 0.077-0.039 0.167-0.084 0.264-0.132 0.046-0.025 0.093-0.052 0.141-0.079 0.024-0.013 0.048-0.027 0.073-0.040l0.036-0.021 0.018-0.010 0.005-0.003 0.008-0.005 0.010-0.006c0.096-0.060 0.193-0.121 0.283-0.178zM21.188 9.471c0 1.524-0.657 2.894-1.702 3.843-0.003 0.001-0.157 0.131-0.231 0.196-0.492 0.427-0.764 1.086-0.764 1.789h-1.85l0.962-4.388c0.205 0.095 0.57 0.237 0.923 0.237 0.163 0 0.308-0.031 0.432-0.090 0.222-0.108 0.391-0.3 0.476-0.543 0.085-0.242 0.076-0.506-0.024-0.741-0.148-0.345-0.474-0.568-0.831-0.568-0.131 0-0.258 0.029-0.378 0.088-0.449 0.217-0.688 0.857-0.783 1.18-0.028-0.015-0.058-0.032-0.092-0.051-0.069-0.041-0.15-0.089-0.237-0.14-0.044-0.029-0.089-0.059-0.135-0.088-0.023-0.015-0.046-0.031-0.070-0.046l-0.035-0.023-0.017-0.012-0.004-0.003-0-0c0.002 0.001 0.004 0.003 0.004 0.002l-0.001-0.001-0.002-0.001-0.008-0.006c-0.089-0.065-0.178-0.13-0.261-0.191-0.041-0.031-0.080-0.062-0.117-0.091s-0.073-0.057-0.105-0.082c-0.003-0.003-0.007-0.005-0.010-0.008 0.271-0.268 0.719-0.794 0.719-1.354 0-0.612-0.468-1.11-1.044-1.11-0.576 0-1.044 0.497-1.044 1.11 0 0.56 0.448 1.086 0.719 1.354-0.003 0.003-0.007 0.005-0.010 0.008-0.033 0.025-0.068 0.053-0.105 0.082s-0.076 0.060-0.118 0.091c-0.083 0.060-0.172 0.126-0.261 0.191l-0.008 0.006-0.002 0.001-0.001 0.001c-0 0 0.001-0.001 0.002-0.001l-0.003 0.002-0.018 0.012-0.035 0.023c-0.023 0.015-0.046 0.030-0.070 0.046-0.046 0.030-0.091 0.060-0.135 0.088-0.087 0.051-0.167 0.099-0.236 0.14-0.034 0.019-0.064 0.036-0.092 0.051-0.095-0.323-0.335-0.963-0.784-1.18-0.12-0.059-0.247-0.088-0.378-0.088-0.356 0-0.683 0.223-0.83 0.568-0.101 0.236-0.11 0.499-0.024 0.741 0.085 0.243 0.254 0.436 0.476 0.543 0.124 0.060 0.27 0.090 0.433 0.090 0.353 0 0.718-0.143 0.923-0.237l0.962 4.388h-1.85c0-0.703-0.273-1.362-0.764-1.789-0.075-0.065-0.229-0.194-0.231-0.196-1.046-0.949-1.703-2.32-1.703-3.843 0-2.865 2.323-5.189 5.189-5.189s5.188 2.324 5.188 5.189zM18.526 10.849c-0.329 0-0.686-0.152-0.855-0.234 0.071-0.256 0.276-0.871 0.647-1.050 0.083-0.041 0.171-0.061 0.261-0.061 0.247 0 0.473 0.154 0.575 0.393 0.070 0.163 0.076 0.345 0.017 0.513s-0.176 0.301-0.33 0.376c-0.087 0.042-0.193 0.063-0.316 0.063zM14.329 10.615c-0.169 0.082-0.525 0.234-0.854 0.234-0.122 0-0.228-0.021-0.316-0.064-0.153-0.075-0.271-0.208-0.33-0.376s-0.053-0.35 0.017-0.513c0.103-0.239 0.328-0.393 0.575-0.393 0.090 0 0.179 0.020 0.262 0.061 0.371 0.179 0.576 0.795 0.647 1.050z"></path>
</symbol>
<symbol id="lbsvgi-lb-delegate" viewBox="0 0 32 32">
<title>lb-delegate</title>
<path class="path1" fill="#424242" d="M21.681 8.803c-0.043-0.188-0.147-0.366-0.312-0.509-0.164-0.142-0.367-0.229-0.576-0.26l-3.364-0.651 0.973 0.646-1.537 4.817-0.865-3.578-0.866 3.578-1.536-4.817 0.973-0.646-3.364 0.651c-0.209 0.032-0.411 0.118-0.576 0.26-0.165 0.144-0.268 0.321-0.311 0.509l-0.997 4.382 1.882 0.653c0.625 0.65 2.373 1.127 4.47 1.172h0.652c2.097-0.045 3.845-0.523 4.47-1.172l1.883-0.653-0.998-4.382z"></path>
<path class="path2" fill="#424242" d="M16 7.871l-0.776 0.278 0.776 1.118 0.776-1.118z"></path>
<path class="path3" fill="#424242" d="M18.879 3.557c0-1.989-0.818-3.547-2.879-3.547s-2.88 1.558-2.88 3.547c-0.215 0.112-0.356 0.376-0.144 0.942 0.107 0.284 0.295 0.522 0.455 0.647 0.587 1.462 1.742 2.592 2.57 2.592s1.983-1.13 2.57-2.592c0.16-0.124 0.348-0.362 0.455-0.647 0.211-0.565 0.070-0.83-0.146-0.942z"></path>
<path class="path4" fill="#424242" d="M27.507 19.455c-0.173-0.67-0.796-1.104-1.461-1.062l-0.733-1.614h-9.042v-1.166h-0.542v1.166h-9.043l-0.732 1.614c-0.666-0.042-1.288 0.392-1.462 1.062-0.196 0.759 0.261 1.534 1.020 1.73s1.535-0.261 1.731-1.021c0.173-0.67-0.163-1.351-0.765-1.637l0.628-1.208h8.623v1.165c-0.655 0.127-1.15 0.702-1.15 1.395 0 0.784 0.636 1.42 1.42 1.42v0 0c0.785 0 1.42-0.636 1.42-1.42 0-0.692-0.495-1.268-1.149-1.394v-1.166h8.624l0.627 1.208c-0.603 0.286-0.938 0.967-0.765 1.637 0.196 0.76 0.971 1.217 1.73 1.021s1.217-0.971 1.021-1.73zM6.72 20.030c-0.121 0.469-0.602 0.753-1.071 0.632s-0.753-0.602-0.632-1.071c0.121-0.469 0.602-0.753 1.071-0.632s0.752 0.602 0.632 1.071zM16.879 19.88c0 0.485-0.395 0.879-0.88 0.879v0 0c-0.485 0-0.88-0.394-0.88-0.879s0.394-0.879 0.88-0.879v0 0c0.484 0 0.88 0.395 0.88 0.879zM26.351 20.661c-0.469 0.121-0.95-0.162-1.071-0.632-0.122-0.469 0.162-0.95 0.632-1.071s0.95 0.162 1.071 0.632c0.122 0.47-0.161 0.95-0.632 1.071z"></path>
<path class="path5" fill="#424242" d="M8.229 27.857c-0.027-0.125-0.097-0.243-0.207-0.339s-0.244-0.152-0.383-0.174l-2.51-0.487c0.393-0.306 0.785-0.828 1.030-1.436 0.106-0.083 0.232-0.242 0.303-0.43 0.141-0.376 0.047-0.552-0.097-0.627 0-1.324-0.545-2.362-1.917-2.362s-1.917 1.038-1.917 2.362c-0.143 0.075-0.238 0.251-0.097 0.627 0.071 0.189 0.197 0.347 0.303 0.43 0.244 0.608 0.635 1.13 1.029 1.436l-2.51 0.487c-0.139 0.021-0.273 0.078-0.384 0.174-0.109 0.096-0.178 0.214-0.207 0.339l-0.664 2.918 1.253 0.435c0.416 0.432 1.58 0.75 2.977 0.78h0.435c1.396-0.030 2.561-0.348 2.977-0.78l1.253-0.435-0.665-2.918z"></path>
<path class="path6" fill="#424242" d="M31.336 27.857c-0.028-0.125-0.098-0.243-0.207-0.339-0.11-0.095-0.245-0.152-0.384-0.174l-2.51-0.487c0.394-0.306 0.786-0.828 1.030-1.436 0.107-0.083 0.232-0.242 0.303-0.43 0.141-0.376 0.046-0.552-0.097-0.627 0-1.324-0.545-2.362-1.917-2.362s-1.917 1.038-1.917 2.362c-0.143 0.075-0.238 0.251-0.097 0.627 0.071 0.189 0.196 0.347 0.303 0.43 0.245 0.608 0.637 1.13 1.030 1.436l-2.51 0.487c-0.139 0.021-0.273 0.078-0.384 0.174-0.109 0.096-0.179 0.214-0.207 0.339l-0.665 2.918 1.253 0.435c0.416 0.432 1.58 0.75 2.977 0.78h0.434c1.396-0.030 2.56-0.348 2.977-0.78l1.253-0.435-0.665-2.918z"></path>
<path class="path7" fill="#424242" d="M19.783 27.857c-0.029-0.125-0.098-0.243-0.207-0.339s-0.244-0.152-0.384-0.174l-2.51-0.487c0.395-0.306 0.786-0.828 1.030-1.436 0.107-0.083 0.232-0.242 0.303-0.43 0.142-0.376 0.048-0.552-0.096-0.627 0-1.324-0.545-2.362-1.917-2.362s-1.917 1.038-1.917 2.362c-0.143 0.075-0.238 0.251-0.097 0.627 0.071 0.189 0.197 0.347 0.303 0.43 0.244 0.608 0.636 1.13 1.030 1.436l-2.51 0.487c-0.139 0.021-0.274 0.078-0.384 0.174-0.109 0.096-0.178 0.214-0.207 0.339l-0.664 2.918 1.253 0.435c0.416 0.432 1.58 0.75 2.976 0.78h0.435c1.396-0.030 2.561-0.348 2.976-0.78l1.253-0.435-0.665-2.918z"></path>
</symbol>
<symbol id="lbsvgi-lb-chart-presentation" viewBox="0 0 32 32">
<title>lb-chart-presentation</title>
<path class="path1" fill="#424242" d="M30.046 0h-28.091c-0.859 0-1.561 0.703-1.561 1.561s0.702 1.56 1.56 1.56h0.362v15.45c0 1.119 0.91 2.029 2.029 2.029h23.309c1.118 0 2.029-0.91 2.029-2.029v-15.45h0.363c0.858 0 1.561-0.702 1.561-1.56s-0.703-1.561-1.561-1.561zM27.81 18.572c0 0.083-0.072 0.156-0.156 0.156h-23.309c-0.084 0-0.157-0.073-0.157-0.156v-15.45h23.621v15.45z"></path>
<path class="path2" fill="#424242" d="M23.876 6.072c-0.857 0-1.555 0.697-1.555 1.554 0 0.327 0.101 0.632 0.274 0.88l-3.596 4.14c-0.207-0.105-0.442-0.163-0.691-0.163-0.275 0-0.531 0.071-0.754 0.196l-1.62-1.704c0.149-0.239 0.237-0.521 0.237-0.824 0-0.857-0.697-1.555-1.554-1.555s-1.554 0.697-1.554 1.555c0 0.153 0.022 0.299 0.062 0.439l-3.911 2.341c-0.28-0.278-0.665-0.448-1.090-0.448-0.856 0-1.555 0.697-1.555 1.554s0.698 1.554 1.555 1.554c0.857 0 1.555-0.697 1.555-1.554 0-0.154-0.022-0.299-0.064-0.439l3.914-2.341c0.279 0.278 0.664 0.448 1.089 0.448 0.274 0 0.53-0.072 0.754-0.196l1.618 1.704c-0.15 0.239-0.235 0.521-0.235 0.824 0 0.857 0.696 1.554 1.555 1.554 0.856 0 1.554-0.697 1.554-1.554 0-0.328-0.103-0.632-0.276-0.882l3.596-4.138c0.208 0.105 0.445 0.163 0.694 0.163 0.856 0 1.554-0.698 1.554-1.555s-0.698-1.554-1.554-1.554zM8.901 14.037c0 0.427-0.348 0.777-0.778 0.777s-0.778-0.349-0.778-0.777c0-0.429 0.349-0.777 0.778-0.777 0.138 0 0.267 0.035 0.377 0.097 0.235 0.13 0.394 0.379 0.401 0.666v0.014zM14.616 10.929c-0.138 0-0.268-0.035-0.379-0.097-0.235-0.132-0.395-0.383-0.399-0.669v-0.011c0-0.429 0.348-0.777 0.777-0.777 0.428 0 0.777 0.348 0.777 0.777 0 0.075-0.012 0.151-0.033 0.221-0.078 0.263-0.294 0.47-0.564 0.534-0.059 0.014-0.118 0.021-0.18 0.021zM19.085 14.037c0 0.427-0.35 0.777-0.777 0.777-0.429 0-0.777-0.349-0.777-0.777 0-0.076 0.011-0.149 0.030-0.219 0.078-0.267 0.296-0.472 0.565-0.536 0.059-0.013 0.119-0.021 0.182-0.021 0.050 0 0.099 0.004 0.146 0.013 0.274 0.053 0.498 0.249 0.588 0.509 0.027 0.079 0.042 0.165 0.042 0.255zM23.876 8.403c-0.051 0-0.101-0.006-0.148-0.014-0.274-0.054-0.498-0.252-0.587-0.511-0.027-0.080-0.042-0.166-0.042-0.253 0-0.429 0.349-0.777 0.777-0.777 0.429 0 0.777 0.348 0.777 0.777 0 0.428-0.348 0.778-0.777 0.778z"></path>
<path class="path3" fill="#424242" d="M26.393 29.49c-0.257 0-0.494 0.077-0.693 0.209l-9.153-4.64v-4.457h-1.093v4.457l-9.153 4.64c-0.199-0.132-0.437-0.209-0.693-0.209-0.693 0-1.255 0.563-1.255 1.256s0.562 1.255 1.255 1.255 1.255-0.563 1.255-1.255c0-0.035-0.002-0.069-0.005-0.104l8.596-4.358v3.333c-0.42 0.203-0.71 0.632-0.71 1.129 0 0.692 0.562 1.255 1.256 1.255s1.255-0.563 1.255-1.255c0-0.497-0.29-0.926-0.708-1.129v-3.333l8.596 4.358c-0.003 0.034-0.006 0.069-0.006 0.104 0 0.692 0.563 1.255 1.256 1.255s1.255-0.563 1.255-1.255c-0-0.693-0.562-1.255-1.255-1.255z"></path>
</symbol>
<symbol id="lbsvgi-lb-business-group" viewBox="0 0 32 32">
<title>lb-business-group</title>
<path class="path1" fill="#424242" d="M24.93 18.033c-0.068-0.296-0.231-0.576-0.49-0.801-0.26-0.224-0.577-0.359-0.906-0.409l-5.289-1.023 1.53 1.016-2.416 7.572-1.36-5.624-1.361 5.624-2.414-7.572 1.529-1.016-5.289 1.023c-0.329 0.050-0.646 0.185-0.906 0.409-0.259 0.226-0.422 0.505-0.49 0.801l-1.568 6.887 2.958 1.026c0.982 1.021 3.731 1.772 7.028 1.843h1.025c3.297-0.071 6.045-0.822 7.028-1.843l2.958-1.026-1.568-6.888z"></path>
<path class="path2" fill="#424242" d="M16 16.568l-1.219 0.436 1.219 1.758 1.219-1.758z"></path>
<path class="path3" fill="#424242" d="M20.526 9.786c0-3.126-1.286-5.576-4.526-5.576s-4.526 2.45-4.526 5.576c-0.339 0.177-0.561 0.592-0.229 1.481 0.168 0.446 0.464 0.82 0.715 1.016 0.923 2.299 2.739 4.074 4.040 4.074s3.117-1.775 4.040-4.074c0.251-0.196 0.547-0.57 0.715-1.016 0.333-0.889 0.11-1.304-0.228-1.481z"></path>
<path class="path4" fill="#424242" d="M5.113 23.35c-1.51-0.178-2.7-0.586-3.195-1.101l-1.918-0.666 1.017-4.465c0.044-0.192 0.15-0.373 0.318-0.519 0.169-0.145 0.374-0.233 0.588-0.265l3.714-0.851c-0.559-0.478-1.101-1.227-1.448-2.093-0.163-0.127-0.355-0.369-0.464-0.659-0.216-0.576-0.072-0.845 0.148-0.96 0-2.027 0.833-3.615 2.934-3.615h0c2.1 0 2.934 1.588 2.934 3.615 0.22 0.115 0.364 0.384 0.148 0.96-0.109 0.29-0.301 0.532-0.464 0.659-0.347 0.865-0.89 1.615-1.448 2.093l1.642 0.376-1.279 0.247c-0.472 0.074-0.907 0.273-1.26 0.578-0.367 0.321-0.617 0.731-0.721 1.188l-1.247 5.478zM30.983 17.117c-0.044-0.192-0.15-0.373-0.318-0.519s-0.374-0.233-0.588-0.265l-3.714-0.851c0.559-0.478 1.101-1.227 1.449-2.093 0.163-0.127 0.354-0.369 0.463-0.659 0.216-0.576 0.072-0.845-0.148-0.96 0-2.027-0.834-3.615-2.935-3.615v0c-2.101 0-2.935 1.588-2.935 3.615-0.22 0.115-0.364 0.384-0.148 0.96 0.109 0.29 0.3 0.532 0.463 0.659 0.347 0.865 0.89 1.615 1.449 2.093l-1.643 0.376 1.279 0.247c0.472 0.074 0.907 0.273 1.257 0.575 0.37 0.324 0.619 0.734 0.724 1.19l1.247 5.479c1.51-0.178 2.7-0.586 3.195-1.101l1.918-0.666-1.016-4.466z"></path>
</symbol>
<symbol id="lbsvgi-flag-de" viewBox="0 0 53 32">
<title>flag-de</title>
<path class="path1" fill="#424242" d="M0 0h53.333v32h-53.333v-32z"></path>
<path class="path2" fill="#d00" d="M0 10.667h53.333v21.333h-53.333v-21.333z"></path>
<path class="path3" fill="#ffce00" d="M0 21.333h53.333v10.667h-53.333v-10.667z"></path>
</symbol>
<symbol id="lbsvgi-find_in_page" viewBox="0 0 32 32">
<title>find_in_page</title>
<path class="path1" fill="#424242" d="M12 17.312q0-1.625 1.188-2.812t2.812-1.188 2.812 1.188 1.188 2.812-1.188 2.812-2.812 1.188-2.812-1.188-1.188-2.812zM26.688 26.125l-5.125-5.125q1.125-1.751 1.125-3.688 0-2.751-1.969-4.688t-4.719-1.937-4.719 1.937-1.969 4.688 1.969 4.719 4.719 1.969q1.937 0 3.688-1.125l5.875 5.937q-0.688 0.5-1.563 0.5h-16q-1.063 0-1.875-0.781t-0.812-1.844l0.063-21.375q0-1.063 0.781-1.844t1.844-0.781h10.688l8 8v15.437z"></path>
</symbol>
<symbol id="lbsvgi-target" viewBox="0 0 32 32">
<title>target</title>
<path class="path1" fill="#424242" d="M16 8c-4.418 0-8 3.582-8 8s3.582 8 8 8 8-3.582 8-8-3.582-8-8-8zM16 22c-3.313 0-6-2.687-6-6s2.687-6 6-6 6 2.687 6 6-2.687 6-6 6zM16 0c-8.837 0-16 7.163-16 16s7.163 16 16 16 16-7.163 16-16-7.163-16-16-16zM16 28c-6.627 0-12-5.373-12-12s5.373-12 12-12 12 5.373 12 12-5.373 12-12 12zM16 13c-1.657 0-3 1.343-3 3s1.343 3 3 3 3-1.343 3-3-1.343-3-3-3z"></path>
</symbol>
<symbol id="lbsvgi-info" viewBox="0 0 28 32">
<title>info</title>
<path class="path1" fill="#424242" d="M14 12c1.094 0 2-0.906 2-2s-0.906-2-2-2-2 0.906-2 2 0.906 2 2 2zM14 2c-7.719 0-14 6.281-14 14s6.281 14 14 14 14-6.281 14-14-6.281-14-14-14zM14 26c-5.531 0-10-4.469-10-10s4.469-10 10-10 10 4.469 10 10-4.469 10-10 10zM16 16c0-1-1-2-2-2s-1 0-2 0-2 1-2 2h2s0 5 0 6 1 2 2 2 1 0 2 0 2-1 2-2h-2s0-5 0-6z"></path>
</symbol>
<symbol id="lbsvgi-bug" viewBox="0 0 23 32">
<title>bug</title>
<path class="path1" fill="#424242" d="M7.613 4.892c-1.652 1.774-1.196 4.608-1.196 4.608s1.686 2 5 2c3.313 0 5.001-2 5.001-2s0.449-2.796-1.168-4.572c1.012-0.563 1.607-1.378 1.361-1.932-0.279-0.624-1.512-0.68-2.758-0.124-0.463 0.206-0.857 0.468-1.164 0.746-0.389-0.070-0.801-0.118-1.273-0.118-0.439 0-0.83 0.042-1.198 0.102-0.302-0.273-0.689-0.527-1.142-0.73-1.246-0.554-2.48-0.498-2.758 0.124-0.242 0.542 0.321 1.334 1.294 1.895zM20.148 17.805c-0.258-0.055-0.504-0.086-0.742-0.109 0-0.066 0.012-0.129 0.012-0.197 0-1.050-0.148-2.052-0.389-3.004 0.514 0.044 1.168-0.074 1.83-0.368 1.246-0.556 2.031-1.512 1.754-2.132-0.277-0.624-1.512-0.68-2.758-0.124-0.582 0.26-1.057 0.608-1.375 0.966-0.242-0.57-0.516-1.118-0.838-1.616-0.943 0.786-2.729 1.96-5.221 2.221v10.056c0 0-0.008 1-1.001 1s-1-1-1-1v-10.052c-2.494-0.261-4.28-1.437-5.222-2.221-0.309 0.479-0.574 1-0.811 1.542-0.321-0.332-0.77-0.651-1.312-0.894-1.246-0.554-2.48-0.498-2.758 0.124s0.508 1.576 1.754 2.132c0.62 0.276 1.235 0.4 1.733 0.378-0.239 0.95-0.39 1.948-0.39 2.994 0 0.068 0.012 0.133 0.014 0.203-0.21 0.023-0.428 0.055-0.649 0.102-1.624 0.336-2.868 1.176-2.776 1.869 0.092 0.697 1.484 0.984 3.112 0.646 0.212-0.043 0.42-0.098 0.618-0.158 0.286 1.275 0.744 2.459 1.378 3.478-0.376 0.189-0.767 0.469-1.126 0.832-0.996 0.996-1.4 2.207-0.902 2.705s1.708 0.094 2.704-0.9c0.292-0.293 0.526-0.602 0.708-0.906 1.36 1.332 3.064 2.129 4.924 2.129 1.886 0 3.618-0.82 4.985-2.186 0.184 0.322 0.43 0.65 0.738 0.959 0.994 0.996 2.207 1.4 2.705 0.902s0.094-1.707-0.902-2.703c-0.385-0.387-0.803-0.68-1.201-0.873 0.629-1.016 1.082-2.199 1.365-3.471 0.225 0.070 0.459 0.137 0.705 0.189 1.627 0.338 3.020 0.049 3.113-0.646 0.088-0.691-1.156-1.531-2.781-1.867z"></path>
</symbol>
<symbol id="lbsvgi-target2" viewBox="0 0 32 32">
<title>target2</title>
<path class="path1" fill="#424242" d="M18.023 13.975h5.789c-0.734-2.836-2.953-5.057-5.789-5.789v5.789zM18.023 18.025v5.787c2.836-0.73 5.055-2.953 5.789-5.787h-5.789zM13.973 13.975v-5.789c-2.836 0.732-5.059 2.953-5.789 5.789h5.789zM13.973 18.025h-5.789c0.73 2.834 2.953 5.057 5.789 5.787v-5.787zM18.023 4.053c5.074 0.859 9.062 4.848 9.922 9.922h4.055c-0.926-7.311-6.664-13.051-13.977-13.975v4.053zM4.051 13.975c0.859-5.075 4.847-9.063 9.922-9.922v-4.053c-7.309 0.924-13.051 6.664-13.973 13.975h4.051zM13.973 27.945c-5.074-0.859-9.062-4.844-9.922-9.92h-4.051c0.922 7.311 6.664 13.053 13.973 13.975v-4.055zM27.945 18.025c-0.859 5.076-4.848 9.061-9.922 9.92v4.055c7.313-0.922 13.051-6.664 13.977-13.975h-4.055z"></path>
</symbol>
<symbol id="lbsvgi-office" viewBox="0 0 32 32">
<title>office</title>
<path class="path1" d="M0 32h16v-32h-16v32zM10 4h4v4h-4v-4zM10 12h4v4h-4v-4zM10 20h4v4h-4v-4zM2 4h4v4h-4v-4zM2 12h4v4h-4v-4zM2 20h4v4h-4v-4zM18 10h14v2h-14zM18 32h4v-8h6v8h4v-18h-14z"></path>
</symbol>
<symbol id="lbsvgi-file-text2" viewBox="0 0 32 32">
<title>file-text2</title>
<path class="path1" d="M28.681 7.159c-0.694-0.947-1.662-2.053-2.724-3.116s-2.169-2.030-3.116-2.724c-1.612-1.182-2.393-1.319-2.841-1.319h-15.5c-1.378 0-2.5 1.121-2.5 2.5v27c0 1.378 1.122 2.5 2.5 2.5h23c1.378 0 2.5-1.122 2.5-2.5v-19.5c0-0.448-0.137-1.23-1.319-2.841zM24.543 5.457c0.959 0.959 1.712 1.825 2.268 2.543h-4.811v-4.811c0.718 0.556 1.584 1.309 2.543 2.268zM28 29.5c0 0.271-0.229 0.5-0.5 0.5h-23c-0.271 0-0.5-0.229-0.5-0.5v-27c0-0.271 0.229-0.5 0.5-0.5 0 0 15.499-0 15.5 0v7c0 0.552 0.448 1 1 1h7v19.5z"></path>
<path class="path2" d="M23 26h-14c-0.552 0-1-0.448-1-1s0.448-1 1-1h14c0.552 0 1 0.448 1 1s-0.448 1-1 1z"></path>
<path class="path3" d="M23 22h-14c-0.552 0-1-0.448-1-1s0.448-1 1-1h14c0.552 0 1 0.448 1 1s-0.448 1-1 1z"></path>
<path class="path4" d="M23 18h-14c-0.552 0-1-0.448-1-1s0.448-1 1-1h14c0.552 0 1 0.448 1 1s-0.448 1-1 1z"></path>
</symbol>
<symbol id="lbsvgi-cart" viewBox="0 0 32 32">
<title>cart</title>
<path class="path1" d="M12 29c0 1.657-1.343 3-3 3s-3-1.343-3-3c0-1.657 1.343-3 3-3s3 1.343 3 3z"></path>
<path class="path2" d="M32 29c0 1.657-1.343 3-3 3s-3-1.343-3-3c0-1.657 1.343-3 3-3s3 1.343 3 3z"></path>
<path class="path3" d="M32 16v-12h-24c0-1.105-0.895-2-2-2h-6v2h4l1.502 12.877c-0.915 0.733-1.502 1.859-1.502 3.123 0 2.209 1.791 4 4 4h24v-2h-24c-1.105 0-2-0.895-2-2 0-0.007 0-0.014 0-0.020l26-3.98z"></path>
</symbol>
<symbol id="lbsvgi-compass2" viewBox="0 0 32 32">
<title>compass2</title>
<path class="path1" d="M16 0c-8.837 0-16 7.163-16 16s7.163 16 16 16 16-7.163 16-16-7.163-16-16-16zM3 16c0-7.18 5.82-13 13-13 3.424 0 6.538 1.325 8.86 3.488l-12.86 5.512-5.512 12.86c-2.164-2.322-3.488-5.436-3.488-8.86zM18.286 18.286l-8.003 3.43 3.43-8.003 4.573 4.573zM16 29c-3.424 0-6.539-1.325-8.86-3.488l12.86-5.512 5.512-12.86c2.164 2.322 3.488 5.436 3.488 8.86 0 7.18-5.82 13-13 13z"></path>
</symbol>
<symbol id="lbsvgi-bell" viewBox="0 0 32 32">
<title>bell</title>
<path class="path1" d="M32.047 25c0-9-8-7-8-14 0-0.58-0.056-1.076-0.158-1.498-0.526-3.532-2.88-6.366-5.93-7.23 0.027-0.123 0.041-0.251 0.041-0.382 0-1.040-0.9-1.891-2-1.891s-2 0.851-2 1.891c0 0.131 0.014 0.258 0.041 0.382-3.421 0.969-5.966 4.416-6.039 8.545-0.001 0.060-0.002 0.121-0.002 0.183 0 7-8 5-8 14 0 2.382 5.331 4.375 12.468 4.878 0.673 1.263 2.002 2.122 3.532 2.122s2.86-0.86 3.532-2.122c7.137-0.503 12.468-2.495 12.468-4.878 0-0.007-0.001-0.014-0.001-0.021l0.048 0.021zM25.82 26.691c-1.695 0.452-3.692 0.777-5.837 0.958-0.178-2.044-1.893-3.648-3.984-3.648s-3.805 1.604-3.984 3.648c-2.144-0.18-4.142-0.506-5.837-0.958-2.332-0.622-3.447-1.318-3.855-1.691 0.408-0.372 1.523-1.068 3.855-1.691 2.712-0.724 6.199-1.122 9.82-1.122s7.109 0.398 9.82 1.122c2.332 0.622 3.447 1.318 3.855 1.691-0.408 0.372-1.523 1.068-3.855 1.691z"></path>
</symbol>
<symbol id="lbsvgi-mobile2" viewBox="0 0 32 32">
<title>mobile2</title>
<path class="path1" d="M24 0h-18c-1.1 0-2 0.9-2 2v28c0 1.1 0.9 2 2 2h18c1.1 0 2-0.9 2-2v-28c0-1.1-0.9-2-2-2zM15 30.556c-0.859 0-1.556-0.697-1.556-1.556s0.697-1.556 1.556-1.556 1.556 0.697 1.556 1.556-0.697 1.556-1.556 1.556zM24 26h-18v-22h18v22z"></path>
</symbol>
<symbol id="lbsvgi-bubbles3" viewBox="0 0 36 32">
<title>bubbles3</title>
<path class="path1" d="M34 28.161c0 1.422 0.813 2.653 2 3.256v0.498c-0.332 0.045-0.671 0.070-1.016 0.070-2.125 0-4.042-0.892-5.398-2.321-0.819 0.218-1.688 0.336-2.587 0.336-4.971 0-9-3.582-9-8s4.029-8 9-8c4.971 0 9 3.582 9 8 0 1.73-0.618 3.331-1.667 4.64-0.213 0.463-0.333 0.979-0.333 1.522zM7.209 6.912c-2.069 1.681-3.209 3.843-3.209 6.088 0 1.259 0.35 2.481 1.039 3.63 0.711 1.185 1.781 2.268 3.093 3.133 0.949 0.625 1.587 1.623 1.755 2.747 0.056 0.375 0.091 0.753 0.105 1.129 0.233-0.194 0.461-0.401 0.684-0.624 0.755-0.755 1.774-1.172 2.828-1.172 0.168 0 0.336 0.011 0.505 0.032 0.655 0.083 1.323 0.125 1.987 0.126v4c-0.848-0-1.68-0.054-2.492-0.158-3.437 3.437-7.539 4.053-11.505 4.144v-0.841c2.142-1.049 4-2.961 4-5.145 0-0.305-0.024-0.604-0.068-0.897-3.619-2.383-5.932-6.024-5.932-10.103 0-7.18 7.163-13 16-13 8.702 0 15.781 5.644 15.995 12.672-1.284-0.572-2.683-0.919-4.133-1.018-0.36-1.752-1.419-3.401-3.070-4.742-1.104-0.897-2.404-1.606-3.863-2.108-1.553-0.534-3.211-0.804-4.928-0.804s-3.375 0.271-4.928 0.804c-1.46 0.502-2.76 1.211-3.863 2.108z"></path>
</symbol>
<symbol id="lbsvgi-user-check" viewBox="0 0 32 32">
<title>user-check</title>
<path class="path1" d="M30 19l-9 9-3-3-2 2 5 5 11-11z"></path>
<path class="path2" d="M14 24h10v-3.598c-2.101-1.225-4.885-2.066-8-2.321v-1.649c2.203-1.242 4-4.337 4-7.432 0-4.971 0-9-6-9s-6 4.029-6 9c0 3.096 1.797 6.191 4 7.432v1.649c-6.784 0.555-12 3.888-12 7.918h14v-2z"></path>
</symbol>
<symbol id="lbsvgi-user-tie" viewBox="0 0 32 32">
<title>user-tie</title>
<path class="path1" d="M10 6c0-3.314 2.686-6 6-6s6 2.686 6 6c0 3.314-2.686 6-6 6s-6-2.686-6-6zM24.002 14h-1.107l-6.222 12.633 2.327-11.633-3-3-3 3 2.327 11.633-6.222-12.633h-1.107c-3.998 0-3.998 2.687-3.998 6v10h24v-10c0-3.313 0-6-3.998-6z"></path>
</symbol>
<symbol id="lbsvgi-spinner2" viewBox="0 0 32 32">
<title>spinner2</title>
<path class="path1" d="M32 16c-0.040-2.089-0.493-4.172-1.331-6.077-0.834-1.906-2.046-3.633-3.533-5.060-1.486-1.428-3.248-2.557-5.156-3.302-1.906-0.748-3.956-1.105-5.981-1.061-2.025 0.040-4.042 0.48-5.885 1.292-1.845 0.809-3.517 1.983-4.898 3.424s-2.474 3.147-3.193 4.994c-0.722 1.846-1.067 3.829-1.023 5.79 0.040 1.961 0.468 3.911 1.254 5.694 0.784 1.784 1.921 3.401 3.316 4.736 1.394 1.336 3.046 2.391 4.832 3.085 1.785 0.697 3.701 1.028 5.598 0.985 1.897-0.040 3.78-0.455 5.502-1.216 1.723-0.759 3.285-1.859 4.574-3.208 1.29-1.348 2.308-2.945 2.977-4.67 0.407-1.046 0.684-2.137 0.829-3.244 0.039 0.002 0.078 0.004 0.118 0.004 1.105 0 2-0.895 2-2 0-0.056-0.003-0.112-0.007-0.167h0.007zM28.822 21.311c-0.733 1.663-1.796 3.169-3.099 4.412s-2.844 2.225-4.508 2.868c-1.663 0.646-3.447 0.952-5.215 0.909-1.769-0.041-3.519-0.429-5.119-1.14-1.602-0.708-3.053-1.734-4.25-2.991s-2.141-2.743-2.76-4.346c-0.621-1.603-0.913-3.319-0.871-5.024 0.041-1.705 0.417-3.388 1.102-4.928 0.683-1.541 1.672-2.937 2.883-4.088s2.642-2.058 4.184-2.652c1.542-0.596 3.192-0.875 4.832-0.833 1.641 0.041 3.257 0.404 4.736 1.064 1.48 0.658 2.82 1.609 3.926 2.774s1.975 2.54 2.543 4.021c0.57 1.481 0.837 3.064 0.794 4.641h0.007c-0.005 0.055-0.007 0.11-0.007 0.167 0 1.032 0.781 1.88 1.784 1.988-0.195 1.088-0.517 2.151-0.962 3.156z"></path>
</symbol>
<symbol id="lbsvgi-search" viewBox="0 0 32 32">
<title>search</title>
<path class="path1" d="M31.008 27.231l-7.58-6.447c-0.784-0.705-1.622-1.029-2.299-0.998 1.789-2.096 2.87-4.815 2.87-7.787 0-6.627-5.373-12-12-12s-12 5.373-12 12 5.373 12 12 12c2.972 0 5.691-1.081 7.787-2.87-0.031 0.677 0.293 1.515 0.998 2.299l6.447 7.58c1.104 1.226 2.907 1.33 4.007 0.23s0.997-2.903-0.23-4.007zM12 20c-4.418 0-8-3.582-8-8s3.582-8 8-8 8 3.582 8 8-3.582 8-8 8z"></path>
</symbol>
<symbol id="lbsvgi-magic-wand" viewBox="0 0 32 32">
<title>magic-wand</title>
<path class="path1" d="M8 6l-4-4h-2v2l4 4zM10 0h2v4h-2zM18 10h4v2h-4zM20 4v-2h-2l-4 4 2 2zM0 10h4v2h-4zM10 18h2v4h-2zM2 18v2h2l4-4-2-2zM31.563 27.563l-19.879-19.879c-0.583-0.583-1.538-0.583-2.121 0l-1.879 1.879c-0.583 0.583-0.583 1.538 0 2.121l19.879 19.879c0.583 0.583 1.538 0.583 2.121 0l1.879-1.879c0.583-0.583 0.583-1.538 0-2.121zM15 17l-6-6 2-2 6 6-2 2z"></path>
</symbol>
<symbol id="lbsvgi-bug2" viewBox="0 0 32 32">
<title>bug2</title>
<path class="path1" d="M32 18v-2h-6.040c-0.183-2.271-0.993-4.345-2.24-6.008h5.061l2.189-8.758-1.94-0.485-1.811 7.242h-5.459c-0.028-0.022-0.056-0.043-0.084-0.064 0.21-0.609 0.324-1.263 0.324-1.944 0-3.305-2.686-5.984-6-5.984s-6 2.679-6 5.984c0 0.68 0.114 1.334 0.324 1.944-0.028 0.021-0.056 0.043-0.084 0.064h-5.459l-1.811-7.242-1.94 0.485 2.189 8.758h5.061c-1.246 1.663-2.056 3.736-2.24 6.008h-6.040v2h6.043c0.119 1.427 0.485 2.775 1.051 3.992h-3.875l-2.189 8.757 1.94 0.485 1.811-7.243h3.511c1.834 2.439 4.606 3.992 7.708 3.992s5.874-1.554 7.708-3.992h3.511l1.811 7.243 1.94-0.485-2.189-8.757h-3.875c0.567-1.217 0.932-2.565 1.051-3.992h6.043z"></path>
</symbol>
<symbol id="lbsvgi-stats-dots" viewBox="0 0 32 32">
<title>stats-dots</title>
<path class="path1" d="M4 28h28v4h-32v-32h4zM9 26c-1.657 0-3-1.343-3-3s1.343-3 3-3c0.088 0 0.176 0.005 0.262 0.012l3.225-5.375c-0.307-0.471-0.487-1.033-0.487-1.638 0-1.657 1.343-3 3-3s3 1.343 3 3c0 0.604-0.179 1.167-0.487 1.638l3.225 5.375c0.086-0.007 0.174-0.012 0.262-0.012 0.067 0 0.133 0.003 0.198 0.007l5.324-9.316c-0.329-0.482-0.522-1.064-0.522-1.691 0-1.657 1.343-3 3-3s3 1.343 3 3c0 1.657-1.343 3-3 3-0.067 0-0.133-0.003-0.198-0.007l-5.324 9.316c0.329 0.481 0.522 1.064 0.522 1.691 0 1.657-1.343 3-3 3s-3-1.343-3-3c0-0.604 0.179-1.167 0.487-1.638l-3.225-5.375c-0.086 0.007-0.174 0.012-0.262 0.012s-0.176-0.005-0.262-0.012l-3.225 5.375c0.307 0.471 0.487 1.033 0.487 1.637 0 1.657-1.343 3-3 3z"></path>
</symbol>
<symbol id="lbsvgi-fire" viewBox="0 0 32 32">
<title>fire</title>
<path class="path1" d="M10.031 32c-2.133-4.438-0.997-6.981 0.642-9.376 1.795-2.624 2.258-5.221 2.258-5.221s1.411 1.834 0.847 4.703c2.493-2.775 2.963-7.196 2.587-8.889 5.635 3.938 8.043 12.464 4.798 18.783 17.262-9.767 4.294-24.38 2.036-26.027 0.753 1.646 0.895 4.433-0.625 5.785-2.573-9.759-8.937-11.759-8.937-11.759 0.753 5.033-2.728 10.536-6.084 14.648-0.118-2.007-0.243-3.392-1.298-5.312-0.237 3.646-3.023 6.617-3.777 10.27-1.022 4.946 0.765 8.568 7.555 12.394z"></path>
</symbol>
<symbol id="lbsvgi-lab" viewBox="0 0 32 32">
<title>lab</title>
<path class="path1" d="M29.884 25.14l-9.884-16.47v-6.671h1c0.55 0 1-0.45 1-1s-0.45-1-1-1h-10c-0.55 0-1 0.45-1 1s0.45 1 1 1h1v6.671l-9.884 16.47c-2.264 3.773-0.516 6.86 3.884 6.86h20c4.4 0 6.148-3.087 3.884-6.86zM7.532 20l6.468-10.779v-7.221h4v7.221l6.468 10.779h-16.935z"></path>
</symbol>
<symbol id="lbsvgi-shield" viewBox="0 0 32 32">
<title>shield</title>
<path class="path1" d="M30 0l-14 4-14-4c0 0-0.141 1.616 0 4l14 4.378 14-4.378c0.141-2.384 0-4 0-4zM2.256 6.097c0.75 7.834 3.547 21.007 13.744 25.903 10.197-4.896 12.995-18.069 13.744-25.903l-13.744 5.167-13.744-5.167z"></path>
</symbol>
<symbol id="lbsvgi-list-numbered" viewBox="0 0 32 32">
<title>list-numbered</title>
<path class="path1" d="M12 26h20v4h-20zM12 14h20v4h-20zM12 2h20v4h-20zM6 0v8h-2v-6h-2v-2zM4 16.438v1.563h4v2h-6v-4.563l4-1.875v-1.563h-4v-2h6v4.563zM8 22v10h-6v-2h4v-2h-4v-2h4v-2h-4v-2z"></path>
</symbol>
<symbol id="lbsvgi-tree" viewBox="0 0 32 32">
<title>tree</title>
<path class="path1" d="M30.5 24h-0.5v-6.5c0-1.93-1.57-3.5-3.5-3.5h-8.5v-4h0.5c0.825 0 1.5-0.675 1.5-1.5v-5c0-0.825-0.675-1.5-1.5-1.5h-5c-0.825 0-1.5 0.675-1.5 1.5v5c0 0.825 0.675 1.5 1.5 1.5h0.5v4h-8.5c-1.93 0-3.5 1.57-3.5 3.5v6.5h-0.5c-0.825 0-1.5 0.675-1.5 1.5v5c0 0.825 0.675 1.5 1.5 1.5h5c0.825 0 1.5-0.675 1.5-1.5v-5c0-0.825-0.675-1.5-1.5-1.5h-0.5v-6h8v6h-0.5c-0.825 0-1.5 0.675-1.5 1.5v5c0 0.825 0.675 1.5 1.5 1.5h5c0.825 0 1.5-0.675 1.5-1.5v-5c0-0.825-0.675-1.5-1.5-1.5h-0.5v-6h8v6h-0.5c-0.825 0-1.5 0.675-1.5 1.5v5c0 0.825 0.675 1.5 1.5 1.5h5c0.825 0 1.5-0.675 1.5-1.5v-5c0-0.825-0.675-1.5-1.5-1.5zM6 30h-4v-4h4v4zM18 30h-4v-4h4v4zM14 8v-4h4v4h-4zM30 30h-4v-4h4v4z"></path>
</symbol>
<symbol id="lbsvgi-cloud-check" viewBox="0 0 32 32">
<title>cloud-check</title>
<path class="path1" d="M27.883 16.078c0.076-0.347 0.117-0.708 0.117-1.078 0-2.761-2.239-5-5-5-0.445 0-0.875 0.058-1.285 0.167-0.775-2.417-3.040-4.167-5.715-4.167-2.73 0-5.033 1.823-5.76 4.318-0.711-0.207-1.462-0.318-2.24-0.318-4.418 0-8 3.582-8 8s3.582 8 8 8h19c2.761 0 5-2.239 5-5 0-2.46-1.777-4.505-4.117-4.922zM13 24l-5-5 2-2 3 3 7-7 2 2-9 9z"></path>
</symbol>
<symbol id="lbsvgi-earth" viewBox="0 0 32 32">
<title>earth</title>
<path class="path1" d="M16 0c-8.837 0-16 7.163-16 16s7.163 16 16 16 16-7.163 16-16-7.163-16-16-16zM16 30c-1.967 0-3.84-0.407-5.538-1.139l7.286-8.197c0.163-0.183 0.253-0.419 0.253-0.664v-3c0-0.552-0.448-1-1-1-3.531 0-7.256-3.671-7.293-3.707-0.188-0.188-0.442-0.293-0.707-0.293h-4c-0.552 0-1 0.448-1 1v6c0 0.379 0.214 0.725 0.553 0.894l3.447 1.724v5.871c-3.627-2.53-6-6.732-6-11.489 0-2.147 0.484-4.181 1.348-6h3.652c0.265 0 0.52-0.105 0.707-0.293l4-4c0.188-0.188 0.293-0.442 0.293-0.707v-2.419c1.268-0.377 2.61-0.581 4-0.581 2.2 0 4.281 0.508 6.134 1.412-0.13 0.109-0.256 0.224-0.376 0.345-1.133 1.133-1.757 2.64-1.757 4.243s0.624 3.109 1.757 4.243c1.139 1.139 2.663 1.758 4.239 1.758 0.099 0 0.198-0.002 0.297-0.007 0.432 1.619 1.211 5.833-0.263 11.635-0.014 0.055-0.022 0.109-0.026 0.163-2.541 2.596-6.084 4.208-10.004 4.208z"></path>
</symbol>
<symbol id="lbsvgi-flag" viewBox="0 0 32 32">
<title>flag</title>
<path class="path1" d="M0 0h4v32h-4v-32z"></path>
<path class="path2" d="M26 20.094c2.582 0 4.83-0.625 6-1.547v-16c-1.17 0.922-3.418 1.547-6 1.547s-4.83-0.625-6-1.547v16c1.17 0.922 3.418 1.547 6 1.547z"></path>
<path class="path3" d="M19 1.016c-1.466-0.623-3.61-1.016-6-1.016-3.012 0-5.635 0.625-7 1.547v16c1.365-0.922 3.988-1.547 7-1.547 2.39 0 4.534 0.393 6 1.016v-16z"></path>
</symbol>
<symbol id="lbsvgi-eye" viewBox="0 0 32 32">
<title>eye</title>
<path class="path1" d="M16 6c-6.979 0-13.028 4.064-16 10 2.972 5.936 9.021 10 16 10s13.027-4.064 16-10c-2.972-5.936-9.021-10-16-10zM23.889 11.303c1.88 1.199 3.473 2.805 4.67 4.697-1.197 1.891-2.79 3.498-4.67 4.697-2.362 1.507-5.090 2.303-7.889 2.303s-5.527-0.796-7.889-2.303c-1.88-1.199-3.473-2.805-4.67-4.697 1.197-1.891 2.79-3.498 4.67-4.697 0.122-0.078 0.246-0.154 0.371-0.228-0.311 0.854-0.482 1.776-0.482 2.737 0 4.418 3.582 8 8 8s8-3.582 8-8c0-0.962-0.17-1.883-0.482-2.737 0.124 0.074 0.248 0.15 0.371 0.228v0zM16 13c0 1.657-1.343 3-3 3s-3-1.343-3-3 1.343-3 3-3 3 1.343 3 3z"></path>
</symbol>
<symbol id="lbsvgi-heart" viewBox="0 0 32 32">
<title>heart</title>
<path class="path1" d="M23.6 2c-3.363 0-6.258 2.736-7.599 5.594-1.342-2.858-4.237-5.594-7.601-5.594-4.637 0-8.4 3.764-8.4 8.401 0 9.433 9.516 11.906 16.001 21.232 6.13-9.268 15.999-12.1 15.999-21.232 0-4.637-3.763-8.401-8.4-8.401z"></path>
</symbol>
<symbol id="lbsvgi-man-woman" viewBox="0 0 32 32">
<title>man-woman</title>
<path class="path1" d="M8 3c0 1.657-1.343 3-3 3s-3-1.343-3-3c0-1.657 1.343-3 3-3s3 1.343 3 3z"></path>
<path class="path2" d="M26 3c0 1.657-1.343 3-3 3s-3-1.343-3-3c0-1.657 1.343-3 3-3s3 1.343 3 3z"></path>
<path class="path3" d="M8 8h-6c-1.105 0-2 0.895-2 2v10h2v12h2.5v-12h1v12h2.5v-12h2v-10c0-1.105-0.895-2-2-2z"></path>
<path class="path4" d="M30.469 16l1.531-1.109-4.165-6.441c-0.185-0.281-0.499-0.45-0.835-0.45h-8c-0.336 0-0.65 0.169-0.835 0.45l-4.165 6.441 1.531 1.109 3.458-4.487 1.202 2.804-4.191 7.683h3.833l0.667 10h2v-10h1v10h2l0.667-10h3.833l-4.191-7.683 1.202-2.804 3.458 4.487z"></path>
</symbol>
<symbol id="lbsvgi-hipster" viewBox="0 0 32 32">
<title>hipster</title>
<path class="path1" d="M16 32c8.837 0 16-7.163 16-16s-7.163-16-16-16-16 7.163-16 16 7.163 16 16 16zM16 3c7.18 0 13 5.82 13 13s-5.82 13-13 13-13-5.82-13-13 5.82-13 13-13zM8 10c0-1.105 0.895-2 2-2s2 0.895 2 2-0.895 2-2 2-2-0.895-2-2zM20 10c0-1.105 0.895-2 2-2s2 0.895 2 2-0.895 2-2 2-2-0.895-2-2z"></path>
<path class="path2" d="M21.121 16.879c-1.172-1.172-3.071-1.172-4.243 0s-1.172 3.071 0 4.243c0.038 0.038 0.076 0.074 0.115 0.109 2.704 2.453 9.006-0.058 9.006-3.23-1.938 1.25-3.452 0.306-4.879-1.121z"></path>
<path class="path3" d="M10.879 16.879c1.172-1.172 3.071-1.172 4.243 0s1.172 3.071 0 4.243c-0.038 0.038-0.076 0.074-0.115 0.109-2.704 2.453-9.006-0.058-9.006-3.23 1.938 1.25 3.452 0.306 4.879-1.121z"></path>
</symbol>
<symbol id="lbsvgi-warning" viewBox="0 0 32 32">
<title>warning</title>
<path class="path1" d="M16 2.899l13.409 26.726h-26.819l13.409-26.726zM16 0c-0.69 0-1.379 0.465-1.903 1.395l-13.659 27.222c-1.046 1.86-0.156 3.383 1.978 3.383h27.166c2.134 0 3.025-1.522 1.978-3.383h0l-13.659-27.222c-0.523-0.93-1.213-1.395-1.903-1.395v0z"></path>
<path class="path2" d="M18 26c0 1.105-0.895 2-2 2s-2-0.895-2-2c0-1.105 0.895-2 2-2s2 0.895 2 2z"></path>
<path class="path3" d="M16 22c-1.105 0-2-0.895-2-2v-6c0-1.105 0.895-2 2-2s2 0.895 2 2v6c0 1.105-0.895 2-2 2z"></path>
</symbol>
<symbol id="lbsvgi-notification" viewBox="0 0 32 32">
<title>notification</title>
<path class="path1" d="M16 3c-3.472 0-6.737 1.352-9.192 3.808s-3.808 5.72-3.808 9.192c0 3.472 1.352 6.737 3.808 9.192s5.72 3.808 9.192 3.808c3.472 0 6.737-1.352 9.192-3.808s3.808-5.72 3.808-9.192c0-3.472-1.352-6.737-3.808-9.192s-5.72-3.808-9.192-3.808zM16 0v0c8.837 0 16 7.163 16 16s-7.163 16-16 16c-8.837 0-16-7.163-16-16s7.163-16 16-16zM14 22h4v4h-4zM14 6h4v12h-4z"></path>
</symbol>
<symbol id="lbsvgi-embed2" viewBox="0 0 40 32">
<title>embed2</title>
<path class="path1" d="M26 23l3 3 10-10-10-10-3 3 7 7z"></path>
<path class="path2" d="M14 9l-3-3-10 10 10 10 3-3-7-7z"></path>
<path class="path3" d="M21.916 4.704l2.171 0.592-6 22.001-2.171-0.592 6-22.001z"></path>
</symbol>
<symbol id="lbsvgi-googleplus" viewBox="0 0 32 32">
<title>google-plus</title>
<path class="path1" d="M10.181 14.294v3.494h5.775c-0.231 1.5-1.744 4.394-5.775 4.394-3.475 0-6.313-2.881-6.313-6.431s2.838-6.431 6.313-6.431c1.981 0 3.3 0.844 4.056 1.569l2.762-2.662c-1.775-1.656-4.075-2.662-6.819-2.662-5.631 0.006-10.181 4.556-10.181 10.188s4.55 10.181 10.181 10.181c5.875 0 9.775-4.131 9.775-9.95 0-0.669-0.075-1.181-0.163-1.688h-9.613z"></path>
<path class="path2" d="M32 14h-3v-3h-3v3h-3v3h3v3h3v-3h3z"></path>
</symbol>
<symbol id="lbsvgi-facebook" viewBox="0 0 32 32">
<title>facebook</title>
<path class="path1" d="M19 6h5v-6h-5c-3.86 0-7 3.14-7 7v3h-4v6h4v16h6v-16h5l1-6h-6v-3c0-0.542 0.458-1 1-1z"></path>
</symbol>
<symbol id="lbsvgi-twitter" viewBox="0 0 32 32">
<title>twitter</title>
<path class="path1" d="M32 7.075c-1.175 0.525-2.444 0.875-3.769 1.031 1.356-0.813 2.394-2.1 2.887-3.631-1.269 0.75-2.675 1.3-4.169 1.594-1.2-1.275-2.906-2.069-4.794-2.069-3.625 0-6.563 2.938-6.563 6.563 0 0.512 0.056 1.012 0.169 1.494-5.456-0.275-10.294-2.888-13.531-6.862-0.563 0.969-0.887 2.1-0.887 3.3 0 2.275 1.156 4.287 2.919 5.463-1.075-0.031-2.087-0.331-2.975-0.819 0 0.025 0 0.056 0 0.081 0 3.181 2.263 5.838 5.269 6.437-0.55 0.15-1.131 0.231-1.731 0.231-0.425 0-0.831-0.044-1.237-0.119 0.838 2.606 3.263 4.506 6.131 4.563-2.25 1.762-5.075 2.813-8.156 2.813-0.531 0-1.050-0.031-1.569-0.094 2.913 1.869 6.362 2.95 10.069 2.95 12.075 0 18.681-10.006 18.681-18.681 0-0.287-0.006-0.569-0.019-0.85 1.281-0.919 2.394-2.075 3.275-3.394z"></path>
</symbol>
<symbol id="lbsvgi-rss" viewBox="0 0 32 32">
<title>rss</title>
<path class="path1" d="M4.259 23.467c-2.35 0-4.259 1.917-4.259 4.252 0 2.349 1.909 4.244 4.259 4.244 2.358 0 4.265-1.895 4.265-4.244-0-2.336-1.907-4.252-4.265-4.252zM0.005 10.873v6.133c3.993 0 7.749 1.562 10.577 4.391 2.825 2.822 4.384 6.595 4.384 10.603h6.16c-0-11.651-9.478-21.127-21.121-21.127zM0.012 0v6.136c14.243 0 25.836 11.604 25.836 25.864h6.152c0-17.64-14.352-32-31.988-32z"></path>
</symbol>
<symbol id="lbsvgi-github" viewBox="0 0 32 32">
<title>github</title>
<path class="path1" d="M16 0.395c-8.836 0-16 7.163-16 16 0 7.069 4.585 13.067 10.942 15.182 0.8 0.148 1.094-0.347 1.094-0.77 0-0.381-0.015-1.642-0.022-2.979-4.452 0.968-5.391-1.888-5.391-1.888-0.728-1.849-1.776-2.341-1.776-2.341-1.452-0.993 0.11-0.973 0.11-0.973 1.606 0.113 2.452 1.649 2.452 1.649 1.427 2.446 3.743 1.739 4.656 1.33 0.143-1.034 0.558-1.74 1.016-2.14-3.554-0.404-7.29-1.777-7.29-7.907 0-1.747 0.625-3.174 1.649-4.295-0.166-0.403-0.714-2.030 0.155-4.234 0 0 1.344-0.43 4.401 1.64 1.276-0.355 2.645-0.532 4.005-0.539 1.359 0.006 2.729 0.184 4.008 0.539 3.054-2.070 4.395-1.64 4.395-1.64 0.871 2.204 0.323 3.831 0.157 4.234 1.026 1.12 1.647 2.548 1.647 4.295 0 6.145-3.743 7.498-7.306 7.895 0.574 0.497 1.085 1.47 1.085 2.963 0 2.141-0.019 3.864-0.019 4.391 0 0.426 0.288 0.925 1.099 0.768 6.354-2.118 10.933-8.113 10.933-15.18 0-8.837-7.164-16-16-16z"></path>
</symbol>
<symbol id="lbsvgi-linkedin" viewBox="0 0 32 32">
<title>linkedin2</title>
<path class="path1" d="M12 12h5.535v2.837h0.079c0.77-1.381 2.655-2.837 5.464-2.837 5.842 0 6.922 3.637 6.922 8.367v9.633h-5.769v-8.54c0-2.037-0.042-4.657-3.001-4.657-3.005 0-3.463 2.218-3.463 4.509v8.688h-5.767v-18z"></path>
<path class="path2" d="M2 12h6v18h-6v-18z"></path>
<path class="path3" d="M8 7c0 1.657-1.343 3-3 3s-3-1.343-3-3c0-1.657 1.343-3 3-3s3 1.343 3 3z"></path>
</symbol>
<symbol id="lbsvgi-xing" viewBox="0 0 32 32">
<title>xing2</title>
<path class="path1" d="M4.862 6.319c-0.275 0-0.513 0.1-0.631 0.287-0.119 0.2-0.1 0.45 0.025 0.706l3.119 5.4c0.006 0.012 0.006 0.019 0 0.025l-4.9 8.662c-0.125 0.256-0.119 0.512 0 0.706 0.119 0.188 0.325 0.313 0.6 0.313h4.613c0.688 0 1.025-0.469 1.256-0.894 0 0 4.794-8.481 4.981-8.813-0.019-0.031-3.175-5.531-3.175-5.531-0.231-0.406-0.575-0.862-1.287-0.862h-4.6z"></path>
<path class="path2" d="M24.25 0c-0.688 0-0.988 0.431-1.238 0.881 0 0-9.944 17.631-10.269 18.212 0.019 0.031 6.556 12.031 6.556 12.031 0.231 0.406 0.581 0.881 1.288 0.881h4.613c0.275 0 0.494-0.106 0.613-0.294 0.125-0.2 0.119-0.456-0.012-0.712l-6.5-11.894c-0.006-0.012-0.006-0.019 0-0.031l10.219-18.069c0.125-0.256 0.131-0.512 0.012-0.713-0.119-0.188-0.337-0.294-0.613-0.294h-4.669z"></path>
</symbol>
<symbol id="lbsvgi-notebook-list" viewBox="0 0 32 32">
<title>notebook-list</title>
<path class="path1" fill="#424242" d="M9 2h1v2h-1v-2z"></path>
<path class="path2" fill="#424242" d="M13 2h1v2h-1v-2z"></path>
<path class="path3" fill="#424242" d="M17 2h1v2h-1v-2z"></path>
<path class="path4" fill="#424242" d="M21 2h1v2h-1v-2z"></path>
<path class="path5" fill="#424242" d="M10 22h1v1h-1v-1z"></path>
<path class="path6" fill="#424242" d="M10 17h1v1h-1v-1z"></path>
<path class="path7" fill="#424242" d="M10 12h1v1h-1v-1z"></path>
<path class="path8" fill="#424242" d="M23.003 4c0 0-0.878 0-1.003 0v2h-1v-2h-3v2h-1v-2h-3v2h-1v-2h-3v2h-1v-2c-0.125 0-1.003 0-1.003 0-1.103 0-1.997 0.891-1.997 2.003v20.994c0 1.106 0.891 2.003 1.997 2.003h15.006c1.103 0 1.997-0.891 1.997-2.003v-20.994c0-1.106-0.891-2.003-1.997-2.003zM12 24h-3v-3h3v3zM12 19h-3v-3h3v3zM12 14h-3v-3h3v3zM22 23h-8v-1h8v1zM22 18h-8v-1h8v1zM22 13h-8v-1h8v1z"></path>
</symbol>
<symbol id="lbsvgi-document-search" viewBox="0 0 32 32">
<title>document-search</title>
<path class="path1" fill="#424242" d="M17.309 22.016c-0.77 0.616-1.746 0.984-2.809 0.984-2.485 0-4.5-2.015-4.5-4.5s2.015-4.5 4.5-4.5c2.485 0 4.5 2.015 4.5 4.5 0 1.063-0.368 2.039-0.984 2.809l5.348 5.348-0.707 0.707-5.348-5.348zM19 3h-9.991c-1.109 0-2.009 0.898-2.009 2.007v22.985c0 1.109 0.891 2.007 1.997 2.007h15.005c1.103 0 1.997-0.891 1.997-1.997v-17.003h-4.994c-1.108 0-2.006-0.887-2.006-1.998v-6.002zM20 3v5.997c0 0.554 0.451 1.003 0.991 1.003h5.009l-6-7zM14.5 22c1.933 0 3.5-1.567 3.5-3.5s-1.567-3.5-3.5-3.5c-1.933 0-3.5 1.567-3.5 3.5s1.567 3.5 3.5 3.5v0z"></path>
</symbol>
<symbol id="lbsvgi-study" viewBox="0 0 32 32">
<title>study</title>
<path class="path1" fill="#424242" d="M32 8c0-1.406-0.957-2.608-2.326-2.924l-13.013-3.003c-0.218-0.049-0.44-0.073-0.661-0.073s-0.443 0.024-0.675 0.076l-12.999 3c-1.37 0.316-2.326 1.518-2.326 2.924s0.957 2.608 2.325 2.924l2.675 0.617v8.459c0 2.654 3.038 5 11 5s11-2.346 11-5v-8.459l2.674-0.617c1.369-0.316 2.326-1.518 2.326-2.924zM25 20c0 1.105-3 3-9 3s-9-1.895-9-3v-7.997l8.338 1.924c0.218 0.049 0.441 0.073 0.662 0.073s0.444-0.024 0.674-0.076l8.326-1.921v7.997zM16.225 11.975c-0.075 0.016-0.15 0.025-0.225 0.025s-0.151-0.009-0.225-0.025l-13-3c-0.454-0.105-0.775-0.509-0.775-0.975s0.321-0.87 0.775-0.975l13-3c0.074-0.016 0.149-0.025 0.225-0.025s0.151 0.009 0.225 0.025l13 3c0.453 0.105 0.775 0.509 0.775 0.975s-0.322 0.87-0.775 0.975l-13 3zM29 13c0-0.553 0.447-1 1-1 0.552 0 1 0.447 1 1v9c0 0.553-0.448 1-1 1-0.553 0-1-0.447-1-1v-9zM30 24c1.104 0 2 2.896 2 4s-0.896 2-2 2c-1.105 0-2-0.896-2-2s0.895-4 2-4z"></path>
</symbol>
<symbol id="lbsvgi-box" viewBox="0 0 32 32">
<title>box</title>
<path class="path1" fill="#424242" d="M2.005 22.825l13.039 6.169v-13.8l-13.039-5.52v13.151zM6.006 14.791l5.026 2.337-0.029 1.842-5.025-2.336 0.028-1.843zM16 15.194v13.8l12.994-6.169v-13.151l-12.994 5.52zM15.453 3.006l-13.363 5.757 13.375 5.712 13.514-5.725-13.526-5.744z"></path>
</symbol>
<symbol id="lbsvgi-usb" viewBox="0 0 32 32">
<title>usb</title>
<path class="path1" fill="#424242" d="M7.929 15.586l6.364-6.364 3.203 3.203c-0.266 0.557-0.174 1.241 0.288 1.702 0.461 0.462 1.146 0.554 1.702 0.289l3.291 3.291-6.363 6.364-8.485-8.485zM19.905 12.006c-0.461-0.461-1.146-0.554-1.702-0.288l-3.203-3.203 4.949-4.949c0.781-0.781 2.048-0.781 2.828 0l5.658 5.656c0.78 0.781 0.78 2.048 0 2.828l-4.95 4.95-3.292-3.291c0.266-0.558 0.174-1.242-0.288-1.703zM8.636 29.021l-5.657-5.656 5.657-5.657 5.657 5.657-5.657 5.656zM7.266 23.319l-1.414-1.414-1.459 1.459 1.415 1.414 1.458-1.459zM10.094 26.148l-1.414-1.414-1.458 1.458 1.414 1.414 1.458-1.458z"></path>
</symbol>
<symbol id="lbsvgi-hand" viewBox="0 0 32 32">
<title>hand</title>
<path class="path1" fill="#424242" d="M20.903 24.014l2.959-3.984 3.475-3.32c0 0-1.158-1.381-2.59-1.381-0.643 0-1.232 0.184-1.77 0.552-0.535 0.367-1.023 0.918-1.463 1.655-0.615 0.215-1.094 0.42-1.438 0.615-0.076-0.766-0.168-1.333-0.275-1.7l1.996-7.748c0.473-1.868 0.586-2.812-0.539-3.312s-2.275 0.879-2.867 2.637l-1.893 5.983 0.057-7.694c0-1.889-0.596-2.833-1.788-2.833-1.204 0-1.805 0.837-1.805 2.51v7.692l-1.936-6.738c-0.48-1.192-1.325-2.366-2.45-1.991s-1.072 2.226-0.76 3.411l1.725 6.569-2.782-4.595c-0.851-1.475-2.319-1.76-2.651-1.416-0.529 0.549-0.883 1.717 0.077 3.394l3.069 5.343 2.74 9.492v1.845h8v-2.379c0.929-0.637 1.732-1.506 2.909-2.607v0z"></path>
</symbol>
<symbol id="lbsvgi-server" viewBox="0 0 32 32">
<title>server</title>
<path class="path1" fill="#424242" d="M23.333 7c0 0.92 0.747 1.667 1.667 1.667s1.667-0.747 1.667-1.667-0.747-1.667-1.667-1.667-1.667 0.747-1.667 1.667zM23.333 17.667c0 0.92 0.747 1.667 1.667 1.667s1.667-0.747 1.667-1.667-0.747-1.667-1.667-1.667-1.667 0.747-1.667 1.667zM0 22c0 1.473 1.193 2.667 2.667 2.667h11.333v1.84c-0.327 0.22-0.607 0.5-0.827 0.827l-8.173-0c-0.92 0-1.667 0.747-1.667 1.667s0.747 1.667 1.667 1.667h8.173c0.54 0.807 1.453 1.333 2.493 1.333s1.953-0.527 2.493-1.333h8.84c0.92 0 1.667-0.747 1.667-1.667s-0.747-1.667-1.667-1.667h-8.84c-0.22-0.327-0.5-0.607-0.827-0.827v-1.84h12c1.473 0 2.667-1.193 2.667-2.667v-19.333c0-1.473-1.193-2.667-2.667-2.667h-26.667c-1.473 0-2.667 1.193-2.667 2.667v19.333zM4.8 3.333h22.4c0.813 0 1.467 0.653 1.467 1.467v4.4c0 0.813-0.653 1.467-1.467 1.467h-22.4c-0.813 0-1.467-0.653-1.467-1.467v-4.4c0-0.813 0.653-1.467 1.467-1.467zM4.8 14h22.4c0.813 0 1.467 0.653 1.467 1.467v4.4c0 0.813-0.653 1.467-1.467 1.467l-22.4-0c-0.813 0-1.467-0.653-1.467-1.467v-4.4c0-0.813 0.653-1.467 1.467-1.467z"></path>
</symbol>
<symbol id="lbsvgi-lock" viewBox="0 0 32 32">
<title>lock</title>
<path class="path1" fill="#424242" d="M20.125 10.688v-2.688c0-2.25-1.875-4.125-4.125-4.125s-4.125 1.875-4.125 4.125v2.688h8.25zM16 22.688c1.438 0 2.688-1.25 2.688-2.688s-1.25-2.688-2.688-2.688-2.688 1.25-2.688 2.688 1.25 2.688 2.688 2.688zM24 10.688c1.438 0 2.688 1.188 2.688 2.625v13.375c0 1.438-1.25 2.625-2.688 2.625h-16c-1.438 0-2.688-1.188-2.688-2.625v-13.375c0-1.438 1.25-2.625 2.688-2.625h1.313v-2.688c0-3.688 3-6.688 6.688-6.688s6.688 3 6.688 6.688v2.688h1.313z"></path>
</symbol>
<symbol id="lbsvgi-group" viewBox="0 0 32 32">
<title>group</title>
<path class="path1" fill="#424242" d="M16 18.667c1.841 0 3.508-0.747 4.715-1.953 1.205-1.205 1.952-2.872 1.952-4.713s-0.747-3.508-1.952-4.713c-1.207-1.207-2.873-1.953-4.715-1.953s-3.508 0.747-4.715 1.953c-1.205 1.205-1.952 2.872-1.952 4.713s0.747 3.508 1.952 4.713c1.207 1.207 2.873 1.953 4.715 1.953z"></path>
<path class="path2" fill="#424242" d="M26.667 20c0.92 0 1.753-0.372 2.357-0.975s0.976-1.436 0.976-2.359c0-0.92-0.372-1.753-0.976-2.357s-1.437-0.976-2.357-0.976c-0.921 0-1.755 0.372-2.359 0.976-0.603 0.604-0.975 1.437-0.975 2.357 0 0.921 0.372 1.755 0.975 2.359s1.437 0.975 2.359 0.975z"></path>
<path class="path3" fill="#424242" d="M26.667 20.787c-1.775 0-3.109 0.541-3.889 1.291-1.487-1.223-3.837-2.077-6.777-2.077-3.021 0-5.327 0.864-6.789 2.085-0.795-0.753-2.144-1.299-3.877-1.299-2.917 0-4.667 1.453-4.667 2.909 0 0.727 1.749 1.456 4.667 1.456 0.805 0 1.528-0.068 2.164-0.177-0.013 0.121-0.053 0.24-0.053 0.36 0 1.333 3.208 2.667 8.556 2.667 5.016 0 8.556-1.333 8.556-2.667 0-0.113-0.015-0.227-0.027-0.34 0.617 0.097 1.327 0.157 2.137 0.157 2.735 0 4.667-0.729 4.667-1.456 0-1.456-1.831-2.909-4.667-2.909z"></path>
<path class="path4" fill="#424242" d="M5.333 20c0.92 0 1.753-0.372 2.357-0.976s0.976-1.437 0.976-2.357c0-0.919-0.372-1.752-0.976-2.357-0.604-0.603-1.437-0.976-2.357-0.976-0.921 0-1.755 0.373-2.359 0.976-0.603 0.605-0.975 1.439-0.975 2.357 0 0.92 0.372 1.753 0.975 2.357 0.604 0.604 1.437 0.976 2.359 0.976z"></path>
</symbol>
<symbol id="lbsvgi-server2" viewBox="0 0 32 32">
<title>server2</title>
<path class="path1" fill="#424242" d="M2.286 25.143h18.286v-2.286h-18.286v2.286zM2.286 16h18.286v-2.286h-18.286v2.286zM30.286 24q0-0.714-0.5-1.214t-1.214-0.5-1.214 0.5-0.5 1.214 0.5 1.214 1.214 0.5 1.214-0.5 0.5-1.214zM2.286 6.857h18.286v-2.286h-18.286v2.286zM30.286 14.857q0-0.714-0.5-1.214t-1.214-0.5-1.214 0.5-0.5 1.214 0.5 1.214 1.214 0.5 1.214-0.5 0.5-1.214zM30.286 5.714q0-0.714-0.5-1.214t-1.214-0.5-1.214 0.5-0.5 1.214 0.5 1.214 1.214 0.5 1.214-0.5 0.5-1.214zM32 20.571v6.857h-32v-6.857h32zM32 11.429v6.857h-32v-6.857h32zM32 2.286v6.857h-32v-6.857h32z"></path>
</symbol>
<symbol id="lbsvgi-flag-o" viewBox="0 0 33 32">
<title>flag-o</title>
<path class="path1" fill="#424242" d="M29.714 18.661v-11q-3.018 1.625-5.464 1.625-1.464 0-2.589-0.571-1.786-0.875-3.286-1.366t-3.179-0.491q-3.089 0-7.196 2.268v10.696q4.375-2.018 7.732-2.018 0.982 0 1.848 0.134t1.75 0.464 1.375 0.554 1.473 0.705l0.5 0.25q0.786 0.393 1.804 0.393 2.143 0 5.232-1.643zM5.714 4.571q0 0.625-0.313 1.143t-0.83 0.821v22.607q0 0.25-0.161 0.411t-0.411 0.161h-1.143q-0.25 0-0.411-0.161t-0.161-0.411v-22.607q-0.518-0.304-0.83-0.821t-0.313-1.143q0-0.946 0.67-1.616t1.616-0.67 1.616 0.67 0.67 1.616zM32 5.714v13.625q0 0.696-0.625 1.018-0.179 0.089-0.304 0.161-3.893 2.071-6.589 2.071-1.571 0-2.821-0.625l-0.5-0.25q-1.143-0.589-1.768-0.857t-1.625-0.518-2.036-0.25q-1.821 0-4.205 0.786t-4.080 1.821q-0.268 0.161-0.589 0.161-0.286 0-0.571-0.143-0.571-0.339-0.571-1v-13.25q0-0.625 0.554-0.982 0.625-0.375 1.402-0.759t2.036-0.929 2.723-0.884 2.768-0.339q2 0 3.732 0.554t3.732 1.536q0.679 0.339 1.589 0.339 2.179 0 5.536-2 0.393-0.214 0.554-0.304 0.554-0.286 1.107 0.036 0.554 0.357 0.554 0.982z"></path>
</symbol>
<symbol id="lbsvgi-flag2" viewBox="0 0 33 32">
<title>flag2</title>
<path class="path1" fill="#424242" d="M5.714 4.571q0 1.286-1.143 1.964v22.607q0 0.232-0.17 0.402t-0.402 0.17h-1.143q-0.232 0-0.402-0.17t-0.17-0.402v-22.607q-1.143-0.679-1.143-1.964 0-0.946 0.67-1.616t1.616-0.67 1.616 0.67 0.67 1.616zM32 5.714v13.625q0 0.446-0.223 0.688t-0.705 0.491q-3.839 2.071-6.589 2.071-1.089 0-2.205-0.393t-1.938-0.857-2.063-0.857-2.545-0.393q-3.429 0-8.286 2.607-0.304 0.161-0.589 0.161-0.464 0-0.804-0.339t-0.339-0.804v-13.25q0-0.571 0.554-0.982 0.375-0.25 1.411-0.768 4.214-2.143 7.518-2.143 1.911 0 3.571 0.518t3.911 1.571q0.679 0.339 1.571 0.339 0.964 0 2.098-0.375t1.964-0.839 1.571-0.839 0.973-0.375q0.464 0 0.804 0.339t0.339 0.804z"></path>
</symbol>
<symbol id="lbsvgi-question-circle-o" viewBox="0 0 27 32">
<title>question-circle-o</title>
<path class="path1" fill="#424242" d="M15.714 21.429v2.857q0 0.25-0.161 0.411t-0.411 0.161h-2.857q-0.25 0-0.411-0.161t-0.161-0.411v-2.857q0-0.25 0.161-0.411t0.411-0.161h2.857q0.25 0 0.411 0.161t0.161 0.411zM20.286 12.571q0 0.893-0.268 1.607t-0.813 1.232-0.929 0.786-1.063 0.643q-0.571 0.321-0.83 0.5t-0.464 0.429-0.205 0.518v0.571q0 0.25-0.161 0.411t-0.411 0.161h-2.857q-0.25 0-0.411-0.161t-0.161-0.411v-1.214q0-0.625 0.188-1.152t0.429-0.848 0.696-0.634 0.732-0.455 0.795-0.375q0.946-0.446 1.339-0.768t0.393-0.875q0-0.75-0.777-1.277t-1.705-0.527q-1 0-1.696 0.482-0.518 0.357-1.429 1.482-0.161 0.214-0.446 0.214-0.196 0-0.339-0.107l-1.929-1.464q-0.179-0.125-0.214-0.357t0.089-0.411q2.179-3.429 6.232-3.429 2.304 0 4.259 1.598t1.955 3.83zM13.714 4.571q-2.321 0-4.438 0.911t-3.643 2.438-2.438 3.643-0.911 4.438 0.911 4.438 2.438 3.643 3.643 2.438 4.438 0.911 4.437-0.911 3.643-2.438 2.438-3.643 0.911-4.438-0.911-4.438-2.438-3.643-3.643-2.438-4.438-0.911zM27.429 16q0 3.732-1.839 6.884t-4.991 4.991-6.884 1.839-6.884-1.839-4.991-4.991-1.839-6.884 1.839-6.884 4.991-4.991 6.884-1.839 6.884 1.839 4.991 4.991 1.839 6.884z"></path>
</symbol>
<symbol id="lbsvgi-question-circle" viewBox="0 0 27 32">
<title>question-circle</title>
<path class="path1" fill="#424242" d="M16 24.571v-3.429q0-0.25-0.161-0.411t-0.411-0.161h-3.429q-0.25 0-0.411 0.161t-0.161 0.411v3.429q0 0.25 0.161 0.411t0.411 0.161h3.429q0.25 0 0.411-0.161t0.161-0.411zM20.571 12.571q0-1.571-0.991-2.911t-2.473-2.071-3.036-0.732q-4.339 0-6.625 3.804-0.268 0.429 0.143 0.75l2.357 1.786q0.125 0.107 0.339 0.107 0.286 0 0.446-0.214 0.946-1.214 1.536-1.643 0.607-0.429 1.536-0.429 0.857 0 1.527 0.464t0.67 1.054q0 0.679-0.357 1.089t-1.214 0.804q-1.125 0.5-2.063 1.545t-0.938 2.241v0.643q0 0.25 0.161 0.411t0.411 0.161h3.429q0.25 0 0.411-0.161t0.161-0.411q0-0.339 0.384-0.884t0.973-0.884q0.571-0.321 0.875-0.509t0.821-0.625 0.795-0.857 0.5-1.080 0.223-1.446zM27.429 16q0 3.732-1.839 6.884t-4.991 4.991-6.884 1.839-6.884-1.839-4.991-4.991-1.839-6.884 1.839-6.884 4.991-4.991 6.884-1.839 6.884 1.839 4.991 4.991 1.839 6.884z"></path>
</symbol>
<symbol id="lbsvgi-life-bouy" viewBox="0 0 32 32">
<title>life-bouy</title>
<path class="path1" fill="#424242" d="M16 0q3.25 0 6.214 1.268t5.107 3.411 3.411 5.107 1.268 6.214-1.268 6.214-3.411 5.107-5.107 3.411-6.214 1.268-6.214-1.268-5.107-3.411-3.411-5.107-1.268-6.214 1.268-6.214 3.411-5.107 5.107-3.411 6.214-1.268zM16 2.286q-3.393 0-6.446 1.607l3.464 3.464q1.464-0.5 2.982-0.5t2.982 0.5l3.464-3.464q-3.054-1.607-6.446-1.607zM3.893 22.446l3.464-3.464q-0.5-1.464-0.5-2.982t0.5-2.982l-3.464-3.464q-1.607 3.054-1.607 6.446t1.607 6.446zM16 29.714q3.393 0 6.446-1.607l-3.464-3.464q-1.464 0.5-2.982 0.5t-2.982-0.5l-3.464 3.464q3.054 1.607 6.446 1.607zM16 22.857q2.839 0 4.848-2.009t2.009-4.848-2.009-4.848-4.848-2.009-4.848 2.009-2.009 4.848 2.009 4.848 4.848 2.009zM24.643 18.982l3.464 3.464q1.607-3.054 1.607-6.446t-1.607-6.446l-3.464 3.464q0.5 1.464 0.5 2.982t-0.5 2.982z"></path>
</symbol>
<symbol id="lbsvgi-check-circle-o" viewBox="0 0 27 32">
<title>check-circle-o</title>
<path class="path1" fill="#424242" d="M20.911 14.518l-7.536 7.536q-0.339 0.339-0.804 0.339t-0.804-0.339l-5.25-5.25q-0.339-0.339-0.339-0.804t0.339-0.804l1.821-1.821q0.339-0.339 0.804-0.339t0.804 0.339l2.625 2.625 4.911-4.911q0.339-0.339 0.804-0.339t0.804 0.339l1.821 1.821q0.339 0.339 0.339 0.804t-0.339 0.804zM23.429 16q0-2.643-1.304-4.875t-3.536-3.536-4.875-1.304-4.875 1.304-3.536 3.536-1.304 4.875 1.304 4.875 3.536 3.536 4.875 1.304 4.875-1.304 3.536-3.536 1.304-4.875zM27.429 16q0 3.732-1.839 6.884t-4.991 4.991-6.884 1.839-6.884-1.839-4.991-4.991-1.839-6.884 1.839-6.884 4.991-4.991 6.884-1.839 6.884 1.839 4.991 4.991 1.839 6.884z"></path>
</symbol>
<symbol id="lbsvgi-check-circle" viewBox="0 0 27 32">
<title>check-circle</title>
<path class="path1" fill="#424242" d="M22.929 13.107q0-0.5-0.321-0.821l-1.625-1.607q-0.339-0.339-0.804-0.339t-0.804 0.339l-7.286 7.268-4.036-4.036q-0.339-0.339-0.804-0.339t-0.804 0.339l-1.625 1.607q-0.321 0.321-0.321 0.821 0 0.482 0.321 0.804l6.464 6.464q0.339 0.339 0.804 0.339 0.482 0 0.821-0.339l9.696-9.696q0.321-0.321 0.321-0.804zM27.429 16q0 3.732-1.839 6.884t-4.991 4.991-6.884 1.839-6.884-1.839-4.991-4.991-1.839-6.884 1.839-6.884 4.991-4.991 6.884-1.839 6.884 1.839 4.991 4.991 1.839 6.884z"></path>
</symbol>
<symbol id="lbsvgi-wrench" viewBox="0 0 30 32">
<title>wrench</title>
<path class="path1" fill="#424242" d="M6.857 26.286q0-0.464-0.339-0.804t-0.804-0.339-0.804 0.339-0.339 0.804 0.339 0.804 0.804 0.339 0.804-0.339 0.339-0.804zM18.357 18.786l-12.179 12.179q-0.661 0.661-1.607 0.661-0.929 0-1.625-0.661l-1.893-1.929q-0.679-0.643-0.679-1.607 0-0.946 0.679-1.625l12.161-12.161q0.696 1.75 2.045 3.098t3.098 2.045zM29.679 11.018q0 0.696-0.411 1.893-0.839 2.393-2.938 3.884t-4.616 1.491q-3.304 0-5.652-2.348t-2.348-5.652 2.348-5.652 5.652-2.348q1.036 0 2.17 0.295t1.92 0.83q0.286 0.196 0.286 0.5t-0.286 0.5l-5.232 3.018v4l3.446 1.911q0.089-0.054 1.411-0.866t2.42-1.446 1.259-0.634q0.268 0 0.42 0.179t0.152 0.446z"></path>
</symbol>
<symbol id="lbsvgi-check-square-o" viewBox="0 0 30 32">
<title>check-square-o</title>
<path class="path1" fill="#424242" d="M25.143 16.607v5.679q0 2.125-1.509 3.634t-3.634 1.509h-14.857q-2.125 0-3.634-1.509t-1.509-3.634v-14.857q0-2.125 1.509-3.634t3.634-1.509h14.857q1.125 0 2.089 0.446 0.268 0.125 0.321 0.411 0.054 0.304-0.161 0.518l-0.875 0.875q-0.179 0.179-0.411 0.179-0.054 0-0.161-0.036-0.411-0.107-0.804-0.107h-14.857q-1.179 0-2.018 0.839t-0.839 2.018v14.857q0 1.179 0.839 2.018t2.018 0.839h14.857q1.179 0 2.018-0.839t0.839-2.018v-4.536q0-0.232 0.161-0.393l1.143-1.143q0.179-0.179 0.411-0.179 0.107 0 0.214 0.054 0.357 0.143 0.357 0.518zM29.268 7.875l-14.536 14.536q-0.429 0.429-1.018 0.429t-1.018-0.429l-7.679-7.679q-0.429-0.429-0.429-1.018t0.429-1.018l1.964-1.964q0.429-0.429 1.018-0.429t1.018 0.429l4.696 4.696 11.554-11.554q0.429-0.429 1.018-0.429t1.018 0.429l1.964 1.964q0.429 0.429 0.429 1.018t-0.429 1.018z"></path>
</symbol>
<symbol id="lbsvgi-check-square" viewBox="0 0 27 32">
<title>check-square</title>
<path class="path1" fill="#424242" d="M12.232 23.196l10.964-10.964q0.339-0.339 0.339-0.804t-0.339-0.804l-1.821-1.821q-0.339-0.339-0.804-0.339t-0.804 0.339l-8.339 8.339-3.768-3.768q-0.339-0.339-0.804-0.339t-0.804 0.339l-1.821 1.821q-0.339 0.339-0.339 0.804t0.339 0.804l6.393 6.393q0.339 0.339 0.804 0.339t0.804-0.339zM27.429 7.429v17.143q0 2.125-1.509 3.634t-3.634 1.509h-17.143q-2.125 0-3.634-1.509t-1.509-3.634v-17.143q0-2.125 1.509-3.634t3.634-1.509h17.143q2.125 0 3.634 1.509t1.509 3.634z"></path>
</symbol>
<symbol id="lbsvgi-group2" viewBox="0 0 34 32">
<title>group2</title>
<path class="path1" fill="#424242" d="M10.589 16q-2.893 0.089-4.732 2.286h-2.393q-1.464 0-2.464-0.723t-1-2.116q0-6.304 2.214-6.304 0.107 0 0.777 0.375t1.741 0.759 2.125 0.384q1.196 0 2.375-0.411-0.089 0.661-0.089 1.179 0 2.482 1.446 4.571zM29.714 27.375q0 2.143-1.304 3.384t-3.464 1.241h-15.607q-2.161 0-3.464-1.241t-1.304-3.384q0-0.946 0.063-1.848t0.25-1.946 0.473-1.938 0.768-1.741 1.107-1.446 1.527-0.955 1.991-0.357q0.179 0 0.768 0.384t1.304 0.857 1.911 0.857 2.411 0.384 2.411-0.384 1.911-0.857 1.304-0.857 0.768-0.384q1.089 0 1.991 0.357t1.527 0.955 1.107 1.446 0.768 1.741 0.473 1.938 0.25 1.946 0.063 1.848zM11.429 4.571q0 1.893-1.339 3.232t-3.232 1.339-3.232-1.339-1.339-3.232 1.339-3.232 3.232-1.339 3.232 1.339 1.339 3.232zM24 11.429q0 2.839-2.009 4.848t-4.848 2.009-4.848-2.009-2.009-4.848 2.009-4.848 4.848-2.009 4.848 2.009 2.009 4.848zM34.286 15.446q0 1.393-1 2.116t-2.464 0.723h-2.393q-1.839-2.196-4.732-2.286 1.446-2.089 1.446-4.571 0-0.518-0.089-1.179 1.179 0.411 2.375 0.411 1.054 0 2.125-0.384t1.741-0.759 0.777-0.375q2.214 0 2.214 6.304zM32 4.571q0 1.893-1.339 3.232t-3.232 1.339-3.232-1.339-1.339-3.232 1.339-3.232 3.232-1.339 3.232 1.339 1.339 3.232z"></path>
</symbol>
<symbol id="lbsvgi-shopping-cart" viewBox="0 0 30 32">
<title>shopping-cart</title>
<path class="path1" fill="#424242" d="M11.429 27.429q0 0.929-0.679 1.607t-1.607 0.679-1.607-0.679-0.679-1.607 0.679-1.607 1.607-0.679 1.607 0.679 0.679 1.607zM27.429 27.429q0 0.929-0.679 1.607t-1.607 0.679-1.607-0.679-0.679-1.607 0.679-1.607 1.607-0.679 1.607 0.679 0.679 1.607zM29.714 8v9.143q0 0.429-0.295 0.759t-0.723 0.384l-18.643 2.179q0.232 1.071 0.232 1.25 0 0.286-0.429 1.143h16.429q0.464 0 0.804 0.339t0.339 0.804-0.339 0.804-0.804 0.339h-18.286q-0.464 0-0.804-0.339t-0.339-0.804q0-0.196 0.143-0.563t0.286-0.643 0.384-0.714 0.277-0.527l-3.161-14.696h-3.643q-0.464 0-0.804-0.339t-0.339-0.804 0.339-0.804 0.804-0.339h4.571q0.286 0 0.509 0.116t0.348 0.277 0.232 0.438 0.143 0.464 0.098 0.527 0.080 0.464h21.446q0.464 0 0.804 0.339t0.339 0.804z"></path>
</symbol>
<symbol id="lbsvgi-thumbs-o-up" viewBox="0 0 27 32">
<title>thumbs-o-up</title>
<path class="path1" fill="#424242" d="M4.571 24q0-0.464-0.339-0.804t-0.804-0.339-0.804 0.339-0.339 0.804 0.339 0.804 0.804 0.339 0.804-0.339 0.339-0.804zM25.143 13.714q0-0.911-0.696-1.598t-1.589-0.688h-6.286q0-1.036 0.857-2.848t0.857-2.866q0-1.75-0.571-2.589t-2.286-0.839q-0.464 0.464-0.679 1.518t-0.545 2.241-1.063 1.955q-0.393 0.411-1.375 1.625-0.071 0.089-0.411 0.536t-0.563 0.732-0.616 0.759-0.714 0.786-0.688 0.634-0.714 0.482-0.634 0.161h-0.571v11.429h0.571q0.232 0 0.563 0.054t0.589 0.116 0.679 0.196 0.625 0.205 0.634 0.223 0.518 0.188q3.768 1.304 6.107 1.304h2.161q3.429 0 3.429-2.982 0-0.464-0.089-1 0.536-0.286 0.848-0.938t0.313-1.313-0.321-1.232q0.946-0.893 0.946-2.125 0-0.446-0.179-0.991t-0.446-0.848q0.571-0.018 0.955-0.839t0.384-1.446zM27.429 13.696q0 1.589-0.875 2.911 0.161 0.589 0.161 1.232 0 1.375-0.679 2.571 0.054 0.375 0.054 0.768 0 1.804-1.071 3.179 0.018 2.482-1.518 3.92t-4.054 1.438h-2.304q-1.714 0-3.384-0.402t-3.866-1.17q-2.071-0.714-2.464-0.714h-5.143q-0.946 0-1.616-0.67t-0.67-1.616v-11.429q0-0.946 0.67-1.616t1.616-0.67h4.893q0.643-0.429 2.446-2.768 1.036-1.339 1.911-2.286 0.429-0.446 0.634-1.527t0.545-2.259 1.107-1.929q0.696-0.661 1.607-0.661 1.5 0 2.696 0.58t1.821 1.813 0.625 3.321q0 1.661-0.857 3.429h3.143q1.857 0 3.214 1.357t1.357 3.196z"></path>
</symbol>
<symbol id="lbsvgi-lock2" viewBox="0 0 21 32">
<title>lock2</title>
<path class="path1" fill="#424242" d="M5.714 13.714h9.143v-3.429q0-1.893-1.339-3.232t-3.232-1.339-3.232 1.339-1.339 3.232v3.429zM20.571 15.429v10.286q0 0.714-0.5 1.214t-1.214 0.5h-17.143q-0.714 0-1.214-0.5t-0.5-1.214v-10.286q0-0.714 0.5-1.214t1.214-0.5h0.571v-3.429q0-3.286 2.357-5.643t5.643-2.357 5.643 2.357 2.357 5.643v3.429h0.571q0.714 0 1.214 0.5t0.5 1.214z"></path>
</symbol>
<symbol id="lbsvgi-envelope" viewBox="0 0 32 32">
<title>envelope</title>
<path class="path1" fill="#424242" d="M32 12.679v14.179q0 1.179-0.839 2.018t-2.018 0.839h-26.286q-1.179 0-2.018-0.839t-0.839-2.018v-14.179q0.786 0.875 1.804 1.554 6.464 4.393 8.875 6.161 1.018 0.75 1.652 1.17t1.688 0.857 1.964 0.438h0.036q0.911 0 1.964-0.438t1.688-0.857 1.652-1.17q3.036-2.196 8.893-6.161 1.018-0.696 1.786-1.554zM32 7.429q0 1.411-0.875 2.696t-2.179 2.196q-6.714 4.661-8.357 5.804-0.179 0.125-0.759 0.545t-0.964 0.679-0.929 0.58-1.027 0.482-0.893 0.161h-0.036q-0.411 0-0.893-0.161t-1.027-0.482-0.929-0.58-0.964-0.679-0.759-0.545q-1.625-1.143-4.679-3.259t-3.661-2.545q-1.107-0.75-2.089-2.063t-0.982-2.438q0-1.393 0.741-2.321t2.116-0.929h26.286q1.161 0 2.009 0.839t0.848 2.018z"></path>
</symbol>
<symbol id="lbsvgi-network" viewBox="0 0 32 32">
<title>network</title>
<path class="path1" fill="#424242" d="M8.438 11.064c0.32 0 0.63 0.046 0.922 0.138 1.104-1.237 2.328-2.363 3.653-3.36-0.056-0.234-0.086-0.478-0.086-0.728 0-0.347 0.058-0.682 0.163-0.994-1.486-1.062-3.099-1.957-4.818-2.646-1.608 0.994-3.011 2.29-4.131 3.81 0.83 1.472 1.818 2.843 2.941 4.091 0.41-0.198 0.869-0.31 1.357-0.31zM5.306 14.195c0-0.44 0.093-0.859 0.254-1.237-1.005-1.107-1.915-2.298-2.712-3.566-1 1.987-1.568 4.232-1.568 6.61 0 2.75 0.758 5.325 2.072 7.528 0.47-2.646 1.362-5.15 2.592-7.443-0.4-0.525-0.638-1.182-0.638-1.891zM16.058 3.982c0.827 0 1.576 0.322 2.138 0.846 1.634-0.702 3.354-1.243 5.144-1.587-2.162-1.246-4.667-1.962-7.339-1.962-1.822 0-3.566 0.334-5.178 0.941 1.278 0.632 2.498 1.368 3.643 2.2 0.467-0.278 1.010-0.438 1.592-0.438zM20.739 18.733c0.195-0.406 0.472-0.766 0.814-1.050-0.925-2.843-2.389-5.446-4.275-7.685-0.374 0.16-0.787 0.246-1.222 0.246-0.68 0-1.306-0.219-1.819-0.584-1.136 0.862-2.187 1.829-3.142 2.885 0.301 0.478 0.475 1.043 0.475 1.65 0 0.325-0.050 0.64-0.144 0.938 2.747 1.834 5.91 3.094 9.314 3.6zM24.802 22.962c0.042 0.594 0.066 1.19 0.066 1.794 0 1.062-0.067 2.109-0.195 3.138 2.496-1.822 4.397-4.413 5.355-7.422-1.136 0.275-2.301 0.472-3.49 0.584-0.277 0.859-0.915 1.55-1.736 1.907zM20.006 20.838c-3.635-0.603-7.003-1.99-9.936-3.974-0.477 0.291-1.035 0.462-1.634 0.462-0.222 0-0.435-0.022-0.643-0.066-1.403 2.659-2.301 5.627-2.558 8.774 1.402 1.504 3.11 2.715 5.032 3.528 2.387-3.669 5.722-6.702 9.739-8.725zM25.882 5.090c-2.36 0.229-4.613 0.822-6.709 1.709 0.010 0.106 0.016 0.21 0.016 0.315 0 0.494-0.118 0.96-0.322 1.374 2.098 2.462 3.723 5.328 4.75 8.466 1.275 0.026 2.363 0.803 2.832 1.912 1.418-0.144 2.797-0.416 4.125-0.806 0.096-0.672 0.147-1.36 0.147-2.059-0.002-4.326-1.867-8.218-4.84-10.91zM21.582 22.51c-3.75 1.757-6.886 4.462-9.157 7.77 1.144 0.286 2.341 0.44 3.574 0.44 2.219 0 4.323-0.494 6.211-1.374 0.304-1.485 0.464-3.019 0.464-4.59 0-0.568-0.026-1.131-0.069-1.688-0.378-0.122-0.725-0.309-1.024-0.557z"></path>
</symbol>
<symbol id="lbsvgi-light-bulb" viewBox="0 0 32 32">
<title>light-bulb</title>
<path class="path1" fill="#424242" d="M11.498 30.675c1.262 0.816 2.722 1.368 4.502 1.325 1.778 0.043 3.24-0.509 4.502-1.325l-0.027-3.475h-8.95l-0.027 3.475zM20.315 25.6c0-6.971 7.408-9.357 6.853-16.301-0.349-4.381-3.317-9.296-11.168-9.296s-10.819 4.915-11.17 9.298c-0.555 6.942 6.854 9.328 6.854 16.299h8.63zM8 9.6c0.331-4.157 3.381-6.4 8-6.4 4.618 0 7.446 2.194 7.778 6.35 0.181 2.278-1.128 3.797-2.894 6.282-1.302 1.834-2.565 3.749-3.283 6.568h-3.2c-0.718-2.819-1.981-4.734-3.285-6.57-1.765-2.483-3.298-3.952-3.115-6.23z"></path>
</symbol>
<symbol id="lbsvgi-hand2" viewBox="0 0 32 32">
<title>hand2</title>
<path class="path1" fill="#424242" d="M28.678 27.704c-0.091 0.278-0.309 0.587-0.666 0.691-0.258 0.075-8.781 2.544-9.043 2.613-0.75 0.2-1.272 0.053-1.614-0.25-0.522-0.459-6.549-4.56-14.152-4.947-0.813-0.040-0.414-3.122 1.909-3.122 1.592 0 6.246 1.157 6.808 0.594 0.434-0.435 0.63-3.006-1.179-7.493v0l-3.64-9.019c-0.346-0.856 0.070-1.829 0.925-2.174 0.856-0.346 1.832 0.069 2.174 0.925 0 0 2.866 7.101 3.178 7.87 0.309 0.768 0.69 1.059 1.104 0.899 0.37-0.141 0.446-0.387 0.222-1.134l-3.274-9.645c-0.298-0.874 0.17-1.821 1.043-2.118 0.875-0.299 1.826 0.17 2.12 1.043l3.114 9.171c0.275 0.806 0.566 1.229 1.027 1.034 0.277-0.117 0.258-0.541 0.184-0.91l-2.186-8.754c-0.224-0.898 0.322-1.803 1.218-2.027 0.896-0.222 1.8 0.32 2.026 1.218l2.016 8.067c0.294 1.186 0.565 1.613 1.034 1.496 0.478-0.117 0.456-0.51 0.39-0.835-0.152-0.76-1.395-6.925-1.395-6.925-0.165-0.824 0.368-1.624 1.19-1.789 0.821-0.165 1.622 0.368 1.786 1.189l1.517 7.538 0.002 0.002c0 0 0 0 0 0.002l0.909 4.52c0.198 0.853 0.426 1.656 0.72 2.443 1.736 4.622 0.83 8.902 0.534 9.829z"></path>
</symbol>
<symbol id="lbsvgi-heart2" viewBox="0 0 32 32">
<title>heart2</title>
<path class="path1" fill="#424242" d="M22.222 7.111c2.451 0 4.444 2.392 4.444 5.333 0 5.608-6.788 10.156-10.667 12.089-3.883-1.936-10.667-6.483-10.667-12.089 0-2.941 1.994-5.333 4.444-5.333 1.143 0 2.394 0.782 3.347 2.092l1.438 1.575c0.71 0.976 2.165 0.976 2.875 0l1.438-1.575c0.953-1.31 2.204-2.092 3.347-2.092zM22.222 3.556c-2.515 0-4.755 1.54-6.222 3.556-1.467-2.016-3.707-3.556-6.222-3.556-4.418 0-8 3.98-8 8.889 0 10.167 14.222 16 14.222 16s14.222-5.833 14.222-16c0-4.909-3.582-8.889-8-8.889v0z"></path>
</symbol>
</defs>
</svg>
