<?xml version="1.0" encoding="UTF-8" standalone="no"?>
<!-- Generator: Adobe Illustrator 19.0.0, SVG Export Plug-In . SVG Version: 6.00 Build 0)  -->

<svg
   xmlns:dc="http://purl.org/dc/elements/1.1/"
   xmlns:cc="http://creativecommons.org/ns#"
   xmlns:rdf="http://www.w3.org/1999/02/22-rdf-syntax-ns#"
   xmlns:svg="http://www.w3.org/2000/svg"
   xmlns="http://www.w3.org/2000/svg"
   xmlns:sodipodi="http://sodipodi.sourceforge.net/DTD/sodipodi-0.dtd"
   xmlns:inkscape="http://www.inkscape.org/namespaces/inkscape"
   version="1.1"
   id="Ebene_1"
   x="0px"
   y="0px"
   viewBox="0 0 1434 1008"
   xml:space="preserve"
   inkscape:version="0.91 r13725"
   sodipodi:docname="lastbreach_favicon5.svg"
   width="1434"
   height="1008"><metadata
     id="metadata12"><rdf:RDF><cc:Work
         rdf:about=""><dc:format>image/svg+xml</dc:format><dc:type
           rdf:resource="http://purl.org/dc/dcmitype/StillImage" /><dc:title /></cc:Work></rdf:RDF></metadata><defs
     id="defs10"><inkscape:perspective
       sodipodi:type="inkscape:persp3d"
       inkscape:vp_x="0 : 0.5 : 1"
       inkscape:vp_y="0 : 2 : 0"
       inkscape:vp_z="1 : 0.5 : 1"
       inkscape:persp3d-origin="0.5 : 0.33333334 : 1"
       id="perspective4258" /></defs><sodipodi:namedview
     pagecolor="#ffffff"
     bordercolor="#666666"
     borderopacity="1"
     objecttolerance="10"
     gridtolerance="10"
     guidetolerance="10"
     inkscape:pageopacity="0"
     inkscape:pageshadow="2"
     inkscape:window-width="1920"
     inkscape:window-height="1021"
     id="namedview8"
     showgrid="false"
     inkscape:zoom="0.70710678"
     inkscape:cx="340.54456"
     inkscape:cy="393.80088"
     inkscape:window-x="0"
     inkscape:window-y="0"
     inkscape:window-maximized="1"
     inkscape:current-layer="Ebene_1" /><style
     type="text/css"
     id="style3">
	.st0{fill-rule:evenodd;clip-rule:evenodd;fill:#B60000;}
	.st1{fill-rule:evenodd;clip-rule:evenodd;fill:#DB0000;}
	.st2{fill-rule:evenodd;clip-rule:evenodd;fill:#7C0000;}
</style><path
     style="clip-rule:evenodd;fill:#b60000;fill-rule:evenodd"
     inkscape:connector-curvature="0"
     d="M 477.65792,742.25881 340.333,2.7087992 l 794.2794,0 L 1003.3017,742.25881 740.47983,1005.0807 477.65792,742.25881 Z"
     class="st0"
     id="path4422" /><rect
     style="fill:#db0000;fill-opacity:1;stroke:#616261;stroke-width:2.32753205;stroke-opacity:0"
     id="rect4424"
     width="337.52802"
     height="361.92361"
     x="-89.507576"
     y="859.25568"
     transform="matrix(0.74290227,-0.66939989,0.66939989,0.74290227,0,0)"
     ry="0" /><path
     inkscape:connector-curvature="0"
     id="path4430"
     d="M 1136.6326,2.7148508 475.66811,744.27026 738.49284,1007.0903 1001.313,744.27026 1136.6326,2.7148508 Z M 701.31596,525.92332 l 39.20437,0 0,305.88845 -39.20437,0 0,-305.88845 z m 82.19551,0 23.15259,0 0,120.96789 0.55915,0 c 5.19,-10.06052 11.89943,-17.80748 19.88403,-23.15708 8.06446,-5.3496 17.72618,-8.06466 29.14417,-8.06466 20.52043,0 36.3294,8.62443 47.428,25.87121 11.09861,17.24678 16.68819,40.80257 16.68819,70.5852 l 0,32.17627 c 0,28.34538 -5.58958,50.70063 -16.68819,66.98916 -11.0986,16.28854 -26.82692,24.43467 -47.02797,24.43467 -11.73735,0 -21.79934,-2.71484 -30.10334,-8.06467 -8.30396,-5.3496 -15.08955,-13.09656 -20.27953,-23.15708 l -0.55917,0 -2.15932,27.23026 -20.03861,0 0,-305.81117 z m 67.63029,110.98487 c -11.49787,0 -20.76045,3.67378 -27.86675,11.01947 -7.02645,7.34593 -12.61611,17.08944 -16.68822,29.22612 l 0,101.00209 c 4.15197,11.65744 9.89957,20.68105 17.16555,27.14833 7.26599,6.46775 16.52664,9.74212 27.78491,9.74212 15.57,0 27.07106,-6.30924 34.57658,-18.92493 7.50552,-12.61546 11.25578,-29.86224 11.25578,-51.66027 l 0,-32.25796 0.0819,0 c 0,-22.75628 -3.75226,-40.95898 -11.33762,-54.69258 -7.58538,-13.73337 -19.24242,-20.60239 -34.97207,-20.60239 z"
     style="clip-rule:evenodd;fill:#db0000;fill-rule:evenodd" /><path
     style="clip-rule:evenodd;fill:#7c0000;fill-rule:evenodd"
     inkscape:connector-curvature="0"
     d="M 474.24986,741.25657 340.333,4.7137352 742.08362,1009.0901 474.24986,741.25657 Z"
     class="st2"
     id="path4432" /></svg>