<svg xmlns="http://www.w3.org/2000/svg" width="1920" height="1200"><path d="M-53,1336L-160,1307L97,1379Z" fill="#8490b9" stroke="#8490b9" stroke-width="1.51"/><path d="M477,1356L97,1379L801,1378Z" fill="#6b81ae" stroke="#6b81ae" stroke-width="1.51"/><path d="M1354,1378L801,1378L1515,1386Z" fill="#2b629b" stroke="#2b629b" stroke-width="1.51"/><path d="M1244,-160L1320,-158L1670,-168Z" fill="#9cb9dd" stroke="#9cb9dd" stroke-width="1.51"/><path d="M899,-180L1244,-160L1670,-168Z" fill="#a2c2e2" stroke="#a2c2e2" stroke-width="1.51"/><path d="M899,-180L1670,-168L1788,-173Z" fill="#9bb7dc" stroke="#9bb7dc" stroke-width="1.51"/><path d="M517,-188L899,-180L1788,-173Z" fill="#adcde7" stroke="#adcde7" stroke-width="1.51"/><path d="M1560,1383L1515,1386L1840,1388Z" fill="#124b8d" stroke="#124b8d" stroke-width="1.51"/><path d="M1726,1363L1560,1383L1840,1388Z" fill="#0e488b" stroke="#0e488b" stroke-width="1.51"/><path d="M2024,417L1951,524L2035,554Z" fill="#5079ac" stroke="#5079ac" stroke-width="1.51"/><path d="M2024,417L2035,554L2037,303Z" fill="#597cab" stroke="#597cab" stroke-width="1.51"/><path d="M1955,83L1913,181L2049,220Z" fill="#758ab8" stroke="#758ab8" stroke-width="1.51"/><path d="M2037,303L2035,554L2049,220Z" fill="#607eac" stroke="#607eac" stroke-width="1.51"/><path d="M1951,1323L1840,1388L2054,1363Z" fill="#093c7e" stroke="#093c7e" stroke-width="1.51"/><path d="M2033,1233L1951,1323L2054,1363Z" fill="#093d7f" stroke="#093d7f" stroke-width="1.51"/><path d="M2030,667L1965,748L2065,777Z" fill="#3369a2" stroke="#3369a2" stroke-width="1.51"/><path d="M1965,748L2025,915L2065,777Z" fill="#29639f" stroke="#29639f" stroke-width="1.51"/><path d="M2035,554L2030,667L2065,777Z" fill="#3a6ca3" stroke="#3a6ca3" stroke-width="1.51"/><path d="M1978,1030L1905,1094L2069,1148Z" fill="#115095" stroke="#115095" stroke-width="1.51"/><path d="M2021,965L1978,1030L2069,1148Z" fill="#145194" stroke="#145194" stroke-width="1.51"/><path d="M2065,777L2025,915L2069,1148Z" fill="#1c5796" stroke="#1c5796" stroke-width="1.51"/><path d="M2025,915L2021,965L2069,1148Z" fill="#165395" stroke="#165395" stroke-width="1.51"/><path d="M2033,1233L2054,1363L2069,1148Z" fill="#094083" stroke="#094083" stroke-width="1.51"/><path d="M1955,83L2049,220L2074,90Z" fill="#7587b4" stroke="#7587b4" stroke-width="1.51"/><path d="M2035,554L2065,777L2074,90Z" fill="#5277a7" stroke="#5277a7" stroke-width="1.51"/><path d="M2049,220L2035,554L2074,90Z" fill="#6780ae" stroke="#6780ae" stroke-width="1.51"/><path d="M2024,-133L1907,-9L2074,-2Z" fill="#8190ba" stroke="#8190ba" stroke-width="1.51"/><path d="M1955,83L2074,90L2074,-2Z" fill="#7a89b5" stroke="#7a89b5" stroke-width="1.51"/><path d="M1907,-9L1955,83L2074,-2Z" fill="#7e8fbb" stroke="#7e8fbb" stroke-width="1.51"/><path d="M1975,680L1965,748L2030,667Z" fill="#376da6" stroke="#376da6" stroke-width="1.51"/><path d="M1948,1265L1951,1323L2033,1233Z" fill="#094286" stroke="#094286" stroke-width="1.51"/><path d="M1905,1094L2033,1233L2069,1148Z" fill="#0d4a8f" stroke="#0d4a8f" stroke-width="1.51"/><path d="M1974,-146L1907,-9L2024,-133Z" fill="#8593be" stroke="#8593be" stroke-width="1.51"/><path d="M1965,748L1903,915L2025,915Z" fill="#2663a2" stroke="#2663a2" stroke-width="1.51"/><path d="M1905,1094L1948,1265L2033,1233Z" fill="#094990" stroke="#094990" stroke-width="1.51"/><path d="M1975,680L2030,667L2035,554Z" fill="#3e70a6" stroke="#3e70a6" stroke-width="1.51"/><path d="M1930,409L2024,417L2037,303Z" fill="#6081b0" stroke="#6081b0" stroke-width="1.51"/><path d="M1906,346L1930,409L2037,303Z" fill="#6384b4" stroke="#6384b4" stroke-width="1.51"/><path d="M1913,181L2037,303L2049,220Z" fill="#6e85b4" stroke="#6e85b4" stroke-width="1.51"/><path d="M1951,524L1975,680L2035,554Z" fill="#4474ab" stroke="#4474ab" stroke-width="1.51"/><path d="M1930,409L1951,524L2024,417Z" fill="#587eb0" stroke="#587eb0" stroke-width="1.51"/><path d="M1913,181L1906,346L2037,303Z" fill="#6c87b7" stroke="#6c87b7" stroke-width="1.51"/><path d="M1903,915L2021,965L2025,915Z" fill="#1f5c9d" stroke="#1f5c9d" stroke-width="1.51"/><path d="M1852,799L1903,915L1965,748Z" fill="#296aa8" stroke="#296aa8" stroke-width="1.51"/><path d="M1903,915L1978,1030L2021,965Z" fill="#1b5a9d" stroke="#1b5a9d" stroke-width="1.51"/><path d="M1855,205L1906,346L1913,181Z" fill="#718cbe" stroke="#718cbe" stroke-width="1.51"/><path d="M1905,1094L1820,1216L1948,1265Z" fill="#0a4e96" stroke="#0a4e96" stroke-width="1.51"/><path d="M1813,-57L1907,-9L1974,-146Z" fill="#8697c4" stroke="#8697c4" stroke-width="1.51"/><path d="M1951,524L1839,626L1975,680Z" fill="#4277b0" stroke="#4277b0" stroke-width="1.51"/><path d="M1903,915L1905,1094L1978,1030Z" fill="#165a9f" stroke="#165a9f" stroke-width="1.51"/><path d="M1843,1110L1820,1216L1905,1094Z" fill="#0d549d" stroke="#0d549d" stroke-width="1.51"/><path d="M1788,-173L1813,-57L1974,-146Z" fill="#8b9cc9" stroke="#8b9cc9" stroke-width="1.51"/><path d="M1839,626L1965,748L1975,680Z" fill="#3a72ac" stroke="#3a72ac" stroke-width="1.51"/><path d="M1903,915L1784,1032L1905,1094Z" fill="#165da4" stroke="#165da4" stroke-width="1.51"/><path d="M1930,409L1860,398L1951,524Z" fill="#5a82b5" stroke="#5a82b5" stroke-width="1.51"/><path d="M1817,545L1839,626L1951,524Z" fill="#4a7db6" stroke="#4a7db6" stroke-width="1.51"/><path d="M1839,626L1852,799L1965,748Z" fill="#3672ae" stroke="#3672ae" stroke-width="1.51"/><path d="M1860,398L1817,545L1951,524Z" fill="#5482b7" stroke="#5482b7" stroke-width="1.51"/><path d="M1813,59L1913,181L1955,83Z" fill="#7b91c1" stroke="#7b91c1" stroke-width="1.51"/><path d="M1907,-9L1813,59L1955,83Z" fill="#7f94c2" stroke="#7f94c2" stroke-width="1.51"/><path d="M1848,907L1784,1032L1903,915Z" fill="#1d63a8" stroke="#1d63a8" stroke-width="1.51"/><path d="M1820,1216L1840,1388L1948,1265Z" fill="#09478d" stroke="#09478d" stroke-width="1.51"/><path d="M1948,1265L1840,1388L1951,1323Z" fill="#094185" stroke="#094185" stroke-width="1.51"/><path d="M1852,799L1848,907L1903,915Z" fill="#2568aa" stroke="#2568aa" stroke-width="1.51"/><path d="M1784,1032L1843,1110L1905,1094Z" fill="#1259a1" stroke="#1259a1" stroke-width="1.51"/><path d="M1855,205L1821,352L1906,346Z" fill="#6c8cbe" stroke="#6c8cbe" stroke-width="1.51"/><path d="M1813,59L1855,205L1913,181Z" fill="#7a92c3" stroke="#7a92c3" stroke-width="1.51"/><path d="M1906,346L1860,398L1930,409Z" fill="#6286b8" stroke="#6286b8" stroke-width="1.51"/><path d="M1320,-158L1503,-126L1670,-168Z" fill="#97b3da" stroke="#97b3da" stroke-width="1.51"/><path d="M1839,626L1748,698L1852,799Z" fill="#3977b5" stroke="#3977b5" stroke-width="1.51"/><path d="M1813,-57L1813,59L1907,-9Z" fill="#8498c7" stroke="#8498c7" stroke-width="1.51"/><path d="M1002,1334L801,1378L1354,1378Z" fill="#396ca2" stroke="#396ca2" stroke-width="1.51"/><path d="M1821,352L1860,398L1906,346Z" fill="#6589bc" stroke="#6589bc" stroke-width="1.51"/><path d="M899,-180L1020,-155L1244,-160Z" fill="#adcee7" stroke="#adcee7" stroke-width="1.51"/><path d="M1820,1216L1726,1363L1840,1388Z" fill="#0b488e" stroke="#0b488e" stroke-width="1.51"/><path d="M1712,976L1784,1032L1848,907Z" fill="#1c65ac" stroke="#1c65ac" stroke-width="1.51"/><path d="M1705,921L1848,907L1852,799Z" fill="#266caf" stroke="#266caf" stroke-width="1.51"/><path d="M1813,59L1735,90L1855,205Z" fill="#7e96c8" stroke="#7e96c8" stroke-width="1.51"/><path d="M1677,230L1821,352L1855,205Z" fill="#7293c4" stroke="#7293c4" stroke-width="1.51"/><path d="M1821,352L1730,386L1860,398Z" fill="#658dc0" stroke="#658dc0" stroke-width="1.51"/><path d="M1730,386L1817,545L1860,398Z" fill="#5d89be" stroke="#5d89be" stroke-width="1.51"/><path d="M1732,1110L1820,1216L1843,1110Z" fill="#0f57a0" stroke="#0f57a0" stroke-width="1.51"/><path d="M1705,921L1712,976L1848,907Z" fill="#216aae" stroke="#216aae" stroke-width="1.51"/><path d="M1748,698L1693,761L1852,799Z" fill="#3477b5" stroke="#3477b5" stroke-width="1.51"/><path d="M1693,761L1705,921L1852,799Z" fill="#2c73b3" stroke="#2c73b3" stroke-width="1.51"/><path d="M1735,90L1677,230L1855,205Z" fill="#7b97c9" stroke="#7b97c9" stroke-width="1.51"/><path d="M1730,386L1705,552L1817,545Z" fill="#5789bf" stroke="#5789bf" stroke-width="1.51"/><path d="M1686,1229L1726,1363L1820,1216Z" fill="#0d5097" stroke="#0d5097" stroke-width="1.51"/><path d="M1677,230L1674,349L1821,352Z" fill="#6f94c6" stroke="#6f94c6" stroke-width="1.51"/><path d="M1784,1032L1732,1110L1843,1110Z" fill="#145ca5" stroke="#145ca5" stroke-width="1.51"/><path d="M1692,-1L1813,59L1813,-57Z" fill="#869dcb" stroke="#869dcb" stroke-width="1.51"/><path d="M1817,545L1705,552L1839,626Z" fill="#4a82bb" stroke="#4a82bb" stroke-width="1.51"/><path d="M1674,349L1730,386L1821,352Z" fill="#6891c3" stroke="#6891c3" stroke-width="1.51"/><path d="M1705,552L1748,698L1839,626Z" fill="#437fba" stroke="#437fba" stroke-width="1.51"/><path d="M1692,-1L1735,90L1813,59Z" fill="#849dcc" stroke="#849dcc" stroke-width="1.51"/><path d="M1788,-173L1670,-168L1813,-57Z" fill="#8fa2cf" stroke="#8fa2cf" stroke-width="1.51"/><path d="M1732,1110L1686,1229L1820,1216Z" fill="#0f56a0" stroke="#0f56a0" stroke-width="1.51"/><path d="M1670,-168L1692,-1L1813,-57Z" fill="#8ca3cf" stroke="#8ca3cf" stroke-width="1.51"/><path d="M1020,-155L1126,-148L1244,-160Z" fill="#a8c9e5" stroke="#a8c9e5" stroke-width="1.51"/><path d="M1169,1332L1002,1334L1354,1378Z" fill="#3067a1" stroke="#3067a1" stroke-width="1.51"/><path d="M1670,-168L1621,-122L1692,-1Z" fill="#8fa7d3" stroke="#8fa7d3" stroke-width="1.51"/><path d="M1693,761L1629,870L1705,921Z" fill="#2c75b5" stroke="#2c75b5" stroke-width="1.51"/><path d="M1625,428L1705,552L1730,386Z" fill="#5e8fc3" stroke="#5e8fc3" stroke-width="1.51"/><path d="M1712,976L1732,1110L1784,1032Z" fill="#1862a9" stroke="#1862a9" stroke-width="1.51"/><path d="M1581,615L1578,731L1693,761Z" fill="#3e83be" stroke="#3e83be" stroke-width="1.51"/><path d="M1712,976L1632,985L1732,1110Z" fill="#1b66ac" stroke="#1b66ac" stroke-width="1.51"/><path d="M1632,985L1593,1077L1732,1110Z" fill="#1b66ac" stroke="#1b66ac" stroke-width="1.51"/><path d="M1590,68L1677,230L1735,90Z" fill="#809ecd" stroke="#809ecd" stroke-width="1.51"/><path d="M1705,552L1581,615L1748,698Z" fill="#4685be" stroke="#4685be" stroke-width="1.51"/><path d="M1581,615L1693,761L1748,698Z" fill="#3e80bc" stroke="#3e80bc" stroke-width="1.51"/><path d="M1590,68L1560,183L1677,230Z" fill="#80a1d0" stroke="#80a1d0" stroke-width="1.51"/><path d="M1686,1229L1560,1383L1726,1363Z" fill="#125094" stroke="#125094" stroke-width="1.51"/><path d="M1593,1077L1686,1229L1732,1110Z" fill="#165ea6" stroke="#165ea6" stroke-width="1.51"/><path d="M1692,-1L1590,68L1735,90Z" fill="#85a2cf" stroke="#85a2cf" stroke-width="1.51"/><path d="M1674,349L1625,428L1730,386Z" fill="#6794c6" stroke="#6794c6" stroke-width="1.51"/><path d="M1625,428L1597,540L1705,552Z" fill="#588fc4" stroke="#588fc4" stroke-width="1.51"/><path d="M1593,1077L1563,1229L1686,1229Z" fill="#155ea6" stroke="#155ea6" stroke-width="1.51"/><path d="M1563,1229L1560,1383L1686,1229Z" fill="#14569c" stroke="#14569c" stroke-width="1.51"/><path d="M1597,540L1581,615L1705,552Z" fill="#4f8bc2" stroke="#4f8bc2" stroke-width="1.51"/><path d="M1705,921L1632,985L1712,976Z" fill="#216cb0" stroke="#216cb0" stroke-width="1.51"/><path d="M1570,332L1674,349L1677,230Z" fill="#7199ca" stroke="#7199ca" stroke-width="1.51"/><path d="M1621,-122L1553,-23L1692,-1Z" fill="#8da8d3" stroke="#8da8d3" stroke-width="1.51"/><path d="M1629,870L1632,985L1705,921Z" fill="#2670b3" stroke="#2670b3" stroke-width="1.51"/><path d="M1578,731L1629,870L1693,761Z" fill="#337db9" stroke="#337db9" stroke-width="1.51"/><path d="M1553,-23L1590,68L1692,-1Z" fill="#89a6d2" stroke="#89a6d2" stroke-width="1.51"/><path d="M1503,-126L1621,-122L1670,-168Z" fill="#94add6" stroke="#94add6" stroke-width="1.51"/><path d="M1570,332L1625,428L1674,349Z" fill="#6a98c8" stroke="#6a98c8" stroke-width="1.51"/><path d="M1560,183L1570,332L1677,230Z" fill="#789ecd" stroke="#789ecd" stroke-width="1.51"/><path d="M1492,1199L1563,1229L1593,1077Z" fill="#1863aa" stroke="#1863aa" stroke-width="1.51"/><path d="M1516,530L1597,540L1625,428Z" fill="#5a93c7" stroke="#5a93c7" stroke-width="1.51"/><path d="M1578,731L1479,762L1629,870Z" fill="#3481bd" stroke="#3481bd" stroke-width="1.51"/><path d="M1479,762L1461,851L1629,870Z" fill="#3280bd" stroke="#3280bd" stroke-width="1.51"/><path d="M1458,1012L1593,1077L1632,985Z" fill="#1f6db2" stroke="#1f6db2" stroke-width="1.51"/><path d="M1629,870L1461,851L1632,985Z" fill="#2a77b8" stroke="#2a77b8" stroke-width="1.51"/><path d="M1461,851L1458,1012L1632,985Z" fill="#2876b8" stroke="#2876b8" stroke-width="1.51"/><path d="M1471,1133L1492,1199L1593,1077Z" fill="#1c67ad" stroke="#1c67ad" stroke-width="1.51"/><path d="M1503,-126L1553,-23L1621,-122Z" fill="#92add7" stroke="#92add7" stroke-width="1.51"/><path d="M1570,332L1474,385L1625,428Z" fill="#6b9ccb" stroke="#6b9ccb" stroke-width="1.51"/><path d="M1474,385L1516,530L1625,428Z" fill="#6299ca" stroke="#6299ca" stroke-width="1.51"/><path d="M1515,1386L1560,1383L1563,1229Z" fill="#165598" stroke="#165598" stroke-width="1.51"/><path d="M1560,183L1437,214L1570,332Z" fill="#7ba3d1" stroke="#7ba3d1" stroke-width="1.51"/><path d="M1437,214L1470,347L1570,332Z" fill="#76a3d0" stroke="#76a3d0" stroke-width="1.51"/><path d="M1491,616L1578,731L1581,615Z" fill="#458ac3" stroke="#458ac3" stroke-width="1.51"/><path d="M1553,-23L1514,-13L1590,68Z" fill="#8baad5" stroke="#8baad5" stroke-width="1.51"/><path d="M1458,50L1560,183L1590,68Z" fill="#86a8d4" stroke="#86a8d4" stroke-width="1.51"/><path d="M1516,530L1581,615L1597,540Z" fill="#5190c5" stroke="#5190c5" stroke-width="1.51"/><path d="M1458,1012L1471,1133L1593,1077Z" fill="#206cb1" stroke="#206cb1" stroke-width="1.51"/><path d="M1516,530L1491,616L1581,615Z" fill="#4e90c6" stroke="#4e90c6" stroke-width="1.51"/><path d="M1514,-13L1458,50L1590,68Z" fill="#8aabd6" stroke="#8aabd6" stroke-width="1.51"/><path d="M1492,1199L1515,1386L1563,1229Z" fill="#185ca0" stroke="#185ca0" stroke-width="1.51"/><path d="M1491,616L1479,762L1578,731Z" fill="#4189c2" stroke="#4189c2" stroke-width="1.51"/><path d="M1470,347L1474,385L1570,332Z" fill="#6fa0ce" stroke="#6fa0ce" stroke-width="1.51"/><path d="M1503,-126L1514,-13L1553,-23Z" fill="#90aed8" stroke="#90aed8" stroke-width="1.51"/><path d="M1458,50L1437,214L1560,183Z" fill="#85a9d5" stroke="#85a9d5" stroke-width="1.51"/><path d="M1492,1199L1370,1266L1515,1386Z" fill="#1d5ea1" stroke="#1d5ea1" stroke-width="1.51"/><path d="M1395,61L1437,214L1458,50Z" fill="#89aed7" stroke="#89aed7" stroke-width="1.51"/><path d="M1387,891L1458,1012L1461,851Z" fill="#307dbc" stroke="#307dbc" stroke-width="1.51"/><path d="M1341,444L1394,543L1474,385Z" fill="#66a0ce" stroke="#66a0ce" stroke-width="1.51"/><path d="M1388,745L1479,762L1491,616Z" fill="#438cc4" stroke="#438cc4" stroke-width="1.51"/><path d="M1385,620L1388,745L1491,616Z" fill="#4a91c7" stroke="#4a91c7" stroke-width="1.51"/><path d="M1503,-126L1319,-3L1514,-13Z" fill="#92b3da" stroke="#92b3da" stroke-width="1.51"/><path d="M1319,-3L1458,50L1514,-13Z" fill="#8fb2d9" stroke="#8fb2d9" stroke-width="1.51"/><path d="M1370,1266L1354,1378L1515,1386Z" fill="#205b9a" stroke="#205b9a" stroke-width="1.51"/><path d="M1394,543L1491,616L1516,530Z" fill="#5495c9" stroke="#5495c9" stroke-width="1.51"/><path d="M1474,385L1394,543L1516,530Z" fill="#609bcb" stroke="#609bcb" stroke-width="1.51"/><path d="M657,1354L477,1356L801,1378Z" fill="#5e7daa" stroke="#5e7daa" stroke-width="1.51"/><path d="M1256,1339L1169,1332L1354,1378Z" fill="#29639e" stroke="#29639e" stroke-width="1.51"/><path d="M1387,891L1382,986L1458,1012Z" fill="#2d7bba" stroke="#2d7bba" stroke-width="1.51"/><path d="M1319,-3L1395,61L1458,50Z" fill="#8fb3da" stroke="#8fb3da" stroke-width="1.51"/><path d="M1320,-158L1319,-3L1503,-126Z" fill="#98b9dd" stroke="#98b9dd" stroke-width="1.51"/><path d="M1437,214L1364,332L1470,347Z" fill="#79a7d2" stroke="#79a7d2" stroke-width="1.51"/><path d="M1458,1012L1361,1136L1471,1133Z" fill="#256fb2" stroke="#256fb2" stroke-width="1.51"/><path d="M1394,543L1385,620L1491,616Z" fill="#5296c9" stroke="#5296c9" stroke-width="1.51"/><path d="M1471,1133L1361,1136L1492,1199Z" fill="#216aae" stroke="#216aae" stroke-width="1.51"/><path d="M1361,1136L1370,1266L1492,1199Z" fill="#2268ac" stroke="#2268ac" stroke-width="1.51"/><path d="M1388,745L1461,851L1479,762Z" fill="#3b87c1" stroke="#3b87c1" stroke-width="1.51"/><path d="M1382,986L1361,1136L1458,1012Z" fill="#2975b6" stroke="#2975b6" stroke-width="1.51"/><path d="M1470,347L1364,332L1474,385Z" fill="#72a4d0" stroke="#72a4d0" stroke-width="1.51"/><path d="M1364,332L1341,444L1474,385Z" fill="#70a5d0" stroke="#70a5d0" stroke-width="1.51"/><path d="M1395,61L1336,218L1437,214Z" fill="#87afd7" stroke="#87afd7" stroke-width="1.51"/><path d="M1388,745L1387,891L1461,851Z" fill="#3886c0" stroke="#3886c0" stroke-width="1.51"/><path d="M1336,218L1364,332L1437,214Z" fill="#7fabd5" stroke="#7fabd5" stroke-width="1.51"/><path d="M1361,1136L1278,1206L1370,1266Z" fill="#266cae" stroke="#266cae" stroke-width="1.51"/><path d="M1286,1032L1361,1136L1382,986Z" fill="#2c78b7" stroke="#2c78b7" stroke-width="1.51"/><path d="M1214,926L1382,986L1387,891Z" fill="#3482be" stroke="#3482be" stroke-width="1.51"/><path d="M1277,741L1214,926L1387,891Z" fill="#3d8bc3" stroke="#3d8bc3" stroke-width="1.51"/><path d="M1385,620L1288,686L1388,745Z" fill="#4a94c8" stroke="#4a94c8" stroke-width="1.51"/><path d="M1277,741L1387,891L1388,745Z" fill="#3e8cc4" stroke="#3e8cc4" stroke-width="1.51"/><path d="M1235,574L1385,620L1394,543Z" fill="#579ccc" stroke="#579ccc" stroke-width="1.51"/><path d="M1341,444L1235,574L1394,543Z" fill="#61a1ce" stroke="#61a1ce" stroke-width="1.51"/><path d="M1274,79L1336,218L1395,61Z" fill="#8cb3da" stroke="#8cb3da" stroke-width="1.51"/><path d="M1319,-3L1274,79L1395,61Z" fill="#91b6db" stroke="#91b6db" stroke-width="1.51"/><path d="M1256,1339L1354,1378L1370,1266Z" fill="#25619e" stroke="#25619e" stroke-width="1.51"/><path d="M1214,926L1286,1032L1382,986Z" fill="#3380bd" stroke="#3380bd" stroke-width="1.51"/><path d="M1288,686L1277,741L1388,745Z" fill="#4893c7" stroke="#4893c7" stroke-width="1.51"/><path d="M1264,415L1341,444L1364,332Z" fill="#72a9d2" stroke="#72a9d2" stroke-width="1.51"/><path d="M1235,574L1288,686L1385,620Z" fill="#539bcb" stroke="#539bcb" stroke-width="1.51"/><path d="M1286,1032L1273,1134L1361,1136Z" fill="#2c76b6" stroke="#2c76b6" stroke-width="1.51"/><path d="M1274,79L1252,207L1336,218Z" fill="#8bb4da" stroke="#8bb4da" stroke-width="1.51"/><path d="M1273,1134L1278,1206L1361,1136Z" fill="#2b71b2" stroke="#2b71b2" stroke-width="1.51"/><path d="M1336,218L1235,289L1364,332Z" fill="#7fafd6" stroke="#7fafd6" stroke-width="1.51"/><path d="M1278,1206L1256,1339L1370,1266Z" fill="#2868a7" stroke="#2868a7" stroke-width="1.51"/><path d="M1244,-160L1319,-3L1320,-158Z" fill="#9dbfdf" stroke="#9dbfdf" stroke-width="1.51"/><path d="M1235,289L1264,415L1364,332Z" fill="#79add5" stroke="#79add5" stroke-width="1.51"/><path d="M1264,415L1235,574L1341,444Z" fill="#68a6d1" stroke="#68a6d1" stroke-width="1.51"/><path d="M1244,-160L1207,-4L1319,-3Z" fill="#9abfdf" stroke="#9abfdf" stroke-width="1.51"/><path d="M1252,207L1235,289L1336,218Z" fill="#85b3d8" stroke="#85b3d8" stroke-width="1.51"/><path d="M1207,-4L1274,79L1319,-3Z" fill="#95bbde" stroke="#95bbde" stroke-width="1.51"/><path d="M1158,-36L1207,-4L1244,-160Z" fill="#9ec2e1" stroke="#9ec2e1" stroke-width="1.51"/><path d="M1097,525L1235,574L1264,415Z" fill="#69a9d2" stroke="#69a9d2" stroke-width="1.51"/><path d="M1117,162L1252,207L1274,79Z" fill="#8fb9dd" stroke="#8fb9dd" stroke-width="1.51"/><path d="M1136,734L1214,926L1277,741Z" fill="#4594c7" stroke="#4594c7" stroke-width="1.51"/><path d="M1169,1332L1256,1339L1278,1206Z" fill="#2c69a6" stroke="#2c69a6" stroke-width="1.51"/><path d="M1126,1238L1169,1332L1278,1206Z" fill="#316eab" stroke="#316eab" stroke-width="1.51"/><path d="M1164,1116L1273,1134L1286,1032Z" fill="#317ab8" stroke="#317ab8" stroke-width="1.51"/><path d="M1144,699L1277,741L1288,686Z" fill="#4d99ca" stroke="#4d99ca" stroke-width="1.51"/><path d="M1235,574L1144,699L1288,686Z" fill="#549dcc" stroke="#549dcc" stroke-width="1.51"/><path d="M1104,970L1164,1116L1214,926Z" fill="#3c85c0" stroke="#3c85c0" stroke-width="1.51"/><path d="M1214,926L1164,1116L1286,1032Z" fill="#3581bd" stroke="#3581bd" stroke-width="1.51"/><path d="M1114,62L1117,162L1274,79Z" fill="#95bedf" stroke="#95bedf" stroke-width="1.51"/><path d="M1273,1134L1164,1116L1278,1206Z" fill="#2f75b4" stroke="#2f75b4" stroke-width="1.51"/><path d="M1164,1116L1126,1238L1278,1206Z" fill="#3275b3" stroke="#3275b3" stroke-width="1.51"/><path d="M1144,699L1136,734L1277,741Z" fill="#509aca" stroke="#509aca" stroke-width="1.51"/><path d="M1136,734L1108,913L1214,926Z" fill="#4692c6" stroke="#4692c6" stroke-width="1.51"/><path d="M1089,415L1097,525L1264,415Z" fill="#73afd5" stroke="#73afd5" stroke-width="1.51"/><path d="M1235,289L1089,415L1264,415Z" fill="#7ab1d6" stroke="#7ab1d6" stroke-width="1.51"/><path d="M1207,-4L1114,62L1274,79Z" fill="#97bedf" stroke="#97bedf" stroke-width="1.51"/><path d="M1143,270L1089,415L1235,289Z" fill="#82b5d9" stroke="#82b5d9" stroke-width="1.51"/><path d="M1126,-148L1158,-36L1244,-160Z" fill="#a3c5e3" stroke="#a3c5e3" stroke-width="1.51"/><path d="M1143,270L1235,289L1252,207Z" fill="#87b5da" stroke="#87b5da" stroke-width="1.51"/><path d="M1117,162L1143,270L1252,207Z" fill="#8db9dc" stroke="#8db9dc" stroke-width="1.51"/><path d="M1097,525L1144,699L1235,574Z" fill="#5ea4d0" stroke="#5ea4d0" stroke-width="1.51"/><path d="M1058,874L1108,913L1136,734Z" fill="#4b95c9" stroke="#4b95c9" stroke-width="1.51"/><path d="M1108,913L1104,970L1214,926Z" fill="#428cc4" stroke="#428cc4" stroke-width="1.51"/><path d="M1158,-36L1114,62L1207,-4Z" fill="#9cc1e1" stroke="#9cc1e1" stroke-width="1.51"/><path d="M1042,537L1010,656L1097,525Z" fill="#69abd5" stroke="#69abd5" stroke-width="1.51"/><path d="M1097,525L1010,656L1144,699Z" fill="#61a6d1" stroke="#61a6d1" stroke-width="1.51"/><path d="M1126,-148L1057,-65L1158,-36Z" fill="#a4c7e4" stroke="#a4c7e4" stroke-width="1.51"/><path d="M1004,1137L1126,1238L1164,1116Z" fill="#3c7bb7" stroke="#3c7bb7" stroke-width="1.51"/><path d="M1104,970L1004,1137L1164,1116Z" fill="#3f82bd" stroke="#3f82bd" stroke-width="1.51"/><path d="M1126,1238L1002,1334L1169,1332Z" fill="#376fa8" stroke="#376fa8" stroke-width="1.51"/><path d="M1015,757L1058,874L1136,734Z" fill="#519bcb" stroke="#519bcb" stroke-width="1.51"/><path d="M993,321L1089,415L1143,270Z" fill="#86b9db" stroke="#86b9db" stroke-width="1.51"/><path d="M1117,162L1054,192L1143,270Z" fill="#92bdde" stroke="#92bdde" stroke-width="1.51"/><path d="M1057,-65L1114,62L1158,-36Z" fill="#a0c5e3" stroke="#a0c5e3" stroke-width="1.51"/><path d="M1018,1250L1002,1334L1126,1238Z" fill="#3c73ae" stroke="#3c73ae" stroke-width="1.51"/><path d="M986,987L1004,1137L1104,970Z" fill="#4589c1" stroke="#4589c1" stroke-width="1.51"/><path d="M1114,62L1029,115L1117,162Z" fill="#99c1e1" stroke="#99c1e1" stroke-width="1.51"/><path d="M1004,1137L1018,1250L1126,1238Z" fill="#3e79b6" stroke="#3e79b6" stroke-width="1.51"/><path d="M1010,656L1136,734L1144,699Z" fill="#59a0ce" stroke="#59a0ce" stroke-width="1.51"/><path d="M1054,192L993,321L1143,270Z" fill="#8ebdde" stroke="#8ebdde" stroke-width="1.51"/><path d="M1010,656L1015,757L1136,734Z" fill="#5aa1cf" stroke="#5aa1cf" stroke-width="1.51"/><path d="M1020,-155L1057,-65L1126,-148Z" fill="#a9cbe6" stroke="#a9cbe6" stroke-width="1.51"/><path d="M88,-172L292,-152L517,-188Z" fill="#e0ecf8" stroke="#e0ecf8" stroke-width="1.51"/><path d="M944,-18L1029,115L1057,-65Z" fill="#a3c9e5" stroke="#a3c9e5" stroke-width="1.51"/><path d="M993,321L1015,416L1089,415Z" fill="#83b9da" stroke="#83b9da" stroke-width="1.51"/><path d="M1015,416L1042,537L1089,415Z" fill="#79b3d8" stroke="#79b3d8" stroke-width="1.51"/><path d="M1089,415L1042,537L1097,525Z" fill="#72b0d6" stroke="#72b0d6" stroke-width="1.51"/><path d="M1057,-65L1029,115L1114,62Z" fill="#9fc5e3" stroke="#9fc5e3" stroke-width="1.51"/><path d="M1029,115L1054,192L1117,162Z" fill="#97c0e1" stroke="#97c0e1" stroke-width="1.51"/><path d="M1058,874L986,987L1104,970Z" fill="#488fc6" stroke="#488fc6" stroke-width="1.51"/><path d="M1058,874L1104,970L1108,913Z" fill="#4790c6" stroke="#4790c6" stroke-width="1.51"/><path d="M903,1310L801,1378L1002,1334Z" fill="#4774a8" stroke="#4774a8" stroke-width="1.51"/><path d="M944,-18L930,85L1029,115Z" fill="#a3c9e5" stroke="#a3c9e5" stroke-width="1.51"/><path d="M1015,416L928,436L1042,537Z" fill="#7bb6d9" stroke="#7bb6d9" stroke-width="1.51"/><path d="M935,300L993,321L1054,192Z" fill="#92c0df" stroke="#92c0df" stroke-width="1.51"/><path d="M890,231L935,300L1054,192Z" fill="#97c2e1" stroke="#97c2e1" stroke-width="1.51"/><path d="M1020,-155L944,-18L1057,-65Z" fill="#aacce7" stroke="#aacce7" stroke-width="1.51"/><path d="M1015,757L887,904L1058,874Z" fill="#539bcb" stroke="#539bcb" stroke-width="1.51"/><path d="M887,904L986,987L1058,874Z" fill="#4f95c9" stroke="#4f95c9" stroke-width="1.51"/><path d="M986,987L920,1012L1004,1137Z" fill="#4a8bc3" stroke="#4a8bc3" stroke-width="1.51"/><path d="M888,570L1010,656L1042,537Z" fill="#6baed6" stroke="#6baed6" stroke-width="1.51"/><path d="M1029,115L890,231L1054,192Z" fill="#9ac3e2" stroke="#9ac3e2" stroke-width="1.51"/><path d="M888,570L909,640L1010,656Z" fill="#6cadd5" stroke="#6cadd5" stroke-width="1.51"/><path d="M930,85L890,231L1029,115Z" fill="#9fc7e4" stroke="#9fc7e4" stroke-width="1.51"/><path d="M928,436L888,570L1042,537Z" fill="#77b4d9" stroke="#77b4d9" stroke-width="1.51"/><path d="M920,1012L890,1099L1004,1137Z" fill="#4b89c1" stroke="#4b89c1" stroke-width="1.51"/><path d="M1010,656L879,729L1015,757Z" fill="#60a5d1" stroke="#60a5d1" stroke-width="1.51"/><path d="M879,729L887,904L1015,757Z" fill="#5ba2ce" stroke="#5ba2ce" stroke-width="1.51"/><path d="M1004,1137L882,1213L1018,1250Z" fill="#447eb9" stroke="#447eb9" stroke-width="1.51"/><path d="M899,-180L944,-18L1020,-155Z" fill="#afd1e9" stroke="#afd1e9" stroke-width="1.51"/><path d="M909,640L879,729L1010,656Z" fill="#67aad4" stroke="#67aad4" stroke-width="1.51"/><path d="M993,321L928,436L1015,416Z" fill="#86bbdc" stroke="#86bbdc" stroke-width="1.51"/><path d="M903,1310L1002,1334L1018,1250Z" fill="#4175ac" stroke="#4175ac" stroke-width="1.51"/><path d="M882,1213L903,1310L1018,1250Z" fill="#467ab3" stroke="#467ab3" stroke-width="1.51"/><path d="M935,300L928,436L993,321Z" fill="#8bbedd" stroke="#8bbedd" stroke-width="1.51"/><path d="M517,-188L788,-123L899,-180Z" fill="#c4deee" stroke="#c4deee" stroke-width="1.51"/><path d="M890,1099L882,1213L1004,1137Z" fill="#4b84bd" stroke="#4b84bd" stroke-width="1.51"/><path d="M879,729L826,860L887,904Z" fill="#60a2cf" stroke="#60a2cf" stroke-width="1.51"/><path d="M887,904L920,1012L986,987Z" fill="#5193c8" stroke="#5193c8" stroke-width="1.51"/><path d="M517,-188L646,-114L788,-123Z" fill="#c9e0ef" stroke="#c9e0ef" stroke-width="1.51"/><path d="M824,412L888,570L928,436Z" fill="#83bbdb" stroke="#83bbdb" stroke-width="1.51"/><path d="M806,204L890,231L930,85Z" fill="#a3c9e4" stroke="#a3c9e4" stroke-width="1.51"/><path d="M824,412L928,436L935,300Z" fill="#8dbfdd" stroke="#8dbfdd" stroke-width="1.51"/><path d="M899,-180L788,-123L944,-18Z" fill="#b5d4ea" stroke="#b5d4ea" stroke-width="1.51"/><path d="M788,-123L788,-6L944,-18Z" fill="#b4d4ea" stroke="#b4d4ea" stroke-width="1.51"/><path d="M794,44L930,85L944,-18Z" fill="#aacee7" stroke="#aacee7" stroke-width="1.51"/><path d="M788,-6L794,44L944,-18Z" fill="#b1d1e9" stroke="#b1d1e9" stroke-width="1.51"/><path d="M794,44L806,204L930,85Z" fill="#aacde6" stroke="#aacde6" stroke-width="1.51"/><path d="M890,231L788,288L935,300Z" fill="#9ac6e2" stroke="#9ac6e2" stroke-width="1.51"/><path d="M788,288L824,412L935,300Z" fill="#96c4e0" stroke="#96c4e0" stroke-width="1.51"/><path d="M887,904L783,977L920,1012Z" fill="#5896c9" stroke="#5896c9" stroke-width="1.51"/><path d="M824,412L765,546L888,570Z" fill="#84bbdb" stroke="#84bbdb" stroke-width="1.51"/><path d="M801,1129L882,1213L890,1099Z" fill="#5287be" stroke="#5287be" stroke-width="1.51"/><path d="M783,977L890,1099L920,1012Z" fill="#5591c6" stroke="#5591c6" stroke-width="1.51"/><path d="M882,1213L797,1197L903,1310Z" fill="#4f7fb6" stroke="#4f7fb6" stroke-width="1.51"/><path d="M888,570L746,695L909,640Z" fill="#72b1d7" stroke="#72b1d7" stroke-width="1.51"/><path d="M746,695L879,729L909,640Z" fill="#6eadd5" stroke="#6eadd5" stroke-width="1.51"/><path d="M801,1129L797,1197L882,1213Z" fill="#5486bd" stroke="#5486bd" stroke-width="1.51"/><path d="M765,546L746,695L888,570Z" fill="#7ab5d9" stroke="#7ab5d9" stroke-width="1.51"/><path d="M783,977L801,1129L890,1099Z" fill="#588fc4" stroke="#588fc4" stroke-width="1.51"/><path d="M797,1197L801,1378L903,1310Z" fill="#507baf" stroke="#507baf" stroke-width="1.51"/><path d="M761,740L826,860L879,729Z" fill="#69a8d2" stroke="#69a8d2" stroke-width="1.51"/><path d="M826,860L783,977L887,904Z" fill="#5f9ccc" stroke="#5f9ccc" stroke-width="1.51"/><path d="M806,204L788,288L890,231Z" fill="#a2c9e3" stroke="#a2c9e3" stroke-width="1.51"/><path d="M746,695L761,740L879,729Z" fill="#70add4" stroke="#70add4" stroke-width="1.51"/><path d="M585,1340L477,1356L657,1354Z" fill="#6480ae" stroke="#6480ae" stroke-width="1.51"/><path d="M672,1192L657,1354L797,1197Z" fill="#5d85b8" stroke="#5d85b8" stroke-width="1.51"/><path d="M797,1197L657,1354L801,1378Z" fill="#577daf" stroke="#577daf" stroke-width="1.51"/><path d="M783,977L685,1088L801,1129Z" fill="#5f93c6" stroke="#5f93c6" stroke-width="1.51"/><path d="M794,44L652,111L806,204Z" fill="#b1d1e8" stroke="#b1d1e8" stroke-width="1.51"/><path d="M634,442L765,546L824,412Z" fill="#91c1de" stroke="#91c1de" stroke-width="1.51"/><path d="M788,288L699,287L824,412Z" fill="#9dc8e2" stroke="#9dc8e2" stroke-width="1.51"/><path d="M699,287L634,442L824,412Z" fill="#9cc8e1" stroke="#9cc8e1" stroke-width="1.51"/><path d="M680,906L783,977L826,860Z" fill="#659fcd" stroke="#659fcd" stroke-width="1.51"/><path d="M761,740L680,906L826,860Z" fill="#6ba7d1" stroke="#6ba7d1" stroke-width="1.51"/><path d="M678,737L680,906L761,740Z" fill="#72add4" stroke="#72add4" stroke-width="1.51"/><path d="M666,-9L788,-6L788,-123Z" fill="#bbd8eb" stroke="#bbd8eb" stroke-width="1.51"/><path d="M672,1192L797,1197L801,1129Z" fill="#5b8abf" stroke="#5b8abf" stroke-width="1.51"/><path d="M699,287L788,288L806,204Z" fill="#a5cbe4" stroke="#a5cbe4" stroke-width="1.51"/><path d="M652,231L699,287L806,204Z" fill="#aacee5" stroke="#aacee5" stroke-width="1.51"/><path d="M652,111L652,231L806,204Z" fill="#b1d1e8" stroke="#b1d1e8" stroke-width="1.51"/><path d="M646,-114L666,-9L788,-123Z" fill="#c1dced" stroke="#c1dced" stroke-width="1.51"/><path d="M685,1088L672,1192L801,1129Z" fill="#608fc1" stroke="#608fc1" stroke-width="1.51"/><path d="M669,689L746,695L765,546Z" fill="#7db6d9" stroke="#7db6d9" stroke-width="1.51"/><path d="M634,442L634,513L765,546Z" fill="#91c2de" stroke="#91c2de" stroke-width="1.51"/><path d="M650,1000L685,1088L783,977Z" fill="#6599ca" stroke="#6599ca" stroke-width="1.51"/><path d="M788,-6L666,-9L794,44Z" fill="#b7d6ea" stroke="#b7d6ea" stroke-width="1.51"/><path d="M666,-9L652,111L794,44Z" fill="#b9d7ea" stroke="#b9d7ea" stroke-width="1.51"/><path d="M680,906L650,1000L783,977Z" fill="#699ecd" stroke="#699ecd" stroke-width="1.51"/><path d="M634,513L669,689L765,546Z" fill="#86bcdc" stroke="#86bcdc" stroke-width="1.51"/><path d="M746,695L678,737L761,740Z" fill="#76b0d6" stroke="#76b0d6" stroke-width="1.51"/><path d="M337,1324L97,1379L477,1356Z" fill="#7487b3" stroke="#7487b3" stroke-width="1.51"/><path d="M669,689L678,737L746,695Z" fill="#7ab3d7" stroke="#7ab3d7" stroke-width="1.51"/><path d="M582,1218L585,1340L657,1354Z" fill="#6383b3" stroke="#6383b3" stroke-width="1.51"/><path d="M634,513L540,656L669,689Z" fill="#88bcdc" stroke="#88bcdc" stroke-width="1.51"/><path d="M582,1218L657,1354L672,1192Z" fill="#6387b9" stroke="#6387b9" stroke-width="1.51"/><path d="M531,763L566,886L678,737Z" fill="#7bb0d6" stroke="#7bb0d6" stroke-width="1.51"/><path d="M678,737L566,886L680,906Z" fill="#74abd3" stroke="#74abd3" stroke-width="1.51"/><path d="M567,1099L672,1192L685,1088Z" fill="#6792c5" stroke="#6792c5" stroke-width="1.51"/><path d="M652,231L536,304L699,287Z" fill="#aed1e6" stroke="#aed1e6" stroke-width="1.51"/><path d="M536,304L634,442L699,287Z" fill="#a7cee4" stroke="#a7cee4" stroke-width="1.51"/><path d="M646,-114L579,-38L666,-9Z" fill="#c4ddee" stroke="#c4ddee" stroke-width="1.51"/><path d="M552,46L652,111L666,-9Z" fill="#bfdaec" stroke="#bfdaec" stroke-width="1.51"/><path d="M566,886L650,1000L680,906Z" fill="#71a3cf" stroke="#71a3cf" stroke-width="1.51"/><path d="M650,1000L567,1099L685,1088Z" fill="#6a98c9" stroke="#6a98c9" stroke-width="1.51"/><path d="M531,202L652,231L652,111Z" fill="#b8d5ea" stroke="#b8d5ea" stroke-width="1.51"/><path d="M567,1099L582,1218L672,1192Z" fill="#688fc2" stroke="#688fc2" stroke-width="1.51"/><path d="M669,689L531,763L678,737Z" fill="#7eb4d8" stroke="#7eb4d8" stroke-width="1.51"/><path d="M521,534L540,656L634,513Z" fill="#92c1df" stroke="#92c1df" stroke-width="1.51"/><path d="M540,656L531,763L669,689Z" fill="#84b7da" stroke="#84b7da" stroke-width="1.51"/><path d="M566,886L533,975L650,1000Z" fill="#73a3cf" stroke="#73a3cf" stroke-width="1.51"/><path d="M579,-38L552,46L666,-9Z" fill="#c3dcee" stroke="#c3dcee" stroke-width="1.51"/><path d="M584,461L634,513L634,442Z" fill="#99c6e1" stroke="#99c6e1" stroke-width="1.51"/><path d="M536,304L584,461L634,442Z" fill="#a4cce3" stroke="#a4cce3" stroke-width="1.51"/><path d="M241,1325L97,1379L337,1324Z" fill="#788ab5" stroke="#788ab5" stroke-width="1.51"/><path d="M533,975L567,1099L650,1000Z" fill="#709ccc" stroke="#709ccc" stroke-width="1.51"/><path d="M531,202L536,304L652,231Z" fill="#b5d4e9" stroke="#b5d4e9" stroke-width="1.51"/><path d="M552,46L531,202L652,111Z" fill="#bdd8ec" stroke="#bdd8ec" stroke-width="1.51"/><path d="M517,-188L579,-38L646,-114Z" fill="#cce1f0" stroke="#cce1f0" stroke-width="1.51"/><path d="M584,461L521,534L634,513Z" fill="#98c5e1" stroke="#98c5e1" stroke-width="1.51"/><path d="M292,-152L449,-153L517,-188Z" fill="#dae8f5" stroke="#dae8f5" stroke-width="1.51"/><path d="M449,-153L460,-56L517,-188Z" fill="#d4e5f4" stroke="#d4e5f4" stroke-width="1.51"/><path d="M482,173L531,202L552,46Z" fill="#c0d9ec" stroke="#c0d9ec" stroke-width="1.51"/><path d="M517,-188L460,-56L579,-38Z" fill="#cfe2f1" stroke="#cfe2f1" stroke-width="1.51"/><path d="M422,1250L477,1356L582,1218Z" fill="#6d89b9" stroke="#6d89b9" stroke-width="1.51"/><path d="M567,1099L447,1134L582,1218Z" fill="#6f93c5" stroke="#6f93c5" stroke-width="1.51"/><path d="M536,304L438,337L584,461Z" fill="#acd0e5" stroke="#acd0e5" stroke-width="1.51"/><path d="M438,337L444,468L584,461Z" fill="#a8cee5" stroke="#a8cee5" stroke-width="1.51"/><path d="M582,1218L477,1356L585,1340Z" fill="#6885b4" stroke="#6885b4" stroke-width="1.51"/><path d="M531,763L451,885L566,886Z" fill="#7eaed6" stroke="#7eaed6" stroke-width="1.51"/><path d="M444,468L521,534L584,461Z" fill="#9fc8e2" stroke="#9fc8e2" stroke-width="1.51"/><path d="M444,468L460,509L521,534Z" fill="#a0c8e3" stroke="#a0c8e3" stroke-width="1.51"/><path d="M460,-56L552,46L579,-38Z" fill="#c9dfef" stroke="#c9dfef" stroke-width="1.51"/><path d="M447,1134L422,1250L582,1218Z" fill="#7190c3" stroke="#7190c3" stroke-width="1.51"/><path d="M521,534L485,651L540,656Z" fill="#90bfdf" stroke="#90bfdf" stroke-width="1.51"/><path d="M533,975L447,1134L567,1099Z" fill="#739acb" stroke="#739acb" stroke-width="1.51"/><path d="M427,969L447,1134L533,975Z" fill="#79a0cf" stroke="#79a0cf" stroke-width="1.51"/><path d="M485,651L531,763L540,656Z" fill="#8abadc" stroke="#8abadc" stroke-width="1.51"/><path d="M451,885L533,975L566,886Z" fill="#7aa8d3" stroke="#7aa8d3" stroke-width="1.51"/><path d="M423,772L451,885L531,763Z" fill="#84b3d9" stroke="#84b3d9" stroke-width="1.51"/><path d="M408,121L482,173L552,46Z" fill="#c5dbee" stroke="#c5dbee" stroke-width="1.51"/><path d="M460,-56L408,121L552,46Z" fill="#cadff0" stroke="#cadff0" stroke-width="1.51"/><path d="M485,651L423,772L531,763Z" fill="#89b8db" stroke="#89b8db" stroke-width="1.51"/><path d="M451,885L427,969L533,975Z" fill="#7ca7d3" stroke="#7ca7d3" stroke-width="1.51"/><path d="M531,202L482,173L536,304Z" fill="#bad6eb" stroke="#bad6eb" stroke-width="1.51"/><path d="M482,173L438,337L536,304Z" fill="#b8d5ea" stroke="#b8d5ea" stroke-width="1.51"/><path d="M460,509L485,651L521,534Z" fill="#98c4e1" stroke="#98c4e1" stroke-width="1.51"/><path d="M427,969L354,1041L447,1134Z" fill="#7ca0cf" stroke="#7ca0cf" stroke-width="1.51"/><path d="M358,512L342,632L460,509Z" fill="#a1c8e4" stroke="#a1c8e4" stroke-width="1.51"/><path d="M352,120L408,121L460,-56Z" fill="#cde0f1" stroke="#cde0f1" stroke-width="1.51"/><path d="M408,121L324,219L482,173Z" fill="#c6dbef" stroke="#c6dbef" stroke-width="1.51"/><path d="M362,314L438,337L482,173Z" fill="#bcd6eb" stroke="#bcd6eb" stroke-width="1.51"/><path d="M324,219L362,314L482,173Z" fill="#c2d9ed" stroke="#c2d9ed" stroke-width="1.51"/><path d="M460,509L342,632L485,651Z" fill="#98c3e2" stroke="#98c3e2" stroke-width="1.51"/><path d="M342,632L423,772L485,651Z" fill="#92bdde" stroke="#92bdde" stroke-width="1.51"/><path d="M307,-76L352,120L460,-56Z" fill="#d3e3f3" stroke="#d3e3f3" stroke-width="1.51"/><path d="M422,1250L337,1324L477,1356Z" fill="#7188b7" stroke="#7188b7" stroke-width="1.51"/><path d="M438,337L339,431L444,468Z" fill="#afd1e7" stroke="#afd1e7" stroke-width="1.51"/><path d="M360,1261L337,1324L422,1250Z" fill="#758cbb" stroke="#758cbb" stroke-width="1.51"/><path d="M368,1143L422,1250L447,1134Z" fill="#7794c6" stroke="#7794c6" stroke-width="1.51"/><path d="M354,1041L368,1143L447,1134Z" fill="#7b9bcb" stroke="#7b9bcb" stroke-width="1.51"/><path d="M423,772L346,860L451,885Z" fill="#87b2d9" stroke="#87b2d9" stroke-width="1.51"/><path d="M444,468L358,512L460,509Z" fill="#a4cae4" stroke="#a4cae4" stroke-width="1.51"/><path d="M449,-153L307,-76L460,-56Z" fill="#d6e6f5" stroke="#d6e6f5" stroke-width="1.51"/><path d="M342,632L327,773L423,772Z" fill="#92bbde" stroke="#92bbde" stroke-width="1.51"/><path d="M362,314L339,431L438,337Z" fill="#b6d4e9" stroke="#b6d4e9" stroke-width="1.51"/><path d="M292,-152L307,-76L449,-153Z" fill="#dbe9f6" stroke="#dbe9f6" stroke-width="1.51"/><path d="M346,860L427,969L451,885Z" fill="#83acd6" stroke="#83acd6" stroke-width="1.51"/><path d="M352,120L324,219L408,121Z" fill="#caddf1" stroke="#caddf1" stroke-width="1.51"/><path d="M339,431L358,512L444,468Z" fill="#aacde6" stroke="#aacde6" stroke-width="1.51"/><path d="M368,1143L360,1261L422,1250Z" fill="#7791c3" stroke="#7791c3" stroke-width="1.51"/><path d="M327,773L346,860L423,772Z" fill="#8bb6db" stroke="#8bb6db" stroke-width="1.51"/><path d="M346,860L354,1041L427,969Z" fill="#82a8d4" stroke="#82a8d4" stroke-width="1.51"/><path d="M346,860L247,1000L354,1041Z" fill="#85a9d5" stroke="#85a9d5" stroke-width="1.51"/><path d="M194,-14L213,93L307,-76Z" fill="#d8e7f5" stroke="#d8e7f5" stroke-width="1.51"/><path d="M238,619L327,773L342,632Z" fill="#99c1e1" stroke="#99c1e1" stroke-width="1.51"/><path d="M307,-76L213,93L352,120Z" fill="#d3e3f4" stroke="#d3e3f4" stroke-width="1.51"/><path d="M238,619L342,632L358,512Z" fill="#9fc7e4" stroke="#9fc7e4" stroke-width="1.51"/><path d="M242,342L339,431L362,314Z" fill="#b9d6ea" stroke="#b9d6ea" stroke-width="1.51"/><path d="M354,1041L201,1132L368,1143Z" fill="#7f9dcc" stroke="#7f9dcc" stroke-width="1.51"/><path d="M201,1132L240,1220L368,1143Z" fill="#7f99c9" stroke="#7f99c9" stroke-width="1.51"/><path d="M240,1220L360,1261L368,1143Z" fill="#7a93c6" stroke="#7a93c6" stroke-width="1.51"/><path d="M199,876L247,1000L346,860Z" fill="#8ab0d8" stroke="#8ab0d8" stroke-width="1.51"/><path d="M247,1000L201,1132L354,1041Z" fill="#83a3d0" stroke="#83a3d0" stroke-width="1.51"/><path d="M197,564L238,619L358,512Z" fill="#a4cae5" stroke="#a4cae5" stroke-width="1.51"/><path d="M324,219L242,342L362,314Z" fill="#c0d9ec" stroke="#c0d9ec" stroke-width="1.51"/><path d="M339,431L197,564L358,512Z" fill="#aacde6" stroke="#aacde6" stroke-width="1.51"/><path d="M240,1220L337,1324L360,1261Z" fill="#788ebe" stroke="#788ebe" stroke-width="1.51"/><path d="M240,1220L241,1325L337,1324Z" fill="#798dbc" stroke="#798dbc" stroke-width="1.51"/><path d="M213,93L324,219L352,120Z" fill="#cddff1" stroke="#cddff1" stroke-width="1.51"/><path d="M238,619L241,795L327,773Z" fill="#96bedf" stroke="#96bedf" stroke-width="1.51"/><path d="M327,773L241,795L346,860Z" fill="#8eb7db" stroke="#8eb7db" stroke-width="1.51"/><path d="M88,-172L247,-129L292,-152Z" fill="#e3eef9" stroke="#e3eef9" stroke-width="1.51"/><path d="M214,393L197,564L339,431Z" fill="#b1d1e8" stroke="#b1d1e8" stroke-width="1.51"/><path d="M242,342L214,393L339,431Z" fill="#b8d6ea" stroke="#b8d6ea" stroke-width="1.51"/><path d="M241,795L199,876L346,860Z" fill="#8db5da" stroke="#8db5da" stroke-width="1.51"/><path d="M213,93L178,187L324,219Z" fill="#cee0f2" stroke="#cee0f2" stroke-width="1.51"/><path d="M178,187L242,342L324,219Z" fill="#c7ddef" stroke="#c7ddef" stroke-width="1.51"/><path d="M292,-152L247,-129L307,-76Z" fill="#deeaf7" stroke="#deeaf7" stroke-width="1.51"/><path d="M-162,-136L23,-147L88,-172Z" fill="#ecf4fc" stroke="#ecf4fc" stroke-width="1.51"/><path d="M247,-129L194,-14L307,-76Z" fill="#dce9f7" stroke="#dce9f7" stroke-width="1.51"/><path d="M129,915L136,974L199,876Z" fill="#8eb1d9" stroke="#8eb1d9" stroke-width="1.51"/><path d="M136,974L102,1110L201,1132Z" fill="#87a4d1" stroke="#87a4d1" stroke-width="1.51"/><path d="M55,470L197,564L214,393Z" fill="#b3d3e9" stroke="#b3d3e9" stroke-width="1.51"/><path d="M240,1220L127,1249L241,1325Z" fill="#7d92c0" stroke="#7d92c0" stroke-width="1.51"/><path d="M238,619L125,626L241,795Z" fill="#9cc3e2" stroke="#9cc3e2" stroke-width="1.51"/><path d="M125,626L64,746L241,795Z" fill="#9bc2e1" stroke="#9bc2e1" stroke-width="1.51"/><path d="M178,187L128,235L242,342Z" fill="#c9def0" stroke="#c9def0" stroke-width="1.51"/><path d="M128,235L105,271L242,342Z" fill="#c7deef" stroke="#c7deef" stroke-width="1.51"/><path d="M136,974L201,1132L247,1000Z" fill="#87a7d3" stroke="#87a7d3" stroke-width="1.51"/><path d="M199,876L136,974L247,1000Z" fill="#8baed7" stroke="#8baed7" stroke-width="1.51"/><path d="M129,-50L194,-14L247,-129Z" fill="#deebf7" stroke="#deebf7" stroke-width="1.51"/><path d="M88,-172L129,-50L247,-129Z" fill="#e3eef8" stroke="#e3eef8" stroke-width="1.51"/><path d="M201,1132L127,1249L240,1220Z" fill="#8098c8" stroke="#8098c8" stroke-width="1.51"/><path d="M105,271L214,393L242,342Z" fill="#c1daed" stroke="#c1daed" stroke-width="1.51"/><path d="M127,1249L97,1379L241,1325Z" fill="#7c8eba" stroke="#7c8eba" stroke-width="1.51"/><path d="M64,746L199,876L241,795Z" fill="#94bbde" stroke="#94bbde" stroke-width="1.51"/><path d="M197,564L125,626L238,619Z" fill="#a3cae6" stroke="#a3cae6" stroke-width="1.51"/><path d="M55,470L75,578L197,564Z" fill="#aed0e8" stroke="#aed0e8" stroke-width="1.51"/><path d="M64,746L129,915L199,876Z" fill="#93b9dc" stroke="#93b9dc" stroke-width="1.51"/><path d="M102,1110L127,1249L201,1132Z" fill="#849ccb" stroke="#849ccb" stroke-width="1.51"/><path d="M194,-14L128,110L213,93Z" fill="#d7e6f4" stroke="#d7e6f4" stroke-width="1.51"/><path d="M128,110L178,187L213,93Z" fill="#d3e3f4" stroke="#d3e3f4" stroke-width="1.51"/><path d="M105,271L55,470L214,393Z" fill="#bfdaec" stroke="#bfdaec" stroke-width="1.51"/><path d="M129,-50L128,110L194,-14Z" fill="#dbe8f6" stroke="#dbe8f6" stroke-width="1.51"/><path d="M75,578L125,626L197,564Z" fill="#a7cce7" stroke="#a7cce7" stroke-width="1.51"/><path d="M128,110L128,235L178,187Z" fill="#d1e2f3" stroke="#d1e2f3" stroke-width="1.51"/><path d="M-2,1210L-53,1336L97,1379Z" fill="#8393bd" stroke="#8393bd" stroke-width="1.51"/><path d="M2,992L8,1098L102,1110Z" fill="#8da8d3" stroke="#8da8d3" stroke-width="1.51"/><path d="M-36,400L55,470L105,271Z" fill="#c3dded" stroke="#c3dded" stroke-width="1.51"/><path d="M-46,328L-36,400L105,271Z" fill="#c9e0f0" stroke="#c9e0f0" stroke-width="1.51"/><path d="M102,1110L-2,1210L127,1249Z" fill="#869bcb" stroke="#869bcb" stroke-width="1.51"/><path d="M-2,1210L97,1379L127,1249Z" fill="#8293c0" stroke="#8293c0" stroke-width="1.51"/><path d="M-35,-13L-55,65L128,110Z" fill="#deebf7" stroke="#deebf7" stroke-width="1.51"/><path d="M4,168L128,235L128,110Z" fill="#d4e4f4" stroke="#d4e4f4" stroke-width="1.51"/><path d="M64,746L-41,893L129,915Z" fill="#97bbdd" stroke="#97bbdd" stroke-width="1.51"/><path d="M88,-172L23,-147L129,-50Z" fill="#e7f0f9" stroke="#e7f0f9" stroke-width="1.51"/><path d="M-35,-13L128,110L129,-50Z" fill="#deeaf7" stroke="#deeaf7" stroke-width="1.51"/><path d="M129,915L2,992L136,974Z" fill="#8fafd8" stroke="#8fafd8" stroke-width="1.51"/><path d="M2,992L102,1110L136,974Z" fill="#8daad5" stroke="#8daad5" stroke-width="1.51"/><path d="M75,578L64,746L125,626Z" fill="#a4c9e5" stroke="#a4c9e5" stroke-width="1.51"/><path d="M4,168L105,271L128,235Z" fill="#d1e2f2" stroke="#d1e2f2" stroke-width="1.51"/><path d="M-55,65L4,168L128,110Z" fill="#dae8f6" stroke="#dae8f6" stroke-width="1.51"/><path d="M-41,893L2,992L129,915Z" fill="#93b4da" stroke="#93b4da" stroke-width="1.51"/><path d="M23,-147L-35,-13L129,-50Z" fill="#e5effa" stroke="#e5effa" stroke-width="1.51"/><path d="M-4,740L64,746L75,578Z" fill="#a3c7e4" stroke="#a3c7e4" stroke-width="1.51"/><path d="M-4,740L-41,893L64,746Z" fill="#9cc0e1" stroke="#9cc0e1" stroke-width="1.51"/><path d="M-57,648L-4,740L75,578Z" fill="#a7cae6" stroke="#a7cae6" stroke-width="1.51"/><path d="M55,470L10,520L75,578Z" fill="#b3d3e9" stroke="#b3d3e9" stroke-width="1.51"/><path d="M8,1098L-2,1210L102,1110Z" fill="#8aa1ce" stroke="#8aa1ce" stroke-width="1.51"/><path d="M4,168L-46,328L105,271Z" fill="#d0e2f2" stroke="#d0e2f2" stroke-width="1.51"/><path d="M10,520L-57,648L75,578Z" fill="#aed0e8" stroke="#aed0e8" stroke-width="1.51"/><path d="M-36,400L10,520L55,470Z" fill="#bcd8eb" stroke="#bcd8eb" stroke-width="1.51"/><path d="M-128,215L-121,285L-46,328Z" fill="#d3e5f3" stroke="#d3e5f3" stroke-width="1.51"/><path d="M-115,801L-41,893L-4,740Z" fill="#9ec0e0" stroke="#9ec0e0" stroke-width="1.51"/><path d="M-103,1253L-53,1336L-2,1210Z" fill="#8897c3" stroke="#8897c3" stroke-width="1.51"/><path d="M-128,215L-46,328L4,168Z" fill="#d5e6f4" stroke="#d5e6f4" stroke-width="1.51"/><path d="M-92,1148L-2,1210L8,1098Z" fill="#8ca2ce" stroke="#8ca2ce" stroke-width="1.51"/><path d="M-96,579L-57,648L10,520Z" fill="#b0d1e9" stroke="#b0d1e9" stroke-width="1.51"/><path d="M-36,400L-104,439L10,520Z" fill="#bedaec" stroke="#bedaec" stroke-width="1.51"/><path d="M-162,-136L-96,-72L23,-147Z" fill="#edf4fc" stroke="#edf4fc" stroke-width="1.51"/><path d="M-96,-72L-35,-13L23,-147Z" fill="#e9f2fa" stroke="#e9f2fa" stroke-width="1.51"/><path d="M2,992L-154,1026L8,1098Z" fill="#92acd6" stroke="#92acd6" stroke-width="1.51"/><path d="M-154,1026L-92,1148L8,1098Z" fill="#91a9d3" stroke="#91a9d3" stroke-width="1.51"/><path d="M-104,439L-96,579L10,520Z" fill="#b9d7eb" stroke="#b9d7eb" stroke-width="1.51"/><path d="M-55,65L-117,80L4,168Z" fill="#deebf7" stroke="#deebf7" stroke-width="1.51"/><path d="M-41,893L-154,1026L2,992Z" fill="#96b3da" stroke="#96b3da" stroke-width="1.51"/><path d="M-117,80L-128,215L4,168Z" fill="#dce9f7" stroke="#dce9f7" stroke-width="1.51"/><path d="M-116,886L-154,1026L-41,893Z" fill="#9ab7dc" stroke="#9ab7dc" stroke-width="1.51"/><path d="M-92,1148L-103,1253L-2,1210Z" fill="#8c9ecc" stroke="#8c9ecc" stroke-width="1.51"/><path d="M-57,648L-115,801L-4,740Z" fill="#a5c7e4" stroke="#a5c7e4" stroke-width="1.51"/><path d="M-131,656L-115,801L-57,648Z" fill="#a8cae6" stroke="#a8cae6" stroke-width="1.51"/><path d="M-115,801L-116,886L-41,893Z" fill="#9dbddf" stroke="#9dbddf" stroke-width="1.51"/><path d="M-46,328L-104,439L-36,400Z" fill="#c7dfee" stroke="#c7dfee" stroke-width="1.51"/><path d="M-117,80L-55,65L-35,-13Z" fill="#e3edf9" stroke="#e3edf9" stroke-width="1.51"/><path d="M-96,-72L-117,80L-35,-13Z" fill="#e6f0fa" stroke="#e6f0fa" stroke-width="1.51"/><path d="M-121,285L-104,439L-46,328Z" fill="#cbe1f0" stroke="#cbe1f0" stroke-width="1.51"/><path d="M-96,579L-131,656L-57,648Z" fill="#aecfe8" stroke="#aecfe8" stroke-width="1.51"/><path d="M-103,1253L-160,1307L-53,1336Z" fill="#8996c0" stroke="#8996c0" stroke-width="1.51"/><path d="M-104,439L-131,656L-96,579Z" fill="#b6d5eb" stroke="#b6d5eb" stroke-width="1.51"/><path d="M-162,-136L-117,80L-96,-72Z" fill="#eaf2fb" stroke="#eaf2fb" stroke-width="1.51"/><path d="M-160,1307L-103,1253L-92,1148Z" fill="#8d9dc8" stroke="#8d9dc8" stroke-width="1.51"/><path d="M-154,1026L-160,1307L-92,1148Z" fill="#91a4cf" stroke="#91a4cf" stroke-width="1.51"/><path d="M-121,285L-131,656L-104,439Z" fill="#c1dced" stroke="#c1dced" stroke-width="1.51"/><path d="M-154,1026L-116,886L-115,801Z" fill="#9cbadd" stroke="#9cbadd" stroke-width="1.51"/><path d="M-131,656L-154,1026L-115,801Z" fill="#a0c2e1" stroke="#a0c2e1" stroke-width="1.51"/><path d="M-128,215L-131,656L-121,285Z" fill="#cae1ef" stroke="#cae1ef" stroke-width="1.51"/><path d="M-162,-136L-128,215L-117,80Z" fill="#e5eff9" stroke="#e5eff9" stroke-width="1.51"/><path d="M-162,-136L-131,656L-128,215Z" fill="#d8e7f5" stroke="#d8e7f5" stroke-width="1.51"/><path d="M-162,-136L-154,1026L-131,656Z" fill="#bcd9ed" stroke="#bcd9ed" stroke-width="1.51"/></svg>