<svg xmlns="http://www.w3.org/2000/svg" width="1920" height="1200"><path d="M-53,1336L-160,1307L97,1379Z" fill="#c37d70" stroke="#c37d70" stroke-width="1.51"/><path d="M477,1356L97,1379L801,1378Z" fill="#b85f4d" stroke="#b85f4d" stroke-width="1.51"/><path d="M1354,1378L801,1378L1515,1386Z" fill="#ad211e" stroke="#ad211e" stroke-width="1.51"/><path d="M1244,-160L1320,-158L1670,-168Z" fill="#f89682" stroke="#f89682" stroke-width="1.51"/><path d="M899,-180L1244,-160L1670,-168Z" fill="#ff9d87" stroke="#ff9d87" stroke-width="1.51"/><path d="M899,-180L1670,-168L1788,-173Z" fill="#f69581" stroke="#f69581" stroke-width="1.51"/><path d="M517,-188L899,-180L1788,-173Z" fill="#ffa992" stroke="#ffa992" stroke-width="1.51"/><path d="M1560,1383L1515,1386L1840,1388Z" fill="#940914" stroke="#940914" stroke-width="1.51"/><path d="M1726,1363L1560,1383L1840,1388Z" fill="#910814" stroke="#910814" stroke-width="1.51"/><path d="M2024,417L1951,524L2035,554Z" fill="#bb4735" stroke="#bb4735" stroke-width="1.51"/><path d="M2024,417L2035,554L2037,303Z" fill="#b94d3c" stroke="#b94d3c" stroke-width="1.51"/><path d="M1955,83L1913,181L2049,220Z" fill="#c46b58" stroke="#c46b58" stroke-width="1.51"/><path d="M2037,303L2035,554L2049,220Z" fill="#b85442" stroke="#b85442" stroke-width="1.51"/><path d="M1951,1323L1840,1388L2054,1363Z" fill="#7f0411" stroke="#7f0411" stroke-width="1.51"/><path d="M2033,1233L1951,1323L2054,1363Z" fill="#800411" stroke="#800411" stroke-width="1.51"/><path d="M2030,667L1965,748L2065,777Z" fill="#b52b22" stroke="#b52b22" stroke-width="1.51"/><path d="M1965,748L2025,915L2065,777Z" fill="#b21f1d" stroke="#b21f1d" stroke-width="1.51"/><path d="M2035,554L2030,667L2065,777Z" fill="#b43227" stroke="#b43227" stroke-width="1.51"/><path d="M1978,1030L1905,1094L2069,1148Z" fill="#9d0c15" stroke="#9d0c15" stroke-width="1.51"/><path d="M2021,965L1978,1030L2069,1148Z" fill="#9d0c16" stroke="#9d0c16" stroke-width="1.51"/><path d="M2065,777L2025,915L2069,1148Z" fill="#a31218" stroke="#a31218" stroke-width="1.51"/><path d="M2025,915L2021,965L2069,1148Z" fill="#9f0c17" stroke="#9f0c17" stroke-width="1.51"/><path d="M2033,1233L2054,1363L2069,1148Z" fill="#850612" stroke="#850612" stroke-width="1.51"/><path d="M1955,83L2049,220L2074,90Z" fill="#be6b5a" stroke="#be6b5a" stroke-width="1.51"/><path d="M2035,554L2065,777L2074,90Z" fill="#b64837" stroke="#b64837" stroke-width="1.51"/><path d="M2049,220L2035,554L2074,90Z" fill="#b85b49" stroke="#b85b49" stroke-width="1.51"/><path d="M2024,-133L1907,-9L2074,-2Z" fill="#c47b6d" stroke="#c47b6d" stroke-width="1.51"/><path d="M1955,83L2074,90L2074,-2Z" fill="#be7263" stroke="#be7263" stroke-width="1.51"/><path d="M1907,-9L1955,83L2074,-2Z" fill="#c67767" stroke="#c67767" stroke-width="1.51"/><path d="M1975,680L1965,748L2030,667Z" fill="#b93025" stroke="#b93025" stroke-width="1.51"/><path d="M1948,1265L1951,1323L2033,1233Z" fill="#890612" stroke="#890612" stroke-width="1.51"/><path d="M1905,1094L2033,1233L2069,1148Z" fill="#950a14" stroke="#950a14" stroke-width="1.51"/><path d="M1974,-146L1907,-9L2024,-133Z" fill="#c97f71" stroke="#c97f71" stroke-width="1.51"/><path d="M1965,748L1903,915L2025,915Z" fill="#b41d1d" stroke="#b41d1d" stroke-width="1.51"/><path d="M1905,1094L1948,1265L2033,1233Z" fill="#960a14" stroke="#960a14" stroke-width="1.51"/><path d="M1975,680L2030,667L2035,554Z" fill="#b83729" stroke="#b83729" stroke-width="1.51"/><path d="M1930,409L2024,417L2037,303Z" fill="#bd5441" stroke="#bd5441" stroke-width="1.51"/><path d="M1906,346L1930,409L2037,303Z" fill="#c25844" stroke="#c25844" stroke-width="1.51"/><path d="M1913,181L2037,303L2049,220Z" fill="#bf6350" stroke="#bf6350" stroke-width="1.51"/><path d="M1951,524L1975,680L2035,554Z" fill="#bd3e2d" stroke="#bd3e2d" stroke-width="1.51"/><path d="M1930,409L1951,524L2024,417Z" fill="#c04d3b" stroke="#c04d3b" stroke-width="1.51"/><path d="M1913,181L1906,346L2037,303Z" fill="#c4604c" stroke="#c4604c" stroke-width="1.51"/><path d="M1903,915L2021,965L2025,915Z" fill="#ac1619" stroke="#ac1619" stroke-width="1.51"/><path d="M1852,799L1903,915L1965,748Z" fill="#be221f" stroke="#be221f" stroke-width="1.51"/><path d="M1903,915L1978,1030L2021,965Z" fill="#aa1318" stroke="#aa1318" stroke-width="1.51"/><path d="M1855,205L1906,346L1913,181Z" fill="#cc6751" stroke="#cc6751" stroke-width="1.51"/><path d="M1905,1094L1820,1216L1948,1265Z" fill="#9e0d14" stroke="#9e0d14" stroke-width="1.51"/><path d="M1813,-57L1907,-9L1974,-146Z" fill="#d18170" stroke="#d18170" stroke-width="1.51"/><path d="M1951,524L1839,626L1975,680Z" fill="#c43d2c" stroke="#c43d2c" stroke-width="1.51"/><path d="M1903,915L1905,1094L1978,1030Z" fill="#ab1018" stroke="#ab1018" stroke-width="1.51"/><path d="M1843,1110L1820,1216L1905,1094Z" fill="#a71015" stroke="#a71015" stroke-width="1.51"/><path d="M1788,-173L1813,-57L1974,-146Z" fill="#d78675" stroke="#d78675" stroke-width="1.51"/><path d="M1839,626L1965,748L1975,680Z" fill="#c13427" stroke="#c13427" stroke-width="1.51"/><path d="M1903,915L1784,1032L1905,1094Z" fill="#b21118" stroke="#b21118" stroke-width="1.51"/><path d="M1930,409L1860,398L1951,524Z" fill="#c7503c" stroke="#c7503c" stroke-width="1.51"/><path d="M1817,545L1839,626L1951,524Z" fill="#cb4431" stroke="#cb4431" stroke-width="1.51"/><path d="M1839,626L1852,799L1965,748Z" fill="#c53025" stroke="#c53025" stroke-width="1.51"/><path d="M1860,398L1817,545L1951,524Z" fill="#ca4d38" stroke="#ca4d38" stroke-width="1.51"/><path d="M1813,59L1913,181L1955,83Z" fill="#ce7460" stroke="#ce7460" stroke-width="1.51"/><path d="M1907,-9L1813,59L1955,83Z" fill="#d07967" stroke="#d07967" stroke-width="1.51"/><path d="M1848,907L1784,1032L1903,915Z" fill="#ba181a" stroke="#ba181a" stroke-width="1.51"/><path d="M1820,1216L1840,1388L1948,1265Z" fill="#920913" stroke="#920913" stroke-width="1.51"/><path d="M1948,1265L1840,1388L1951,1323Z" fill="#880612" stroke="#880612" stroke-width="1.51"/><path d="M1852,799L1848,907L1903,915Z" fill="#be1f1d" stroke="#be1f1d" stroke-width="1.51"/><path d="M1784,1032L1843,1110L1905,1094Z" fill="#ae1117" stroke="#ae1117" stroke-width="1.51"/><path d="M1855,205L1821,352L1906,346Z" fill="#ce614b" stroke="#ce614b" stroke-width="1.51"/><path d="M1813,59L1855,205L1913,181Z" fill="#d1715c" stroke="#d1715c" stroke-width="1.51"/><path d="M1906,346L1860,398L1930,409Z" fill="#c95741" stroke="#c95741" stroke-width="1.51"/><path d="M1320,-158L1503,-126L1670,-168Z" fill="#f3927e" stroke="#f3927e" stroke-width="1.51"/><path d="M1839,626L1748,698L1852,799Z" fill="#cd3527" stroke="#cd3527" stroke-width="1.51"/><path d="M1813,-57L1813,59L1907,-9Z" fill="#d7806d" stroke="#d7806d" stroke-width="1.51"/><path d="M1002,1334L801,1378L1354,1378Z" fill="#b33226" stroke="#b33226" stroke-width="1.51"/><path d="M1821,352L1860,398L1906,346Z" fill="#cd5a44" stroke="#cd5a44" stroke-width="1.51"/><path d="M899,-180L1020,-155L1244,-160Z" fill="#ffaa92" stroke="#ffaa92" stroke-width="1.51"/><path d="M1820,1216L1726,1363L1840,1388Z" fill="#940914" stroke="#940914" stroke-width="1.51"/><path d="M1712,976L1784,1032L1848,907Z" fill="#bd181a" stroke="#bd181a" stroke-width="1.51"/><path d="M1705,921L1848,907L1852,799Z" fill="#c5201e" stroke="#c5201e" stroke-width="1.51"/><path d="M1813,59L1735,90L1855,205Z" fill="#d87661" stroke="#d87661" stroke-width="1.51"/><path d="M1677,230L1821,352L1855,205Z" fill="#d66851" stroke="#d66851" stroke-width="1.51"/><path d="M1821,352L1730,386L1860,398Z" fill="#d35b44" stroke="#d35b44" stroke-width="1.51"/><path d="M1730,386L1817,545L1860,398Z" fill="#d3543e" stroke="#d3543e" stroke-width="1.51"/><path d="M1732,1110L1820,1216L1843,1110Z" fill="#ac1117" stroke="#ac1117" stroke-width="1.51"/><path d="M1705,921L1712,976L1848,907Z" fill="#c21b1c" stroke="#c21b1c" stroke-width="1.51"/><path d="M1748,698L1693,761L1852,799Z" fill="#cf2f25" stroke="#cf2f25" stroke-width="1.51"/><path d="M1693,761L1705,921L1852,799Z" fill="#cc2520" stroke="#cc2520" stroke-width="1.51"/><path d="M1735,90L1677,230L1855,205Z" fill="#da725b" stroke="#da725b" stroke-width="1.51"/><path d="M1730,386L1705,552L1817,545Z" fill="#d5503a" stroke="#d5503a" stroke-width="1.51"/><path d="M1686,1229L1726,1363L1820,1216Z" fill="#9f0d15" stroke="#9f0d15" stroke-width="1.51"/><path d="M1677,230L1674,349L1821,352Z" fill="#da644d" stroke="#da644d" stroke-width="1.51"/><path d="M1784,1032L1732,1110L1843,1110Z" fill="#b21218" stroke="#b21218" stroke-width="1.51"/><path d="M1692,-1L1813,59L1813,-57Z" fill="#dd826e" stroke="#dd826e" stroke-width="1.51"/><path d="M1817,545L1705,552L1839,626Z" fill="#d24532" stroke="#d24532" stroke-width="1.51"/><path d="M1674,349L1730,386L1821,352Z" fill="#d85f46" stroke="#d85f46" stroke-width="1.51"/><path d="M1705,552L1748,698L1839,626Z" fill="#d3402e" stroke="#d3402e" stroke-width="1.51"/><path d="M1692,-1L1735,90L1813,59Z" fill="#de7e69" stroke="#de7e69" stroke-width="1.51"/><path d="M1788,-173L1670,-168L1813,-57Z" fill="#e18978" stroke="#e18978" stroke-width="1.51"/><path d="M1732,1110L1686,1229L1820,1216Z" fill="#ab1016" stroke="#ab1016" stroke-width="1.51"/><path d="M1670,-168L1692,-1L1813,-57Z" fill="#e28775" stroke="#e28775" stroke-width="1.51"/><path d="M1020,-155L1126,-148L1244,-160Z" fill="#ffa58d" stroke="#ffa58d" stroke-width="1.51"/><path d="M1169,1332L1002,1334L1354,1378Z" fill="#b32821" stroke="#b32821" stroke-width="1.51"/><path d="M1670,-168L1621,-122L1692,-1Z" fill="#e78a77" stroke="#e78a77" stroke-width="1.51"/><path d="M1693,761L1629,870L1705,921Z" fill="#cf2520" stroke="#cf2520" stroke-width="1.51"/><path d="M1625,428L1705,552L1730,386Z" fill="#da553f" stroke="#da553f" stroke-width="1.51"/><path d="M1712,976L1732,1110L1784,1032Z" fill="#b91319" stroke="#b91319" stroke-width="1.51"/><path d="M1581,615L1578,731L1693,761Z" fill="#da392b" stroke="#da392b" stroke-width="1.51"/><path d="M1712,976L1632,985L1732,1110Z" fill="#be151a" stroke="#be151a" stroke-width="1.51"/><path d="M1632,985L1593,1077L1732,1110Z" fill="#be151a" stroke="#be151a" stroke-width="1.51"/><path d="M1590,68L1677,230L1735,90Z" fill="#e17961" stroke="#e17961" stroke-width="1.51"/><path d="M1705,552L1581,615L1748,698Z" fill="#d9422f" stroke="#d9422f" stroke-width="1.51"/><path d="M1581,615L1693,761L1748,698Z" fill="#d7392a" stroke="#d7392a" stroke-width="1.51"/><path d="M1590,68L1560,183L1677,230Z" fill="#e4775f" stroke="#e4775f" stroke-width="1.51"/><path d="M1686,1229L1560,1383L1726,1363Z" fill="#9c0b15" stroke="#9c0b15" stroke-width="1.51"/><path d="M1593,1077L1686,1229L1732,1110Z" fill="#b51319" stroke="#b51319" stroke-width="1.51"/><path d="M1692,-1L1590,68L1735,90Z" fill="#e3806a" stroke="#e3806a" stroke-width="1.51"/><path d="M1674,349L1625,428L1730,386Z" fill="#dc5d45" stroke="#dc5d45" stroke-width="1.51"/><path d="M1625,428L1597,540L1705,552Z" fill="#dd503a" stroke="#dd503a" stroke-width="1.51"/><path d="M1593,1077L1563,1229L1686,1229Z" fill="#b51318" stroke="#b51318" stroke-width="1.51"/><path d="M1563,1229L1560,1383L1686,1229Z" fill="#a70f16" stroke="#a70f16" stroke-width="1.51"/><path d="M1597,540L1581,615L1705,552Z" fill="#dd4934" stroke="#dd4934" stroke-width="1.51"/><path d="M1705,921L1632,985L1712,976Z" fill="#c41a1c" stroke="#c41a1c" stroke-width="1.51"/><path d="M1570,332L1674,349L1677,230Z" fill="#e0674f" stroke="#e0674f" stroke-width="1.51"/><path d="M1621,-122L1553,-23L1692,-1Z" fill="#e88875" stroke="#e88875" stroke-width="1.51"/><path d="M1629,870L1632,985L1705,921Z" fill="#ca1e1e" stroke="#ca1e1e" stroke-width="1.51"/><path d="M1578,731L1629,870L1693,761Z" fill="#d72c24" stroke="#d72c24" stroke-width="1.51"/><path d="M1553,-23L1590,68L1692,-1Z" fill="#e8856f" stroke="#e8856f" stroke-width="1.51"/><path d="M1503,-126L1621,-122L1670,-168Z" fill="#ec8e7b" stroke="#ec8e7b" stroke-width="1.51"/><path d="M1570,332L1625,428L1674,349Z" fill="#df6048" stroke="#df6048" stroke-width="1.51"/><path d="M1560,183L1570,332L1677,230Z" fill="#e36e55" stroke="#e36e55" stroke-width="1.51"/><path d="M1492,1199L1563,1229L1593,1077Z" fill="#ba1419" stroke="#ba1419" stroke-width="1.51"/><path d="M1516,530L1597,540L1625,428Z" fill="#e1533c" stroke="#e1533c" stroke-width="1.51"/><path d="M1578,731L1479,762L1629,870Z" fill="#db2d25" stroke="#db2d25" stroke-width="1.51"/><path d="M1479,762L1461,851L1629,870Z" fill="#db2a24" stroke="#db2a24" stroke-width="1.51"/><path d="M1458,1012L1593,1077L1632,985Z" fill="#c7171c" stroke="#c7171c" stroke-width="1.51"/><path d="M1629,870L1461,851L1632,985Z" fill="#d12220" stroke="#d12220" stroke-width="1.51"/><path d="M1461,851L1458,1012L1632,985Z" fill="#d01f1f" stroke="#d01f1f" stroke-width="1.51"/><path d="M1471,1133L1492,1199L1593,1077Z" fill="#bf171b" stroke="#bf171b" stroke-width="1.51"/><path d="M1503,-126L1553,-23L1621,-122Z" fill="#ee8c78" stroke="#ee8c78" stroke-width="1.51"/><path d="M1570,332L1474,385L1625,428Z" fill="#e46048" stroke="#e46048" stroke-width="1.51"/><path d="M1474,385L1516,530L1625,428Z" fill="#e55941" stroke="#e55941" stroke-width="1.51"/><path d="M1515,1386L1560,1383L1563,1229Z" fill="#a30d17" stroke="#a30d17" stroke-width="1.51"/><path d="M1560,183L1437,214L1570,332Z" fill="#e97158" stroke="#e97158" stroke-width="1.51"/><path d="M1437,214L1470,347L1570,332Z" fill="#ea6c52" stroke="#ea6c52" stroke-width="1.51"/><path d="M1491,616L1578,731L1581,615Z" fill="#e1402f" stroke="#e1402f" stroke-width="1.51"/><path d="M1553,-23L1514,-13L1590,68Z" fill="#ec8671" stroke="#ec8671" stroke-width="1.51"/><path d="M1458,50L1560,183L1590,68Z" fill="#eb7f67" stroke="#eb7f67" stroke-width="1.51"/><path d="M1516,530L1581,615L1597,540Z" fill="#e24b36" stroke="#e24b36" stroke-width="1.51"/><path d="M1458,1012L1471,1133L1593,1077Z" fill="#c5191c" stroke="#c5191c" stroke-width="1.51"/><path d="M1516,530L1491,616L1581,615Z" fill="#e44934" stroke="#e44934" stroke-width="1.51"/><path d="M1514,-13L1458,50L1590,68Z" fill="#ee856f" stroke="#ee856f" stroke-width="1.51"/><path d="M1492,1199L1515,1386L1563,1229Z" fill="#ae1218" stroke="#ae1218" stroke-width="1.51"/><path d="M1491,616L1479,762L1578,731Z" fill="#e13b2c" stroke="#e13b2c" stroke-width="1.51"/><path d="M1470,347L1474,385L1570,332Z" fill="#e8654c" stroke="#e8654c" stroke-width="1.51"/><path d="M1503,-126L1514,-13L1553,-23Z" fill="#ef8b77" stroke="#ef8b77" stroke-width="1.51"/><path d="M1458,50L1437,214L1560,183Z" fill="#ed7c64" stroke="#ed7c64" stroke-width="1.51"/><path d="M1492,1199L1370,1266L1515,1386Z" fill="#af1619" stroke="#af1619" stroke-width="1.51"/><path d="M1395,61L1437,214L1458,50Z" fill="#f28269" stroke="#f28269" stroke-width="1.51"/><path d="M1387,891L1458,1012L1461,851Z" fill="#d82722" stroke="#d82722" stroke-width="1.51"/><path d="M1341,444L1394,543L1474,385Z" fill="#ed5e44" stroke="#ed5e44" stroke-width="1.51"/><path d="M1388,745L1479,762L1491,616Z" fill="#e53e2d" stroke="#e53e2d" stroke-width="1.51"/><path d="M1385,620L1388,745L1491,616Z" fill="#e94532" stroke="#e94532" stroke-width="1.51"/><path d="M1503,-126L1319,-3L1514,-13Z" fill="#f48f79" stroke="#f48f79" stroke-width="1.51"/><path d="M1319,-3L1458,50L1514,-13Z" fill="#f48b74" stroke="#f48b74" stroke-width="1.51"/><path d="M1370,1266L1354,1378L1515,1386Z" fill="#a81619" stroke="#a81619" stroke-width="1.51"/><path d="M1394,543L1491,616L1516,530Z" fill="#e84f38" stroke="#e84f38" stroke-width="1.51"/><path d="M1474,385L1394,543L1516,530Z" fill="#e95840" stroke="#e95840" stroke-width="1.51"/><path d="M657,1354L477,1356L801,1378Z" fill="#b7523f" stroke="#b7523f" stroke-width="1.51"/><path d="M1256,1339L1169,1332L1354,1378Z" fill="#b0201d" stroke="#b0201d" stroke-width="1.51"/><path d="M1387,891L1382,986L1458,1012Z" fill="#d62521" stroke="#d62521" stroke-width="1.51"/><path d="M1319,-3L1395,61L1458,50Z" fill="#f68b73" stroke="#f68b73" stroke-width="1.51"/><path d="M1320,-158L1319,-3L1503,-126Z" fill="#f9947e" stroke="#f9947e" stroke-width="1.51"/><path d="M1437,214L1364,332L1470,347Z" fill="#ee6f54" stroke="#ee6f54" stroke-width="1.51"/><path d="M1458,1012L1361,1136L1471,1133Z" fill="#c91d1d" stroke="#c91d1d" stroke-width="1.51"/><path d="M1394,543L1385,620L1491,616Z" fill="#ea4d37" stroke="#ea4d37" stroke-width="1.51"/><path d="M1471,1133L1361,1136L1492,1199Z" fill="#c21b1c" stroke="#c21b1c" stroke-width="1.51"/><path d="M1361,1136L1370,1266L1492,1199Z" fill="#c01d1c" stroke="#c01d1c" stroke-width="1.51"/><path d="M1388,745L1461,851L1479,762Z" fill="#e33328" stroke="#e33328" stroke-width="1.51"/><path d="M1382,986L1361,1136L1458,1012Z" fill="#cf211f" stroke="#cf211f" stroke-width="1.51"/><path d="M1470,347L1364,332L1474,385Z" fill="#ec684e" stroke="#ec684e" stroke-width="1.51"/><path d="M1364,332L1341,444L1474,385Z" fill="#ee664c" stroke="#ee664c" stroke-width="1.51"/><path d="M1395,61L1336,218L1437,214Z" fill="#f27f64" stroke="#f27f64" stroke-width="1.51"/><path d="M1388,745L1387,891L1461,851Z" fill="#e23026" stroke="#e23026" stroke-width="1.51"/><path d="M1336,218L1364,332L1437,214Z" fill="#f1765a" stroke="#f1765a" stroke-width="1.51"/><path d="M1361,1136L1278,1206L1370,1266Z" fill="#c4211e" stroke="#c4211e" stroke-width="1.51"/><path d="M1286,1032L1361,1136L1382,986Z" fill="#d22521" stroke="#d22521" stroke-width="1.51"/><path d="M1214,926L1382,986L1387,891Z" fill="#de2c25" stroke="#de2c25" stroke-width="1.51"/><path d="M1277,741L1214,926L1387,891Z" fill="#e73529" stroke="#e73529" stroke-width="1.51"/><path d="M1385,620L1288,686L1388,745Z" fill="#ec4531" stroke="#ec4531" stroke-width="1.51"/><path d="M1277,741L1387,891L1388,745Z" fill="#e9372a" stroke="#e9372a" stroke-width="1.51"/><path d="M1235,574L1385,620L1394,543Z" fill="#f0533a" stroke="#f0533a" stroke-width="1.51"/><path d="M1341,444L1235,574L1394,543Z" fill="#f15b41" stroke="#f15b41" stroke-width="1.51"/><path d="M1274,79L1336,218L1395,61Z" fill="#f7856b" stroke="#f7856b" stroke-width="1.51"/><path d="M1319,-3L1274,79L1395,61Z" fill="#f98d74" stroke="#f98d74" stroke-width="1.51"/><path d="M1256,1339L1354,1378L1370,1266Z" fill="#b01c1c" stroke="#b01c1c" stroke-width="1.51"/><path d="M1214,926L1286,1032L1382,986Z" fill="#dc2a24" stroke="#dc2a24" stroke-width="1.51"/><path d="M1288,686L1277,741L1388,745Z" fill="#ed422f" stroke="#ed422f" stroke-width="1.51"/><path d="M1264,415L1341,444L1364,332Z" fill="#f2684c" stroke="#f2684c" stroke-width="1.51"/><path d="M1235,574L1288,686L1385,620Z" fill="#f14f37" stroke="#f14f37" stroke-width="1.51"/><path d="M1286,1032L1273,1134L1361,1136Z" fill="#d02621" stroke="#d02621" stroke-width="1.51"/><path d="M1274,79L1252,207L1336,218Z" fill="#f98367" stroke="#f98367" stroke-width="1.51"/><path d="M1273,1134L1278,1206L1361,1136Z" fill="#ca2420" stroke="#ca2420" stroke-width="1.51"/><path d="M1336,218L1235,289L1364,332Z" fill="#f5765a" stroke="#f5765a" stroke-width="1.51"/><path d="M1278,1206L1256,1339L1370,1266Z" fill="#bb201e" stroke="#bb201e" stroke-width="1.51"/><path d="M1244,-160L1319,-3L1320,-158Z" fill="#ff9981" stroke="#ff9981" stroke-width="1.51"/><path d="M1235,289L1264,415L1364,332Z" fill="#f67053" stroke="#f67053" stroke-width="1.51"/><path d="M1264,415L1235,574L1341,444Z" fill="#f46146" stroke="#f46146" stroke-width="1.51"/><path d="M1244,-160L1207,-4L1319,-3Z" fill="#ff9780" stroke="#ff9780" stroke-width="1.51"/><path d="M1252,207L1235,289L1336,218Z" fill="#f87c60" stroke="#f87c60" stroke-width="1.51"/><path d="M1207,-4L1274,79L1319,-3Z" fill="#fe9278" stroke="#fe9278" stroke-width="1.51"/><path d="M1158,-36L1207,-4L1244,-160Z" fill="#ff9c83" stroke="#ff9c83" stroke-width="1.51"/><path d="M1097,525L1235,574L1264,415Z" fill="#f76347" stroke="#f76347" stroke-width="1.51"/><path d="M1117,162L1252,207L1274,79Z" fill="#fc886c" stroke="#fc886c" stroke-width="1.51"/><path d="M1136,734L1214,926L1277,741Z" fill="#f03f2e" stroke="#f03f2e" stroke-width="1.51"/><path d="M1169,1332L1256,1339L1278,1206Z" fill="#bb241f" stroke="#bb241f" stroke-width="1.51"/><path d="M1126,1238L1169,1332L1278,1206Z" fill="#c22a22" stroke="#c22a22" stroke-width="1.51"/><path d="M1164,1116L1273,1134L1286,1032Z" fill="#d42a23" stroke="#d42a23" stroke-width="1.51"/><path d="M1144,699L1277,741L1288,686Z" fill="#f34933" stroke="#f34933" stroke-width="1.51"/><path d="M1235,574L1144,699L1288,686Z" fill="#f45038" stroke="#f45038" stroke-width="1.51"/><path d="M1104,970L1164,1116L1214,926Z" fill="#df3529" stroke="#df3529" stroke-width="1.51"/><path d="M1214,926L1164,1116L1286,1032Z" fill="#db2e25" stroke="#db2e25" stroke-width="1.51"/><path d="M1114,62L1117,162L1274,79Z" fill="#fe9074" stroke="#fe9074" stroke-width="1.51"/><path d="M1273,1134L1164,1116L1278,1206Z" fill="#cf2922" stroke="#cf2922" stroke-width="1.51"/><path d="M1164,1116L1126,1238L1278,1206Z" fill="#cc2d24" stroke="#cc2d24" stroke-width="1.51"/><path d="M1144,699L1136,734L1277,741Z" fill="#f34b34" stroke="#f34b34" stroke-width="1.51"/><path d="M1136,734L1108,913L1214,926Z" fill="#ec402f" stroke="#ec402f" stroke-width="1.51"/><path d="M1089,415L1097,525L1264,415Z" fill="#f86c4e" stroke="#f86c4e" stroke-width="1.51"/><path d="M1235,289L1089,415L1264,415Z" fill="#f87254" stroke="#f87254" stroke-width="1.51"/><path d="M1207,-4L1114,62L1274,79Z" fill="#ff9379" stroke="#ff9379" stroke-width="1.51"/><path d="M1143,270L1089,415L1235,289Z" fill="#fa7a5b" stroke="#fa7a5b" stroke-width="1.51"/><path d="M1126,-148L1158,-36L1244,-160Z" fill="#ffa087" stroke="#ffa087" stroke-width="1.51"/><path d="M1143,270L1235,289L1252,207Z" fill="#fa7e60" stroke="#fa7e60" stroke-width="1.51"/><path d="M1117,162L1143,270L1252,207Z" fill="#fb8567" stroke="#fb8567" stroke-width="1.51"/><path d="M1097,525L1144,699L1235,574Z" fill="#f75b3f" stroke="#f75b3f" stroke-width="1.51"/><path d="M1058,874L1108,913L1136,734Z" fill="#ef4632" stroke="#ef4632" stroke-width="1.51"/><path d="M1108,913L1104,970L1214,926Z" fill="#e63b2c" stroke="#e63b2c" stroke-width="1.51"/><path d="M1158,-36L1114,62L1207,-4Z" fill="#ff9a7f" stroke="#ff9a7f" stroke-width="1.51"/><path d="M1042,537L1010,656L1097,525Z" fill="#fa6748" stroke="#fa6748" stroke-width="1.51"/><path d="M1097,525L1010,656L1144,699Z" fill="#f85f41" stroke="#f85f41" stroke-width="1.51"/><path d="M1126,-148L1057,-65L1158,-36Z" fill="#ffa289" stroke="#ffa289" stroke-width="1.51"/><path d="M1004,1137L1126,1238L1164,1116Z" fill="#d13728" stroke="#d13728" stroke-width="1.51"/><path d="M1104,970L1004,1137L1164,1116Z" fill="#d93a2b" stroke="#d93a2b" stroke-width="1.51"/><path d="M1126,1238L1002,1334L1169,1332Z" fill="#bc3126" stroke="#bc3126" stroke-width="1.51"/><path d="M1015,757L1058,874L1136,734Z" fill="#f44d36" stroke="#f44d36" stroke-width="1.51"/><path d="M993,321L1089,415L1143,270Z" fill="#fb7e5f" stroke="#fb7e5f" stroke-width="1.51"/><path d="M1117,162L1054,192L1143,270Z" fill="#fc8a6c" stroke="#fc8a6c" stroke-width="1.51"/><path d="M1057,-65L1114,62L1158,-36Z" fill="#ff9e84" stroke="#ff9e84" stroke-width="1.51"/><path d="M1018,1250L1002,1334L1126,1238Z" fill="#c23729" stroke="#c23729" stroke-width="1.51"/><path d="M986,987L1004,1137L1104,970Z" fill="#df402f" stroke="#df402f" stroke-width="1.51"/><path d="M1114,62L1029,115L1117,162Z" fill="#ff9477" stroke="#ff9477" stroke-width="1.51"/><path d="M1004,1137L1018,1250L1126,1238Z" fill="#cd3a2a" stroke="#cd3a2a" stroke-width="1.51"/><path d="M1010,656L1136,734L1144,699Z" fill="#f6563c" stroke="#f6563c" stroke-width="1.51"/><path d="M1054,192L993,321L1143,270Z" fill="#fc8768" stroke="#fc8768" stroke-width="1.51"/><path d="M1010,656L1015,757L1136,734Z" fill="#f6573c" stroke="#f6573c" stroke-width="1.51"/><path d="M1020,-155L1057,-65L1126,-148Z" fill="#ffa68f" stroke="#ffa68f" stroke-width="1.51"/><path d="M88,-172L292,-152L517,-188Z" fill="#ffdbcd" stroke="#ffdbcd" stroke-width="1.51"/><path d="M944,-18L1029,115L1057,-65Z" fill="#ffa388" stroke="#ffa388" stroke-width="1.51"/><path d="M993,321L1015,416L1089,415Z" fill="#fb7b5b" stroke="#fb7b5b" stroke-width="1.51"/><path d="M1015,416L1042,537L1089,415Z" fill="#fa7354" stroke="#fa7354" stroke-width="1.51"/><path d="M1089,415L1042,537L1097,525Z" fill="#f96d4e" stroke="#f96d4e" stroke-width="1.51"/><path d="M1057,-65L1029,115L1114,62Z" fill="#ff9c82" stroke="#ff9c82" stroke-width="1.51"/><path d="M1029,115L1054,192L1117,162Z" fill="#fe9174" stroke="#fe9174" stroke-width="1.51"/><path d="M1058,874L986,987L1104,970Z" fill="#e74331" stroke="#e74331" stroke-width="1.51"/><path d="M1058,874L1104,970L1108,913Z" fill="#e8422f" stroke="#e8422f" stroke-width="1.51"/><path d="M903,1310L801,1378L1002,1334Z" fill="#b9402f" stroke="#b9402f" stroke-width="1.51"/><path d="M944,-18L930,85L1029,115Z" fill="#ffa184" stroke="#ffa184" stroke-width="1.51"/><path d="M1015,416L928,436L1042,537Z" fill="#fb7655" stroke="#fb7655" stroke-width="1.51"/><path d="M935,300L993,321L1054,192Z" fill="#fd8a6a" stroke="#fd8a6a" stroke-width="1.51"/><path d="M890,231L935,300L1054,192Z" fill="#fe8f70" stroke="#fe8f70" stroke-width="1.51"/><path d="M1020,-155L944,-18L1057,-65Z" fill="#ffa88f" stroke="#ffa88f" stroke-width="1.51"/><path d="M1015,757L887,904L1058,874Z" fill="#f14f38" stroke="#f14f38" stroke-width="1.51"/><path d="M887,904L986,987L1058,874Z" fill="#ea4b35" stroke="#ea4b35" stroke-width="1.51"/><path d="M986,987L920,1012L1004,1137Z" fill="#df4531" stroke="#df4531" stroke-width="1.51"/><path d="M888,570L1010,656L1042,537Z" fill="#fb6a4a" stroke="#fb6a4a" stroke-width="1.51"/><path d="M1029,115L890,231L1054,192Z" fill="#fe9475" stroke="#fe9475" stroke-width="1.51"/><path d="M888,570L909,640L1010,656Z" fill="#fb6a4a" stroke="#fb6a4a" stroke-width="1.51"/><path d="M930,85L890,231L1029,115Z" fill="#ff9a7c" stroke="#ff9a7c" stroke-width="1.51"/><path d="M928,436L888,570L1042,537Z" fill="#fc7453" stroke="#fc7453" stroke-width="1.51"/><path d="M920,1012L890,1099L1004,1137Z" fill="#dc4733" stroke="#dc4733" stroke-width="1.51"/><path d="M1010,656L879,729L1015,757Z" fill="#f85d41" stroke="#f85d41" stroke-width="1.51"/><path d="M879,729L887,904L1015,757Z" fill="#f5583e" stroke="#f5583e" stroke-width="1.51"/><path d="M1004,1137L882,1213L1018,1250Z" fill="#d0412e" stroke="#d0412e" stroke-width="1.51"/><path d="M899,-180L944,-18L1020,-155Z" fill="#ffae95" stroke="#ffae95" stroke-width="1.51"/><path d="M909,640L879,729L1010,656Z" fill="#f96446" stroke="#f96446" stroke-width="1.51"/><path d="M993,321L928,436L1015,416Z" fill="#fc7e5e" stroke="#fc7e5e" stroke-width="1.51"/><path d="M903,1310L1002,1334L1018,1250Z" fill="#bf3c2c" stroke="#bf3c2c" stroke-width="1.51"/><path d="M882,1213L903,1310L1018,1250Z" fill="#c7412f" stroke="#c7412f" stroke-width="1.51"/><path d="M935,300L928,436L993,321Z" fill="#fd8464" stroke="#fd8464" stroke-width="1.51"/><path d="M517,-188L788,-123L899,-180Z" fill="#ffbea8" stroke="#ffbea8" stroke-width="1.51"/><path d="M890,1099L882,1213L1004,1137Z" fill="#d54632" stroke="#d54632" stroke-width="1.51"/><path d="M879,729L826,860L887,904Z" fill="#f45a40" stroke="#f45a40" stroke-width="1.51"/><path d="M887,904L920,1012L986,987Z" fill="#e64c37" stroke="#e64c37" stroke-width="1.51"/><path d="M517,-188L646,-114L788,-123Z" fill="#ffc2ad" stroke="#ffc2ad" stroke-width="1.51"/><path d="M824,412L888,570L928,436Z" fill="#fc7d5c" stroke="#fc7d5c" stroke-width="1.51"/><path d="M806,204L890,231L930,85Z" fill="#ff9c7e" stroke="#ff9c7e" stroke-width="1.51"/><path d="M824,412L928,436L935,300Z" fill="#fc8464" stroke="#fc8464" stroke-width="1.51"/><path d="M899,-180L788,-123L944,-18Z" fill="#ffb299" stroke="#ffb299" stroke-width="1.51"/><path d="M788,-123L788,-6L944,-18Z" fill="#ffb198" stroke="#ffb198" stroke-width="1.51"/><path d="M794,44L930,85L944,-18Z" fill="#ffa78d" stroke="#ffa78d" stroke-width="1.51"/><path d="M788,-6L794,44L944,-18Z" fill="#ffae93" stroke="#ffae93" stroke-width="1.51"/><path d="M794,44L806,204L930,85Z" fill="#ffa487" stroke="#ffa487" stroke-width="1.51"/><path d="M890,231L788,288L935,300Z" fill="#fe9272" stroke="#fe9272" stroke-width="1.51"/><path d="M788,288L824,412L935,300Z" fill="#fd8d6d" stroke="#fd8d6d" stroke-width="1.51"/><path d="M887,904L783,977L920,1012Z" fill="#e8523b" stroke="#e8523b" stroke-width="1.51"/><path d="M824,412L765,546L888,570Z" fill="#fc7d5d" stroke="#fc7d5d" stroke-width="1.51"/><path d="M801,1129L882,1213L890,1099Z" fill="#d64c36" stroke="#d64c36" stroke-width="1.51"/><path d="M783,977L890,1099L920,1012Z" fill="#e24f39" stroke="#e24f39" stroke-width="1.51"/><path d="M882,1213L797,1197L903,1310Z" fill="#ca4835" stroke="#ca4835" stroke-width="1.51"/><path d="M888,570L746,695L909,640Z" fill="#fb6f4f" stroke="#fb6f4f" stroke-width="1.51"/><path d="M746,695L879,729L909,640Z" fill="#f96a4b" stroke="#f96a4b" stroke-width="1.51"/><path d="M801,1129L797,1197L882,1213Z" fill="#d34d38" stroke="#d34d38" stroke-width="1.51"/><path d="M765,546L746,695L888,570Z" fill="#fc7554" stroke="#fc7554" stroke-width="1.51"/><path d="M783,977L801,1129L890,1099Z" fill="#de513a" stroke="#de513a" stroke-width="1.51"/><path d="M797,1197L801,1378L903,1310Z" fill="#c14735" stroke="#c14735" stroke-width="1.51"/><path d="M761,740L826,860L879,729Z" fill="#f76346" stroke="#f76346" stroke-width="1.51"/><path d="M826,860L783,977L887,904Z" fill="#ec573f" stroke="#ec573f" stroke-width="1.51"/><path d="M806,204L788,288L890,231Z" fill="#fe9879" stroke="#fe9879" stroke-width="1.51"/><path d="M746,695L761,740L879,729Z" fill="#f96a4c" stroke="#f96a4c" stroke-width="1.51"/><path d="M585,1340L477,1356L657,1354Z" fill="#ba5745" stroke="#ba5745" stroke-width="1.51"/><path d="M672,1192L657,1354L797,1197Z" fill="#ca533e" stroke="#ca533e" stroke-width="1.51"/><path d="M797,1197L657,1354L801,1378Z" fill="#bf4c3a" stroke="#bf4c3a" stroke-width="1.51"/><path d="M783,977L685,1088L801,1129Z" fill="#df563f" stroke="#df563f" stroke-width="1.51"/><path d="M794,44L652,111L806,204Z" fill="#ffa98d" stroke="#ffa98d" stroke-width="1.51"/><path d="M634,442L765,546L824,412Z" fill="#fc8766" stroke="#fc8766" stroke-width="1.51"/><path d="M788,288L699,287L824,412Z" fill="#fd9373" stroke="#fd9373" stroke-width="1.51"/><path d="M699,287L634,442L824,412Z" fill="#fc9170" stroke="#fc9170" stroke-width="1.51"/><path d="M680,906L783,977L826,860Z" fill="#ed5d43" stroke="#ed5d43" stroke-width="1.51"/><path d="M761,740L680,906L826,860Z" fill="#f46347" stroke="#f46347" stroke-width="1.51"/><path d="M678,737L680,906L761,740Z" fill="#f76a4d" stroke="#f76a4d" stroke-width="1.51"/><path d="M666,-9L788,-6L788,-123Z" fill="#ffb79e" stroke="#ffb79e" stroke-width="1.51"/><path d="M672,1192L797,1197L801,1129Z" fill="#d4533c" stroke="#d4533c" stroke-width="1.51"/><path d="M699,287L788,288L806,204Z" fill="#fd9b7b" stroke="#fd9b7b" stroke-width="1.51"/><path d="M652,231L699,287L806,204Z" fill="#fd9f81" stroke="#fd9f81" stroke-width="1.51"/><path d="M652,111L652,231L806,204Z" fill="#fda689" stroke="#fda689" stroke-width="1.51"/><path d="M646,-114L666,-9L788,-123Z" fill="#ffbba5" stroke="#ffbba5" stroke-width="1.51"/><path d="M685,1088L672,1192L801,1129Z" fill="#d85740" stroke="#d85740" stroke-width="1.51"/><path d="M669,689L746,695L765,546Z" fill="#fb7756" stroke="#fb7756" stroke-width="1.51"/><path d="M634,442L634,513L765,546Z" fill="#fc8867" stroke="#fc8867" stroke-width="1.51"/><path d="M650,1000L685,1088L783,977Z" fill="#e35c43" stroke="#e35c43" stroke-width="1.51"/><path d="M788,-6L666,-9L794,44Z" fill="#ffb49a" stroke="#ffb49a" stroke-width="1.51"/><path d="M666,-9L652,111L794,44Z" fill="#ffb299" stroke="#ffb299" stroke-width="1.51"/><path d="M680,906L650,1000L783,977Z" fill="#e95f46" stroke="#e95f46" stroke-width="1.51"/><path d="M634,513L669,689L765,546Z" fill="#fc7f5e" stroke="#fc7f5e" stroke-width="1.51"/><path d="M746,695L678,737L761,740Z" fill="#f96f50" stroke="#f96f50" stroke-width="1.51"/><path d="M337,1324L97,1379L477,1356Z" fill="#bc6a5a" stroke="#bc6a5a" stroke-width="1.51"/><path d="M669,689L678,737L746,695Z" fill="#f97354" stroke="#f97354" stroke-width="1.51"/><path d="M582,1218L585,1340L657,1354Z" fill="#c15744" stroke="#c15744" stroke-width="1.51"/><path d="M634,513L540,656L669,689Z" fill="#fc8161" stroke="#fc8161" stroke-width="1.51"/><path d="M582,1218L657,1354L672,1192Z" fill="#c95843" stroke="#c95843" stroke-width="1.51"/><path d="M531,763L566,886L678,737Z" fill="#f87255" stroke="#f87255" stroke-width="1.51"/><path d="M678,737L566,886L680,906Z" fill="#f36b4f" stroke="#f36b4f" stroke-width="1.51"/><path d="M567,1099L672,1192L685,1088Z" fill="#d95d46" stroke="#d95d46" stroke-width="1.51"/><path d="M652,231L536,304L699,287Z" fill="#fda284" stroke="#fda284" stroke-width="1.51"/><path d="M536,304L634,442L699,287Z" fill="#fd9b7c" stroke="#fd9b7c" stroke-width="1.51"/><path d="M646,-114L579,-38L666,-9Z" fill="#ffbfa8" stroke="#ffbfa8" stroke-width="1.51"/><path d="M552,46L652,111L666,-9Z" fill="#ffb89f" stroke="#ffb89f" stroke-width="1.51"/><path d="M566,886L650,1000L680,906Z" fill="#ec664c" stroke="#ec664c" stroke-width="1.51"/><path d="M650,1000L567,1099L685,1088Z" fill="#e06048" stroke="#e06048" stroke-width="1.51"/><path d="M531,202L652,231L652,111Z" fill="#fdad90" stroke="#fdad90" stroke-width="1.51"/><path d="M567,1099L582,1218L672,1192Z" fill="#d65f47" stroke="#d65f47" stroke-width="1.51"/><path d="M669,689L531,763L678,737Z" fill="#fa7658" stroke="#fa7658" stroke-width="1.51"/><path d="M521,534L540,656L634,513Z" fill="#fd8a69" stroke="#fd8a69" stroke-width="1.51"/><path d="M540,656L531,763L669,689Z" fill="#fb7c5d" stroke="#fb7c5d" stroke-width="1.51"/><path d="M566,886L533,975L650,1000Z" fill="#eb694f" stroke="#eb694f" stroke-width="1.51"/><path d="M579,-38L552,46L666,-9Z" fill="#ffbea7" stroke="#ffbea7" stroke-width="1.51"/><path d="M584,461L634,513L634,442Z" fill="#fc8f6f" stroke="#fc8f6f" stroke-width="1.51"/><path d="M536,304L584,461L634,442Z" fill="#fd9878" stroke="#fd9878" stroke-width="1.51"/><path d="M241,1325L97,1379L337,1324Z" fill="#c0705f" stroke="#c0705f" stroke-width="1.51"/><path d="M533,975L567,1099L650,1000Z" fill="#e5654c" stroke="#e5654c" stroke-width="1.51"/><path d="M531,202L536,304L652,231Z" fill="#fda98c" stroke="#fda98c" stroke-width="1.51"/><path d="M552,46L531,202L652,111Z" fill="#feb59a" stroke="#feb59a" stroke-width="1.51"/><path d="M517,-188L579,-38L646,-114Z" fill="#ffc5b1" stroke="#ffc5b1" stroke-width="1.51"/><path d="M584,461L521,534L634,513Z" fill="#fd8f6f" stroke="#fd8f6f" stroke-width="1.51"/><path d="M292,-152L449,-153L517,-188Z" fill="#ffd3c2" stroke="#ffd3c2" stroke-width="1.51"/><path d="M449,-153L460,-56L517,-188Z" fill="#ffcdbb" stroke="#ffcdbb" stroke-width="1.51"/><path d="M482,173L531,202L552,46Z" fill="#fdb79c" stroke="#fdb79c" stroke-width="1.51"/><path d="M517,-188L460,-56L579,-38Z" fill="#ffc9b4" stroke="#ffc9b4" stroke-width="1.51"/><path d="M422,1250L477,1356L582,1218Z" fill="#c8624d" stroke="#c8624d" stroke-width="1.51"/><path d="M567,1099L447,1134L582,1218Z" fill="#d9654d" stroke="#d9654d" stroke-width="1.51"/><path d="M536,304L438,337L584,461Z" fill="#fda182" stroke="#fda182" stroke-width="1.51"/><path d="M438,337L444,468L584,461Z" fill="#fd9d7e" stroke="#fd9d7e" stroke-width="1.51"/><path d="M582,1218L477,1356L585,1340Z" fill="#c25c48" stroke="#c25c48" stroke-width="1.51"/><path d="M531,763L451,885L566,886Z" fill="#f57559" stroke="#f57559" stroke-width="1.51"/><path d="M444,468L521,534L584,461Z" fill="#fd9575" stroke="#fd9575" stroke-width="1.51"/><path d="M444,468L460,509L521,534Z" fill="#fd9777" stroke="#fd9777" stroke-width="1.51"/><path d="M460,-56L552,46L579,-38Z" fill="#ffc4ae" stroke="#ffc4ae" stroke-width="1.51"/><path d="M447,1134L422,1250L582,1218Z" fill="#d46750" stroke="#d46750" stroke-width="1.51"/><path d="M521,534L485,651L540,656Z" fill="#fd8969" stroke="#fd8969" stroke-width="1.51"/><path d="M533,975L447,1134L567,1099Z" fill="#e16950" stroke="#e16950" stroke-width="1.51"/><path d="M427,969L447,1134L533,975Z" fill="#e56e55" stroke="#e56e55" stroke-width="1.51"/><path d="M485,651L531,763L540,656Z" fill="#fc8263" stroke="#fc8263" stroke-width="1.51"/><path d="M451,885L533,975L566,886Z" fill="#ef7055" stroke="#ef7055" stroke-width="1.51"/><path d="M423,772L451,885L531,763Z" fill="#f97b5e" stroke="#f97b5e" stroke-width="1.51"/><path d="M408,121L482,173L552,46Z" fill="#febca3" stroke="#febca3" stroke-width="1.51"/><path d="M460,-56L408,121L552,46Z" fill="#fec4ad" stroke="#fec4ad" stroke-width="1.51"/><path d="M485,651L423,772L531,763Z" fill="#fb8263" stroke="#fb8263" stroke-width="1.51"/><path d="M451,885L427,969L533,975Z" fill="#ed7258" stroke="#ed7258" stroke-width="1.51"/><path d="M531,202L482,173L536,304Z" fill="#fdaf92" stroke="#fdaf92" stroke-width="1.51"/><path d="M482,173L438,337L536,304Z" fill="#fdad90" stroke="#fdad90" stroke-width="1.51"/><path d="M460,509L485,651L521,534Z" fill="#fd8f70" stroke="#fd8f70" stroke-width="1.51"/><path d="M427,969L354,1041L447,1134Z" fill="#e37259" stroke="#e37259" stroke-width="1.51"/><path d="M358,512L342,632L460,509Z" fill="#fe997a" stroke="#fe997a" stroke-width="1.51"/><path d="M352,120L408,121L460,-56Z" fill="#fdc6af" stroke="#fdc6af" stroke-width="1.51"/><path d="M408,121L324,219L482,173Z" fill="#fdbca2" stroke="#fdbca2" stroke-width="1.51"/><path d="M362,314L438,337L482,173Z" fill="#fdb094" stroke="#fdb094" stroke-width="1.51"/><path d="M324,219L362,314L482,173Z" fill="#fcb79c" stroke="#fcb79c" stroke-width="1.51"/><path d="M460,509L342,632L485,651Z" fill="#fe9272" stroke="#fe9272" stroke-width="1.51"/><path d="M342,632L423,772L485,651Z" fill="#fc8a6c" stroke="#fc8a6c" stroke-width="1.51"/><path d="M307,-76L352,120L460,-56Z" fill="#feceba" stroke="#feceba" stroke-width="1.51"/><path d="M422,1250L337,1324L477,1356Z" fill="#c26652" stroke="#c26652" stroke-width="1.51"/><path d="M438,337L339,431L444,468Z" fill="#fda486" stroke="#fda486" stroke-width="1.51"/><path d="M360,1261L337,1324L422,1250Z" fill="#c86b56" stroke="#c86b56" stroke-width="1.51"/><path d="M368,1143L422,1250L447,1134Z" fill="#d76d56" stroke="#d76d56" stroke-width="1.51"/><path d="M354,1041L368,1143L447,1134Z" fill="#de7159" stroke="#de7159" stroke-width="1.51"/><path d="M423,772L346,860L451,885Z" fill="#f67e61" stroke="#f67e61" stroke-width="1.51"/><path d="M444,468L358,512L460,509Z" fill="#fd9b7c" stroke="#fd9b7c" stroke-width="1.51"/><path d="M449,-153L307,-76L460,-56Z" fill="#ffd0bf" stroke="#ffd0bf" stroke-width="1.51"/><path d="M342,632L327,773L423,772Z" fill="#fc8a6d" stroke="#fc8a6d" stroke-width="1.51"/><path d="M362,314L339,431L438,337Z" fill="#fdab8e" stroke="#fdab8e" stroke-width="1.51"/><path d="M292,-152L307,-76L449,-153Z" fill="#ffd6c5" stroke="#ffd6c5" stroke-width="1.51"/><path d="M346,860L427,969L451,885Z" fill="#f17a5f" stroke="#f17a5f" stroke-width="1.51"/><path d="M352,120L324,219L408,121Z" fill="#fdc0a8" stroke="#fdc0a8" stroke-width="1.51"/><path d="M339,431L358,512L444,468Z" fill="#fda183" stroke="#fda183" stroke-width="1.51"/><path d="M368,1143L360,1261L422,1250Z" fill="#d26d57" stroke="#d26d57" stroke-width="1.51"/><path d="M327,773L346,860L423,772Z" fill="#fa8366" stroke="#fa8366" stroke-width="1.51"/><path d="M346,860L354,1041L427,969Z" fill="#ed785f" stroke="#ed785f" stroke-width="1.51"/><path d="M346,860L247,1000L354,1041Z" fill="#ed7c64" stroke="#ed7c64" stroke-width="1.51"/><path d="M194,-14L213,93L307,-76Z" fill="#fed6c5" stroke="#fed6c5" stroke-width="1.51"/><path d="M238,619L327,773L342,632Z" fill="#fe9376" stroke="#fe9376" stroke-width="1.51"/><path d="M307,-76L213,93L352,120Z" fill="#fecfbb" stroke="#fecfbb" stroke-width="1.51"/><path d="M238,619L342,632L358,512Z" fill="#ff9a7c" stroke="#ff9a7c" stroke-width="1.51"/><path d="M242,342L339,431L362,314Z" fill="#fdaf93" stroke="#fdaf93" stroke-width="1.51"/><path d="M354,1041L201,1132L368,1143Z" fill="#df7760" stroke="#df7760" stroke-width="1.51"/><path d="M201,1132L240,1220L368,1143Z" fill="#da7761" stroke="#da7761" stroke-width="1.51"/><path d="M240,1220L360,1261L368,1143Z" fill="#d5725c" stroke="#d5725c" stroke-width="1.51"/><path d="M199,876L247,1000L346,860Z" fill="#f3836a" stroke="#f3836a" stroke-width="1.51"/><path d="M247,1000L201,1132L354,1041Z" fill="#e57b64" stroke="#e57b64" stroke-width="1.51"/><path d="M197,564L238,619L358,512Z" fill="#ff9f82" stroke="#ff9f82" stroke-width="1.51"/><path d="M324,219L242,342L362,314Z" fill="#fdb79c" stroke="#fdb79c" stroke-width="1.51"/><path d="M339,431L197,564L358,512Z" fill="#ffa386" stroke="#ffa386" stroke-width="1.51"/><path d="M240,1220L337,1324L360,1261Z" fill="#cb6f5b" stroke="#cb6f5b" stroke-width="1.51"/><path d="M240,1220L241,1325L337,1324Z" fill="#c8705d" stroke="#c8705d" stroke-width="1.51"/><path d="M213,93L324,219L352,120Z" fill="#fdc5af" stroke="#fdc5af" stroke-width="1.51"/><path d="M238,619L241,795L327,773Z" fill="#fe9074" stroke="#fe9074" stroke-width="1.51"/><path d="M327,773L241,795L346,860Z" fill="#fb876b" stroke="#fb876b" stroke-width="1.51"/><path d="M88,-172L247,-129L292,-152Z" fill="#ffe0d3" stroke="#ffe0d3" stroke-width="1.51"/><path d="M214,393L197,564L339,431Z" fill="#ffaa8e" stroke="#ffaa8e" stroke-width="1.51"/><path d="M242,342L214,393L339,431Z" fill="#feaf94" stroke="#feaf94" stroke-width="1.51"/><path d="M241,795L199,876L346,860Z" fill="#f9886d" stroke="#f9886d" stroke-width="1.51"/><path d="M213,93L178,187L324,219Z" fill="#fec7b1" stroke="#fec7b1" stroke-width="1.51"/><path d="M178,187L242,342L324,219Z" fill="#febfa6" stroke="#febfa6" stroke-width="1.51"/><path d="M292,-152L247,-129L307,-76Z" fill="#ffdaca" stroke="#ffdaca" stroke-width="1.51"/><path d="M-162,-136L23,-147L88,-172Z" fill="#ffebe3" stroke="#ffebe3" stroke-width="1.51"/><path d="M247,-129L194,-14L307,-76Z" fill="#ffd9ca" stroke="#ffd9ca" stroke-width="1.51"/><path d="M129,915L136,974L199,876Z" fill="#f48a72" stroke="#f48a72" stroke-width="1.51"/><path d="M136,974L102,1110L201,1132Z" fill="#e6836d" stroke="#e6836d" stroke-width="1.51"/><path d="M55,470L197,564L214,393Z" fill="#ffaf94" stroke="#ffaf94" stroke-width="1.51"/><path d="M240,1220L127,1249L241,1325Z" fill="#cd7664" stroke="#cd7664" stroke-width="1.51"/><path d="M238,619L125,626L241,795Z" fill="#ff997d" stroke="#ff997d" stroke-width="1.51"/><path d="M125,626L64,746L241,795Z" fill="#ff997f" stroke="#ff997f" stroke-width="1.51"/><path d="M178,187L128,235L242,342Z" fill="#fec3ab" stroke="#fec3ab" stroke-width="1.51"/><path d="M128,235L105,271L242,342Z" fill="#ffc1aa" stroke="#ffc1aa" stroke-width="1.51"/><path d="M136,974L201,1132L247,1000Z" fill="#e9816a" stroke="#e9816a" stroke-width="1.51"/><path d="M199,876L136,974L247,1000Z" fill="#f1856d" stroke="#f1856d" stroke-width="1.51"/><path d="M129,-50L194,-14L247,-129Z" fill="#ffddce" stroke="#ffddce" stroke-width="1.51"/><path d="M88,-172L129,-50L247,-129Z" fill="#ffe2d5" stroke="#ffe2d5" stroke-width="1.51"/><path d="M201,1132L127,1249L240,1220Z" fill="#d97b66" stroke="#d97b66" stroke-width="1.51"/><path d="M105,271L214,393L242,342Z" fill="#ffbaa2" stroke="#ffbaa2" stroke-width="1.51"/><path d="M127,1249L97,1379L241,1325Z" fill="#c57666" stroke="#c57666" stroke-width="1.51"/><path d="M64,746L199,876L241,795Z" fill="#fe9076" stroke="#fe9076" stroke-width="1.51"/><path d="M197,564L125,626L238,619Z" fill="#ffa185" stroke="#ffa185" stroke-width="1.51"/><path d="M55,470L75,578L197,564Z" fill="#ffac91" stroke="#ffac91" stroke-width="1.51"/><path d="M64,746L129,915L199,876Z" fill="#fb9077" stroke="#fb9077" stroke-width="1.51"/><path d="M102,1110L127,1249L201,1132Z" fill="#dc7f6b" stroke="#dc7f6b" stroke-width="1.51"/><path d="M194,-14L128,110L213,93Z" fill="#fed5c3" stroke="#fed5c3" stroke-width="1.51"/><path d="M128,110L178,187L213,93Z" fill="#fecebb" stroke="#fecebb" stroke-width="1.51"/><path d="M105,271L55,470L214,393Z" fill="#ffb9a1" stroke="#ffb9a1" stroke-width="1.51"/><path d="M129,-50L128,110L194,-14Z" fill="#fedacb" stroke="#fedacb" stroke-width="1.51"/><path d="M75,578L125,626L197,564Z" fill="#ffa68a" stroke="#ffa68a" stroke-width="1.51"/><path d="M128,110L128,235L178,187Z" fill="#fdccb8" stroke="#fdccb8" stroke-width="1.51"/><path d="M-2,1210L-53,1336L97,1379Z" fill="#c87d6e" stroke="#c87d6e" stroke-width="1.51"/><path d="M2,992L8,1098L102,1110Z" fill="#e88874" stroke="#e88874" stroke-width="1.51"/><path d="M-36,400L55,470L105,271Z" fill="#ffbda6" stroke="#ffbda6" stroke-width="1.51"/><path d="M-46,328L-36,400L105,271Z" fill="#ffc4ad" stroke="#ffc4ad" stroke-width="1.51"/><path d="M102,1110L-2,1210L127,1249Z" fill="#db836f" stroke="#db836f" stroke-width="1.51"/><path d="M-2,1210L97,1379L127,1249Z" fill="#cc7d6c" stroke="#cc7d6c" stroke-width="1.51"/><path d="M-35,-13L-55,65L128,110Z" fill="#feddcf" stroke="#feddcf" stroke-width="1.51"/><path d="M4,168L128,235L128,110Z" fill="#fed0bd" stroke="#fed0bd" stroke-width="1.51"/><path d="M64,746L-41,893L129,915Z" fill="#fc937c" stroke="#fc937c" stroke-width="1.51"/><path d="M88,-172L23,-147L129,-50Z" fill="#ffe6dc" stroke="#ffe6dc" stroke-width="1.51"/><path d="M-35,-13L128,110L129,-50Z" fill="#fedfd0" stroke="#fedfd0" stroke-width="1.51"/><path d="M129,915L2,992L136,974Z" fill="#f18b75" stroke="#f18b75" stroke-width="1.51"/><path d="M2,992L102,1110L136,974Z" fill="#ec8873" stroke="#ec8873" stroke-width="1.51"/><path d="M75,578L64,746L125,626Z" fill="#ffa388" stroke="#ffa388" stroke-width="1.51"/><path d="M4,168L105,271L128,235Z" fill="#fecbb7" stroke="#fecbb7" stroke-width="1.51"/><path d="M-55,65L4,168L128,110Z" fill="#fed7c7" stroke="#fed7c7" stroke-width="1.51"/><path d="M-41,893L2,992L129,915Z" fill="#f48f79" stroke="#f48f79" stroke-width="1.51"/><path d="M23,-147L-35,-13L129,-50Z" fill="#ffe5da" stroke="#ffe5da" stroke-width="1.51"/><path d="M-4,740L64,746L75,578Z" fill="#ffa187" stroke="#ffa187" stroke-width="1.51"/><path d="M-4,740L-41,893L64,746Z" fill="#ff9981" stroke="#ff9981" stroke-width="1.51"/><path d="M-57,648L-4,740L75,578Z" fill="#ffa68d" stroke="#ffa68d" stroke-width="1.51"/><path d="M55,470L10,520L75,578Z" fill="#ffb096" stroke="#ffb096" stroke-width="1.51"/><path d="M8,1098L-2,1210L102,1110Z" fill="#e08572" stroke="#e08572" stroke-width="1.51"/><path d="M4,168L-46,328L105,271Z" fill="#ffcbb6" stroke="#ffcbb6" stroke-width="1.51"/><path d="M10,520L-57,648L75,578Z" fill="#ffac92" stroke="#ffac92" stroke-width="1.51"/><path d="M-36,400L10,520L55,470Z" fill="#ffb79f" stroke="#ffb79f" stroke-width="1.51"/><path d="M-128,215L-121,285L-46,328Z" fill="#ffcdb9" stroke="#ffcdb9" stroke-width="1.51"/><path d="M-115,801L-41,893L-4,740Z" fill="#ff9a83" stroke="#ff9a83" stroke-width="1.51"/><path d="M-103,1253L-53,1336L-2,1210Z" fill="#d08273" stroke="#d08273" stroke-width="1.51"/><path d="M-128,215L-46,328L4,168Z" fill="#ffcfbc" stroke="#ffcfbc" stroke-width="1.51"/><path d="M-92,1148L-2,1210L8,1098Z" fill="#e18775" stroke="#e18775" stroke-width="1.51"/><path d="M-96,579L-57,648L10,520Z" fill="#ffae95" stroke="#ffae95" stroke-width="1.51"/><path d="M-36,400L-104,439L10,520Z" fill="#ffbaa3" stroke="#ffbaa3" stroke-width="1.51"/><path d="M-162,-136L-96,-72L23,-147Z" fill="#ffede3" stroke="#ffede3" stroke-width="1.51"/><path d="M-96,-72L-35,-13L23,-147Z" fill="#ffe9de" stroke="#ffe9de" stroke-width="1.51"/><path d="M2,992L-154,1026L8,1098Z" fill="#ec8c79" stroke="#ec8c79" stroke-width="1.51"/><path d="M-154,1026L-92,1148L8,1098Z" fill="#e78b79" stroke="#e78b79" stroke-width="1.51"/><path d="M-104,439L-96,579L10,520Z" fill="#ffb59d" stroke="#ffb59d" stroke-width="1.51"/><path d="M-55,65L-117,80L4,168Z" fill="#ffdbcc" stroke="#ffdbcc" stroke-width="1.51"/><path d="M-41,893L-154,1026L2,992Z" fill="#f3907c" stroke="#f3907c" stroke-width="1.51"/><path d="M-117,80L-128,215L4,168Z" fill="#ffd8c7" stroke="#ffd8c7" stroke-width="1.51"/><path d="M-116,886L-154,1026L-41,893Z" fill="#f69480" stroke="#f69480" stroke-width="1.51"/><path d="M-92,1148L-103,1253L-2,1210Z" fill="#db8775" stroke="#db8775" stroke-width="1.51"/><path d="M-57,648L-115,801L-4,740Z" fill="#ffa189" stroke="#ffa189" stroke-width="1.51"/><path d="M-131,656L-115,801L-57,648Z" fill="#ffa58e" stroke="#ffa58e" stroke-width="1.51"/><path d="M-115,801L-116,886L-41,893Z" fill="#fd9883" stroke="#fd9883" stroke-width="1.51"/><path d="M-46,328L-104,439L-36,400Z" fill="#ffc0aa" stroke="#ffc0aa" stroke-width="1.51"/><path d="M-117,80L-55,65L-35,-13Z" fill="#ffe1d4" stroke="#ffe1d4" stroke-width="1.51"/><path d="M-96,-72L-117,80L-35,-13Z" fill="#ffe6db" stroke="#ffe6db" stroke-width="1.51"/><path d="M-121,285L-104,439L-46,328Z" fill="#ffc5b0" stroke="#ffc5b0" stroke-width="1.51"/><path d="M-96,579L-131,656L-57,648Z" fill="#ffac93" stroke="#ffac93" stroke-width="1.51"/><path d="M-103,1253L-160,1307L-53,1336Z" fill="#cb8274" stroke="#cb8274" stroke-width="1.51"/><path d="M-104,439L-131,656L-96,579Z" fill="#ffb39b" stroke="#ffb39b" stroke-width="1.51"/><path d="M-162,-136L-117,80L-96,-72Z" fill="#ffeae0" stroke="#ffeae0" stroke-width="1.51"/><path d="M-160,1307L-103,1253L-92,1148Z" fill="#d68777" stroke="#d68777" stroke-width="1.51"/><path d="M-154,1026L-160,1307L-92,1148Z" fill="#e18b7a" stroke="#e18b7a" stroke-width="1.51"/><path d="M-121,285L-131,656L-104,439Z" fill="#ffbca6" stroke="#ffbca6" stroke-width="1.51"/><path d="M-154,1026L-116,886L-115,801Z" fill="#f99782" stroke="#f99782" stroke-width="1.51"/><path d="M-131,656L-154,1026L-115,801Z" fill="#ff9c86" stroke="#ff9c86" stroke-width="1.51"/><path d="M-128,215L-131,656L-121,285Z" fill="#ffc3ae" stroke="#ffc3ae" stroke-width="1.51"/><path d="M-162,-136L-128,215L-117,80Z" fill="#ffe3d7" stroke="#ffe3d7" stroke-width="1.51"/><path d="M-162,-136L-131,656L-128,215Z" fill="#ffd1c0" stroke="#ffd1c0" stroke-width="1.51"/><path d="M-162,-136L-154,1026L-131,656Z" fill="#ffb8a1" stroke="#ffb8a1" stroke-width="1.51"/></svg>