<?xml version="1.0" encoding="UTF-8" standalone="no"?>
<!-- Generator: Adobe Illustrator 19.0.0, SVG Export Plug-In . SVG Version: 6.00 Build 0)  -->
<svg xmlns:dc="http://purl.org/dc/elements/1.1/" xmlns:cc="http://creativecommons.org/ns#" xmlns:rdf="http://www.w3.org/1999/02/22-rdf-syntax-ns#" xmlns:svg="http://www.w3.org/2000/svg" xmlns="http://www.w3.org/2000/svg" xmlns:sodipodi="http://sodipodi.sourceforge.net/DTD/sodipodi-0.dtd" xmlns:inkscape="http://www.inkscape.org/namespaces/inkscape" version="1.1" id="Ebene_1" x="0px" y="0px" viewBox="0 0 285 70" xml:space="preserve" inkscape:version="0.91 r13725" sodipodi:docname="lastbreach-logo-285x70.svg" width="285" height="70"><metadata id="metadata26"><rdf:RDF><cc:Work rdf:about=""><dc:format>image/svg+xml</dc:format><dc:type rdf:resource="http://purl.org/dc/dcmitype/StillImage"/><dc:title/></cc:Work></rdf:RDF></metadata><defs id="defs24"/><sodipodi:namedview pagecolor="#ffffff" bordercolor="#666666" borderopacity="1" objecttolerance="10" gridtolerance="10" guidetolerance="10" inkscape:pageopacity="0" inkscape:pageshadow="2" inkscape:window-width="1920" inkscape:window-height="1021" id="namedview22" showgrid="false" inkscape:zoom="2" inkscape:cx="56.536834" inkscape:cy="98.589189" inkscape:window-x="-4" inkscape:window-y="0" inkscape:window-maximized="1" inkscape:current-layer="Ebene_1"/><style type="text/css" id="style3">
	.st0{fill:#222222;}
	.st1{fill:#B60000;}
	.st2{fill-rule:evenodd;clip-rule:evenodd;fill:#B60000;}
	.st3{fill-rule:evenodd;clip-rule:evenodd;fill:#DB0000;}
	.st4{fill-rule:evenodd;clip-rule:evenodd;fill:#7C0000;}
	.st5{fill-rule:evenodd;clip-rule:evenodd;fill:#222222;}
</style><g id="XMLID_11_" transform="matrix(0.81977679,0,0,0.81977679,0.72089279,2.5435346)"><path id="XMLID_12_" class="st0" d="m 125.9,53.2 -5.9,0 0,-45.7 5.9,0 0,45.7 z" inkscape:connector-curvature="0" style="fill:#222222"/><path id="XMLID_14_" class="st0" d="m 148.2,53.2 c -0.2,-0.7 -0.4,-1.4 -0.5,-2.1 -0.1,-0.7 -0.2,-1.3 -0.3,-1.9 l -0.1,0 c -0.8,1.3 -1.8,2.5 -3,3.3 -1.2,0.9 -2.6,1.3 -4.1,1.3 -2.6,0 -4.6,-0.8 -6,-2.5 -1.4,-1.7 -2.1,-3.9 -2.1,-6.8 0,-3.1 1,-5.5 2.9,-7.2 1.9,-1.7 4.7,-2.5 8.3,-2.5 l 4.1,0 0,-3.3 c 0,-2 -0.4,-3.5 -1.2,-4.6 -0.8,-1.1 -1.9,-1.6 -3.4,-1.6 -1.3,0 -2.4,0.5 -3.2,1.4 -0.8,0.9 -1.1,2.2 -1.1,3.7 l -5.9,0 c 0,-2.6 1,-4.8 2.9,-6.7 1.9,-1.9 4.5,-2.8 7.7,-2.8 3,0 5.5,0.9 7.3,2.7 1.8,1.8 2.7,4.5 2.7,8 l 0,14.7 c 0,1.2 0.1,2.4 0.2,3.5 0.1,1.1 0.4,2.3 0.7,3.4 l -5.9,0 z m -6.6,-4 c 1.3,0 2.4,-0.4 3.5,-1.2 1,-0.8 1.8,-1.8 2.3,-3 l 0,-6.6 -4.2,0 c -1.7,0 -3,0.6 -3.9,1.7 -0.9,1.2 -1.3,2.6 -1.3,4.3 0,1.4 0.3,2.6 0.9,3.5 0.6,0.9 1.5,1.3 2.7,1.3 z" inkscape:connector-curvature="0" style="fill:#222222"/><path id="XMLID_17_" class="st0" d="m 173.8,45.3 c 0,-1.3 -0.4,-2.3 -1.1,-3.1 -0.7,-0.8 -2.2,-1.8 -4.3,-2.8 -3.2,-1.3 -5.5,-2.6 -7,-4 -1.5,-1.4 -2.2,-3.3 -2.2,-5.6 0,-2.5 0.9,-4.6 2.7,-6.3 1.8,-1.7 4.2,-2.5 7.3,-2.5 3.2,0 5.7,0.9 7.5,2.8 1.8,1.8 2.8,4.2 2.8,7.1 l -5.9,0 c 0,-1.5 -0.4,-2.8 -1.1,-3.9 -0.8,-1.1 -1.8,-1.6 -3.3,-1.6 -1.4,0 -2.5,0.4 -3.2,1.2 -0.7,0.8 -1.1,1.8 -1.1,3 0,1.2 0.3,2.2 1,2.9 0.6,0.7 2.1,1.6 4.3,2.8 3.2,1.2 5.6,2.6 7.1,4 1.5,1.5 2.3,3.4 2.3,5.8 0,2.7 -0.9,4.8 -2.8,6.4 -1.9,1.6 -4.4,2.4 -7.5,2.4 -3.4,0 -6.1,-1 -8,-2.9 -1.9,-2 -2.8,-4.3 -2.8,-7.1 l 5.7,0 c 0.1,2.1 0.6,3.6 1.5,4.5 0.9,0.9 2.2,1.3 3.7,1.3 1.4,0 2.6,-0.4 3.3,-1.2 0.7,-0.9 1.1,-1.9 1.1,-3.2 z" inkscape:connector-curvature="0" style="fill:#222222"/><path id="XMLID_19_" class="st0" d="m 192,13.6 0,7.9 4.6,0 0,4.2 -4.6,0 0,18.9 c 0,1.7 0.2,2.9 0.6,3.5 0.4,0.7 0.9,1 1.6,1 0.4,0 0.8,0 1.1,-0.1 0.3,-0.1 0.7,-0.1 1,-0.2 l 0.6,4.1 c -0.5,0.3 -1.2,0.5 -1.9,0.7 -0.7,0.2 -1.5,0.2 -2.3,0.2 -2.1,0 -3.8,-0.7 -4.9,-2.2 -1.1,-1.4 -1.7,-3.8 -1.7,-7 l 0,-18.8 -3.5,0 0,-4.2 3.5,0 0,-7.9 5.9,0 z" inkscape:connector-curvature="0" style="fill:#222222"/><path id="XMLID_21_" class="st1" d="m 222.70013,40.201074 c 0,4.2 -1.00013,7.598926 -2.70013,9.998926 -1.7,2.4 -4,3.6 -7,3.6 -1.8,0 -3.3,-0.4 -4.5,-1.2 -1.2,-0.8 -2.3,-2 -3,-3.5 l -0.1,0 -0.3,4.1 -3,0 0,-45.7 3.5,0 0,18.1 0.1,0 c 0.8,-1.5 1.8,-2.7 3,-3.5 1.2,-0.8 2.7,-1.2 4.4,-1.2 3.1,0 5.4,1.3 7.1,3.9 1.7,2.6 2.5,6.1 2.5,10.5 l 0,4.9 z M 219.1,35.4 c 0,-3.4 -0.6,-6.1 -1.7,-8.2 -1.1,-2.1 -2.9,-3.1 -5.2,-3.1 -1.7,0 -3.1,0.5 -4.2,1.6 -1.1,1.1 -1.9,2.5 -2.5,4.4 l 0,15.1 c 0.6,1.7 1.5,3.1 2.6,4.1 1.1,1 2.5,1.5 4.1,1.5 2.3,0 4,-0.9 5.2,-2.8 1.2,-1.9 1.7,-4.5 1.7,-7.7 z" inkscape:connector-curvature="0" style="fill:#b60000" sodipodi:nodetypes="csssccccccccssssccssssccsssss"/><path id="XMLID_24_" class="st1" d="m 240.9,24.7 -2.3,-0.2 c -1.5,0 -2.8,0.5 -3.7,1.6 -1,1 -1.7,2.5 -2.2,4.4 l 0,22.7 -3.5,0 0,-31.7 3,0 0.4,4.9 0.1,0 c 0.7,-1.7 1.6,-3.1 2.7,-4.1 1.1,-1 2.5,-1.5 4,-1.5 0.4,0 0.7,0 1.1,0.1 0.3,0.1 0.6,0.1 0.8,0.2 l -0.4,3.6 z" inkscape:connector-curvature="0" style="fill:#b60000"/><path id="XMLID_26_" class="st1" d="m 255.2,53.8 c -3.2,0 -5.9,-1.3 -7.9,-3.8 -2,-2.5 -3,-5.8 -3,-9.9 l 0,-5.3 c 0,-4.1 1,-7.4 3,-10 2,-2.6 4.5,-3.9 7.5,-3.9 3.2,0 5.7,1.2 7.4,3.5 1.7,2.3 2.6,5.5 2.6,9.6 l 0,3.5 -17,0 0,2.6 c 0,3.1 0.6,5.7 1.9,7.7 1.3,2 3.1,3 5.5,3 1.8,0 3.3,-0.3 4.5,-0.9 1.2,-0.6 2.2,-1.5 2.9,-2.6 l 1.4,2.5 c -0.9,1.3 -2.1,2.3 -3.5,3 -1.4,0.7 -3.2,1 -5.3,1 z M 254.9,24 c -2.1,0 -3.7,1 -5,3 -1.3,2 -2,4.5 -2,7.5 l 13.6,0 0,-1.3 c 0,-2.7 -0.6,-4.9 -1.7,-6.6 C 258.7,24.9 257,24 254.9,24 Z" inkscape:connector-curvature="0" style="fill:#b60000"/><path id="XMLID_29_" class="st1" d="m 286.4,53.2 c -0.2,-1.3 -0.3,-2.2 -0.4,-2.8 -0.1,-0.6 -0.1,-1.2 -0.1,-1.8 l -0.1,0 c -0.9,1.5 -2,2.8 -3.4,3.8 -1.4,1 -3,1.5 -4.7,1.5 -2.5,0 -4.5,-0.8 -5.8,-2.4 -1.3,-1.6 -2,-3.8 -2,-6.6 0,-3 1,-5.4 2.9,-7.1 1.9,-1.7 4.6,-2.6 8,-2.6 l 5.2,0 0,-3.9 c 0,-2.3 -0.5,-4.1 -1.6,-5.3 -1,-1.2 -2.5,-1.9 -4.4,-1.9 -1.8,0 -3.3,0.6 -4.4,1.8 -1.1,1.2 -1.7,2.7 -1.7,4.5 l -3.5,0 c 0,-2.5 0.9,-4.7 2.7,-6.6 1.8,-1.9 4.1,-2.8 7,-2.8 2.8,0 5.1,0.9 6.7,2.6 1.7,1.7 2.5,4.3 2.5,7.7 l 0,15.6 c 0,1.1 0,2.2 0.1,3.3 0.1,1.1 0.2,2.1 0.5,3.1 l -3.5,0 z m -8.3,-2.6 c 1.8,0 3.4,-0.5 4.8,-1.6 1.4,-1.1 2.4,-2.5 3,-4.3 l 0,-6.9 -5.2,0 c -2.3,0 -4.1,0.7 -5.4,2 -1.3,1.3 -1.9,3 -1.9,5.1 0,1.7 0.4,3.1 1.2,4.2 0.8,1.1 2,1.5 3.5,1.5 z" inkscape:connector-curvature="0" style="fill:#b60000"/><path id="XMLID_32_" class="st1" d="m 306.7,50.8 c 1.7,0 3.2,-0.6 4.5,-1.9 1.3,-1.3 1.9,-3.1 1.9,-5.5 l 3.3,0 c 0,3.1 -0.9,5.6 -2.9,7.6 -2,2 -4.2,2.9 -6.8,2.9 -3.6,0 -6.2,-1.3 -8.1,-3.8 -1.9,-2.5 -2.7,-5.9 -2.7,-10.1 l 0,-4.9 c 0,-4.2 0.9,-7.5 2.7,-10.1 1.8,-2.6 4.5,-3.9 8,-3.9 2.9,0 5.2,1 7,3.1 1.8,2 2.7,4.8 2.7,8.3 l -3.3,0 c 0,-2.6 -0.5,-4.6 -1.8,-6.1 -1.3,-1.5 -2.8,-2.2 -4.7,-2.2 -2.6,0 -4.5,1 -5.6,3 -1.1,2 -1.7,4.6 -1.7,7.9 l 0,4.9 c 0,3.3 0.6,5.9 1.7,7.9 1.1,2 3.2,2.9 5.8,2.9 z" inkscape:connector-curvature="0" style="fill:#b60000"/><path id="XMLID_34_" class="st1" d="m 326,26.2 0,0 c 0.9,-1.6 2,-2.9 3.3,-3.9 1.3,-0.9 2.8,-1.4 4.5,-1.4 2.7,0 4.7,1 6.1,3 1.4,2 2.1,5.2 2.1,9.7 l 0,19.6 -3.5,0 0,-19.6 c 0,-3.5 -0.5,-5.9 -1.4,-7.4 -0.9,-1.5 -2.4,-2.2 -4.3,-2.2 -1.6,0 -2.9,0.6 -4.1,1.7 -1.1,1.1 -2.1,2.6 -2.7,4.4 l 0,23 -3.5,0 0,-45.6 3.5,0 0,18.7 z" inkscape:connector-curvature="0" style="fill:#b60000"/></g><path id="XMLID_7_" class="st2" d="m 58.433181,40.17129 -5.574484,-31.3974518 33.528873,0 L 80.813085,40.253269 69.582146,51.402233 58.433181,40.17129 Z" inkscape:connector-curvature="0" style="clip-rule:evenodd;fill:#b60000;fill-rule:evenodd"/><path id="XMLID_5_" class="st3" d="M 58.433181,40.17129 86.38948,8.774716 80.813085,40.17129 69.582146,51.402233 Z" inkscape:connector-curvature="0" style="clip-rule:evenodd;fill:#db0000;fill-rule:evenodd" sodipodi:nodetypes="ccccc"/><path id="XMLID_3_" class="st4" d="M 58.433181,40.17129 52.858697,8.7686736 69.582146,51.402233 Z" inkscape:connector-curvature="0" style="clip-rule:evenodd;fill:#7c0000;fill-rule:evenodd" sodipodi:nodetypes="cccc"/><path id="XMLID_1_" class="st5" d="M 61.384375,59.6 12.197768,59.6 4,56.730781 l 8.197768,-2.869219 49.186607,0 0,5.738438 z" inkscape:connector-curvature="0" style="clip-rule:evenodd;fill:#222222;fill-rule:evenodd"/><g id="XMLID_9_" transform="matrix(0.81977679,0,0,0.81977679,0.72089279,2.5435346)"><polygon id="XMLID_10_" class="st5" points="94,62.5 94,69.5 224,69.6 234,66.1 224,62.6 " style="clip-rule:evenodd;fill:#222222;fill-rule:evenodd"/></g></svg>