<svg xmlns:rdf="http://www.w3.org/1999/02/22-rdf-syntax-ns#" xmlns="http://www.w3.org/2000/svg" xml:space="preserve" viewBox="0 0 285 70" version="1.1" y="0px" x="0px" xmlns:cc="http://creativecommons.org/ns#" xmlns:dc="http://purl.org/dc/elements/1.1/">
<g transform="matrix(.81978 0 0 .81978 .72089 2.5435)"><path d="m125.9 53.2h-5.9v-45.7h5.9v45.7z" fill="#222" class="st0"/><path d="m148.2 53.2c-0.2-0.7-0.4-1.4-0.5-2.1s-0.2-1.3-0.3-1.9h-0.1c-0.8 1.3-1.8 2.5-3 3.3-1.2 0.9-2.6 1.3-4.1 1.3-2.6 0-4.6-0.8-6-2.5s-2.1-3.9-2.1-6.8c0-3.1 1-5.5 2.9-7.2s4.7-2.5 8.3-2.5h4.1v-3.3c0-2-0.4-3.5-1.2-4.6s-1.9-1.6-3.4-1.6c-1.3 0-2.4 0.5-3.2 1.4s-1.1 2.2-1.1 3.7h-5.9c0-2.6 1-4.8 2.9-6.7s4.5-2.8 7.7-2.8c3 0 5.5 0.9 7.3 2.7s2.7 4.5 2.7 8v14.7c0 1.2 0.1 2.4 0.2 3.5s0.4 2.3 0.7 3.4h-5.9zm-6.6-4c1.3 0 2.4-0.4 3.5-1.2 1-0.8 1.8-1.8 2.3-3v-6.6h-4.2c-1.7 0-3 0.6-3.9 1.7-0.9 1.2-1.3 2.6-1.3 4.3 0 1.4 0.3 2.6 0.9 3.5s1.5 1.3 2.7 1.3z" fill="#222" class="st0"/><path d="m173.8 45.3c0-1.3-0.4-2.3-1.1-3.1s-2.2-1.8-4.3-2.8c-3.2-1.3-5.5-2.6-7-4s-2.2-3.3-2.2-5.6c0-2.5 0.9-4.6 2.7-6.3s4.2-2.5 7.3-2.5c3.2 0 5.7 0.9 7.5 2.8 1.8 1.8 2.8 4.2 2.8 7.1h-5.9c0-1.5-0.4-2.8-1.1-3.9-0.8-1.1-1.8-1.6-3.3-1.6-1.4 0-2.5 0.4-3.2 1.2s-1.1 1.8-1.1 3 0.3 2.2 1 2.9c0.6 0.7 2.1 1.6 4.3 2.8 3.2 1.2 5.6 2.6 7.1 4 1.5 1.5 2.3 3.4 2.3 5.8 0 2.7-0.9 4.8-2.8 6.4s-4.4 2.4-7.5 2.4c-3.4 0-6.1-1-8-2.9-1.9-2-2.8-4.3-2.8-7.1h5.7c0.1 2.1 0.6 3.6 1.5 4.5s2.2 1.3 3.7 1.3c1.4 0 2.6-0.4 3.3-1.2 0.7-0.9 1.1-1.9 1.1-3.2z" fill="#222" class="st0"/><path d="m192 13.6v7.9h4.6v4.2h-4.6v18.9c0 1.7 0.2 2.9 0.6 3.5 0.4 0.7 0.9 1 1.6 1 0.4 0 0.8 0 1.1-0.1s0.7-0.1 1-0.2l0.6 4.1c-0.5 0.3-1.2 0.5-1.9 0.7s-1.5 0.2-2.3 0.2c-2.1 0-3.8-0.7-4.9-2.2-1.1-1.4-1.7-3.8-1.7-7v-18.8h-3.5v-4.2h3.5v-7.9h5.9z" fill="#222" class="st0"/><path d="m222.7 40.201c0 4.2-1.0001 7.5989-2.7001 9.9989s-4 3.6-7 3.6c-1.8 0-3.3-0.4-4.5-1.2s-2.3-2-3-3.5h-0.1l-0.3 4.1h-3v-45.7h3.5v18.1h0.1c0.8-1.5 1.8-2.7 3-3.5s2.7-1.2 4.4-1.2c3.1 0 5.4 1.3 7.1 3.9s2.5 6.1 2.5 10.5v4.9zm-3.6-4.801c0-3.4-0.6-6.1-1.7-8.2s-2.9-3.1-5.2-3.1c-1.7 0-3.1 0.5-4.2 1.6s-1.9 2.5-2.5 4.4v15.1c0.6 1.7 1.5 3.1 2.6 4.1s2.5 1.5 4.1 1.5c2.3 0 4-0.9 5.2-2.8s1.7-4.5 1.7-7.7z" class="st1" fill="#b60000"/><path d="m240.9 24.7-2.3-0.2c-1.5 0-2.8 0.5-3.7 1.6-1 1-1.7 2.5-2.2 4.4v22.7h-3.5v-31.7h3l0.4 4.9h0.1c0.7-1.7 1.6-3.1 2.7-4.1s2.5-1.5 4-1.5c0.4 0 0.7 0 1.1 0.1 0.3 0.1 0.6 0.1 0.8 0.2l-0.4 3.6z" fill="#b60000" class="st1"/><path d="m255.2 53.8c-3.2 0-5.9-1.3-7.9-3.8s-3-5.8-3-9.9v-5.3c0-4.1 1-7.4 3-10s4.5-3.9 7.5-3.9c3.2 0 5.7 1.2 7.4 3.5s2.6 5.5 2.6 9.6v3.5h-17v2.6c0 3.1 0.6 5.7 1.9 7.7s3.1 3 5.5 3c1.8 0 3.3-0.3 4.5-0.9s2.2-1.5 2.9-2.6l1.4 2.5c-0.9 1.3-2.1 2.3-3.5 3s-3.2 1-5.3 1zm-0.3-29.8c-2.1 0-3.7 1-5 3s-2 4.5-2 7.5h13.6v-1.3c0-2.7-0.6-4.9-1.7-6.6s-2.8-2.6-4.9-2.6z" fill="#b60000" class="st1"/><path d="m286.4 53.2c-0.2-1.3-0.3-2.2-0.4-2.8s-0.1-1.2-0.1-1.8h-0.1c-0.9 1.5-2 2.8-3.4 3.8s-3 1.5-4.7 1.5c-2.5 0-4.5-0.8-5.8-2.4s-2-3.8-2-6.6c0-3 1-5.4 2.9-7.1s4.6-2.6 8-2.6h5.2v-3.9c0-2.3-0.5-4.1-1.6-5.3-1-1.2-2.5-1.9-4.4-1.9-1.8 0-3.3 0.6-4.4 1.8s-1.7 2.7-1.7 4.5h-3.5c0-2.5 0.9-4.7 2.7-6.6s4.1-2.8 7-2.8c2.8 0 5.1 0.9 6.7 2.6 1.7 1.7 2.5 4.3 2.5 7.7v15.6c0 1.1 0 2.2 0.1 3.3s0.2 2.1 0.5 3.1h-3.5zm-8.3-2.6c1.8 0 3.4-0.5 4.8-1.6s2.4-2.5 3-4.3v-6.9h-5.2c-2.3 0-4.1 0.7-5.4 2s-1.9 3-1.9 5.1c0 1.7 0.4 3.1 1.2 4.2s2 1.5 3.5 1.5z" fill="#b60000" class="st1"/><path d="m306.7 50.8c1.7 0 3.2-0.6 4.5-1.9s1.9-3.1 1.9-5.5h3.3c0 3.1-0.9 5.6-2.9 7.6s-4.2 2.9-6.8 2.9c-3.6 0-6.2-1.3-8.1-3.8s-2.7-5.9-2.7-10.1v-4.9c0-4.2 0.9-7.5 2.7-10.1s4.5-3.9 8-3.9c2.9 0 5.2 1 7 3.1 1.8 2 2.7 4.8 2.7 8.3h-3.3c0-2.6-0.5-4.6-1.8-6.1s-2.8-2.2-4.7-2.2c-2.6 0-4.5 1-5.6 3s-1.7 4.6-1.7 7.9v4.9c0 3.3 0.6 5.9 1.7 7.9s3.2 2.9 5.8 2.9z" fill="#b60000" class="st1"/><path d="m326 26.2c0.9-1.6 2-2.9 3.3-3.9 1.3-0.9 2.8-1.4 4.5-1.4 2.7 0 4.7 1 6.1 3s2.1 5.2 2.1 9.7v19.6h-3.5v-19.6c0-3.5-0.5-5.9-1.4-7.4s-2.4-2.2-4.3-2.2c-1.6 0-2.9 0.6-4.1 1.7-1.1 1.1-2.1 2.6-2.7 4.4v23h-3.5v-45.6h3.5v18.7z" fill="#b60000" class="st1"/></g><path d="m58.433 40.171-5.5745-31.397h33.529l-5.574 31.479-11.231 11.149-11.149-11.231z" fill-rule="evenodd" class="st2" clip-rule="evenodd" fill="#b60000"/><path d="m58.433 40.171 27.956-31.396-5.576 31.396-11.231 11.231z" fill-rule="evenodd" class="st3" clip-rule="evenodd" fill="#db0000"/><path d="m58.433 40.171-5.574-31.402 16.723 42.633z" fill-rule="evenodd" class="st4" clip-rule="evenodd" fill="#7c0000"/><path d="m61.384 59.6h-49.186l-8.198-2.869 8.1978-2.8692h49.187v5.7384z" fill-rule="evenodd" class="st5" clip-rule="evenodd" fill="#222"/><g transform="matrix(.81978 0 0 .81978 .72089 2.5435)"><polygon fill-rule="evenodd" class="st5" points="94 62.5 94 69.5 224 69.6 234 66.1 224 62.6" clip-rule="evenodd" fill="#222"/></g></svg>
